G04*
G04 #@! TF.GenerationSoftware,Altium Limited,Altium Designer,20.0.13 (296)*
G04*
G04 Layer_Physical_Order=1*
G04 Layer_Color=255*
%FSAX44Y44*%
%MOMM*%
G71*
G01*
G75*
%ADD27C,1.0160*%
%ADD28C,0.3810*%
%ADD29C,3.5000*%
%ADD30C,2.1000*%
%ADD31R,2.1000X2.1000*%
%ADD32R,2.1000X2.1000*%
%ADD33C,1.6500*%
%ADD34R,1.6500X1.6500*%
G04:AMPARAMS|DCode=35|XSize=10mm|YSize=3.2mm|CornerRadius=0mm|HoleSize=0mm|Usage=FLASHONLY|Rotation=38.400|XOffset=0mm|YOffset=0mm|HoleType=Round|Shape=Round|*
%AMOVALD35*
21,1,6.8000,3.2000,0.0000,0.0000,38.4*
1,1,3.2000,-2.6646,-2.1119*
1,1,3.2000,2.6646,2.1119*
%
%ADD35OVALD35*%

G04:AMPARAMS|DCode=36|XSize=10mm|YSize=3.2mm|CornerRadius=0mm|HoleSize=0mm|Usage=FLASHONLY|Rotation=-39.200|XOffset=0mm|YOffset=0mm|HoleType=Round|Shape=Round|*
%AMOVALD36*
21,1,6.8000,3.2000,0.0000,0.0000,-39.2*
1,1,3.2000,-2.6348,2.1489*
1,1,3.2000,2.6348,-2.1489*
%
%ADD36OVALD36*%

G04:AMPARAMS|DCode=37|XSize=10mm|YSize=3.2mm|CornerRadius=0mm|HoleSize=0mm|Usage=FLASHONLY|Rotation=39.600|XOffset=0mm|YOffset=0mm|HoleType=Round|Shape=Round|*
%AMOVALD37*
21,1,6.8000,3.2000,0.0000,0.0000,39.6*
1,1,3.2000,-2.6197,-2.1672*
1,1,3.2000,2.6197,2.1672*
%
%ADD37OVALD37*%

G04:AMPARAMS|DCode=38|XSize=10mm|YSize=3.2mm|CornerRadius=0mm|HoleSize=0mm|Usage=FLASHONLY|Rotation=-38.600|XOffset=0mm|YOffset=0mm|HoleType=Round|Shape=Round|*
%AMOVALD38*
21,1,6.8000,3.2000,0.0000,0.0000,-38.6*
1,1,3.2000,-2.6572,2.1212*
1,1,3.2000,2.6572,-2.1212*
%
%ADD38OVALD38*%

%ADD39C,1.2700*%
G36*
X00546015Y00689910D02*
X00546311Y00688423D01*
X00547153Y00687163D01*
X00548413Y00686321D01*
X00549900Y00686025D01*
X01446116D01*
X01446116Y00213885D01*
X00003885D01*
X00003885Y01536115D01*
X00546015D01*
Y00689910D01*
D02*
G37*
%LPC*%
G36*
X00405830Y01484137D02*
X00177010D01*
X00173081Y01483750D01*
X00169304Y01482604D01*
X00165822Y01480743D01*
X00162771Y01478239D01*
X00160267Y01475188D01*
X00158406Y01471706D01*
X00157260Y01467929D01*
X00156873Y01464000D01*
X00157260Y01460072D01*
X00158406Y01456294D01*
X00160267Y01452813D01*
X00162771Y01449761D01*
X00165822Y01447257D01*
X00169304Y01445396D01*
X00173081Y01444250D01*
X00177010Y01443863D01*
X00397489D01*
X00456503Y01384849D01*
Y01285984D01*
X00455330Y01285498D01*
X00396589Y01344239D01*
X00393537Y01346743D01*
X00390056Y01348604D01*
X00386278Y01349750D01*
X00382350Y01350137D01*
X00177010D01*
X00173081Y01349750D01*
X00169304Y01348604D01*
X00165822Y01346743D01*
X00162771Y01344239D01*
X00160267Y01341187D01*
X00158406Y01337706D01*
X00157260Y01333929D01*
X00156873Y01330000D01*
X00157260Y01326071D01*
X00158406Y01322294D01*
X00160267Y01318813D01*
X00162771Y01315761D01*
X00165822Y01313257D01*
X00169304Y01311396D01*
X00173081Y01310250D01*
X00177010Y01309863D01*
X00374009D01*
X00456503Y01227369D01*
Y00693420D01*
X00456890Y00689492D01*
X00458036Y00685714D01*
X00459897Y00682233D01*
X00462401Y00679181D01*
X00550031Y00591551D01*
X00553083Y00589047D01*
X00556564Y00587186D01*
X00560341Y00586040D01*
X00564270Y00585653D01*
X01132509D01*
X01163503Y00554659D01*
Y00347500D01*
X01163890Y00343572D01*
X01165036Y00339794D01*
X01166897Y00336312D01*
X01169401Y00333261D01*
X01172452Y00330757D01*
X01175934Y00328896D01*
X01179712Y00327750D01*
X01183640Y00327363D01*
X01187569Y00327750D01*
X01191346Y00328896D01*
X01194827Y00330757D01*
X01197879Y00333261D01*
X01200383Y00336312D01*
X01202244Y00339794D01*
X01203390Y00343572D01*
X01203777Y00347500D01*
Y00542863D01*
X01272172D01*
X01272173Y00542863D01*
X01276101Y00543250D01*
X01279879Y00544396D01*
X01283360Y00546257D01*
X01286412Y00548761D01*
X01288916Y00551813D01*
X01290777Y00555294D01*
X01291923Y00559072D01*
X01292310Y00563000D01*
X01291923Y00566928D01*
X01290777Y00570706D01*
X01288916Y00574188D01*
X01286412Y00577239D01*
X01283360Y00579743D01*
X01279879Y00581604D01*
X01276101Y00582750D01*
X01272173Y00583137D01*
X01191981D01*
X01155089Y00620029D01*
X01152038Y00622533D01*
X01148556Y00624394D01*
X01144779Y00625540D01*
X01140850Y00625927D01*
X00572611D01*
X00496777Y00701761D01*
Y01235710D01*
Y01393190D01*
X00496390Y01397119D01*
X00495244Y01400896D01*
X00493383Y01404377D01*
X00490879Y01407429D01*
X00420069Y01478239D01*
X00417017Y01480743D01*
X00413536Y01482604D01*
X00409758Y01483750D01*
X00405830Y01484137D01*
D02*
G37*
G36*
X00108079Y01134862D02*
X00105262Y01134492D01*
X00102638Y01133404D01*
X00100384Y01131675D01*
X00098654Y01129421D01*
X00097567Y01126796D01*
X00097196Y01123979D01*
X00097567Y01121162D01*
X00098654Y01118538D01*
X00100384Y01116284D01*
X00102638Y01114554D01*
X00105262Y01113467D01*
X00108079Y01113096D01*
X00110896Y01113467D01*
X00113521Y01114554D01*
X00115775Y01116284D01*
X00117504Y01118538D01*
X00118591Y01121162D01*
X00118962Y01123979D01*
X00118591Y01126796D01*
X00117504Y01129421D01*
X00115775Y01131675D01*
X00113521Y01133404D01*
X00110896Y01134492D01*
X00108079Y01134862D01*
D02*
G37*
G36*
X00082679D02*
X00079862Y01134492D01*
X00077238Y01133404D01*
X00074984Y01131675D01*
X00074938Y01131615D01*
X00067289D01*
X00065300Y01131353D01*
X00063446Y01130585D01*
X00061855Y01129364D01*
X00047905Y01115415D01*
X00047905Y01115415D01*
X00046684Y01113823D01*
X00045916Y01111969D01*
X00045654Y01109980D01*
X00045654Y00296383D01*
X00045916Y00294394D01*
X00046684Y00292540D01*
X00047905Y00290949D01*
X00074372Y00264482D01*
X00075964Y00263260D01*
X00077817Y00262493D01*
X00079807Y00262231D01*
X00695757D01*
X00697746Y00262493D01*
X00699600Y00263260D01*
X00701191Y00264482D01*
X00731875Y00295165D01*
X00733096Y00296757D01*
X00733864Y00298611D01*
X00734126Y00300600D01*
Y00336961D01*
X00735740Y00338200D01*
X00737830Y00340924D01*
X00739144Y00344096D01*
X00739593Y00347500D01*
X00739144Y00350904D01*
X00737830Y00354076D01*
X00735740Y00356800D01*
X00733016Y00358890D01*
X00729844Y00360204D01*
X00726440Y00360653D01*
X00723036Y00360204D01*
X00719864Y00358890D01*
X00717140Y00356800D01*
X00715050Y00354076D01*
X00713736Y00350904D01*
X00713288Y00347500D01*
X00713736Y00344096D01*
X00715050Y00340924D01*
X00717140Y00338200D01*
X00718754Y00336961D01*
Y00303784D01*
X00692573Y00277602D01*
X00610561D01*
X00610075Y00278776D01*
X00630275Y00298975D01*
X00630275Y00298975D01*
X00631496Y00300567D01*
X00632264Y00302421D01*
X00632526Y00304410D01*
Y00336961D01*
X00634140Y00338200D01*
X00636230Y00340924D01*
X00637544Y00344096D01*
X00637993Y00347500D01*
X00637544Y00350904D01*
X00636230Y00354076D01*
X00634140Y00356800D01*
X00631416Y00358890D01*
X00628244Y00360204D01*
X00624840Y00360653D01*
X00621436Y00360204D01*
X00618264Y00358890D01*
X00615540Y00356800D01*
X00613450Y00354076D01*
X00612136Y00350904D01*
X00611688Y00347500D01*
X00612136Y00344096D01*
X00613450Y00340924D01*
X00615540Y00338200D01*
X00617154Y00336961D01*
Y00307593D01*
X00587163Y00277602D01*
X00510231D01*
X00509745Y00278776D01*
X00528675Y00297705D01*
X00528675Y00297705D01*
X00529896Y00299297D01*
X00530664Y00301151D01*
X00530926Y00303140D01*
X00530926Y00303140D01*
Y00336961D01*
X00532540Y00338200D01*
X00534630Y00340924D01*
X00535944Y00344096D01*
X00536393Y00347500D01*
X00535944Y00350904D01*
X00534630Y00354076D01*
X00532540Y00356800D01*
X00529816Y00358890D01*
X00526644Y00360204D01*
X00523240Y00360653D01*
X00519836Y00360204D01*
X00516664Y00358890D01*
X00513940Y00356800D01*
X00511850Y00354076D01*
X00510536Y00350904D01*
X00510088Y00347500D01*
X00510536Y00344096D01*
X00511850Y00340924D01*
X00513940Y00338200D01*
X00515554Y00336961D01*
Y00306324D01*
X00486833Y00277602D01*
X00409901D01*
X00409415Y00278776D01*
X00427075Y00296435D01*
X00428296Y00298027D01*
X00429064Y00299881D01*
X00429326Y00301870D01*
Y00336961D01*
X00430940Y00338200D01*
X00433030Y00340924D01*
X00434344Y00344096D01*
X00434793Y00347500D01*
X00434344Y00350904D01*
X00433030Y00354076D01*
X00430940Y00356800D01*
X00428216Y00358890D01*
X00425044Y00360204D01*
X00421640Y00360653D01*
X00418236Y00360204D01*
X00415064Y00358890D01*
X00412340Y00356800D01*
X00410250Y00354076D01*
X00408936Y00350904D01*
X00408488Y00347500D01*
X00408936Y00344096D01*
X00410250Y00340924D01*
X00412340Y00338200D01*
X00413954Y00336961D01*
Y00305054D01*
X00386503Y00277602D01*
X00309571D01*
X00309085Y00278776D01*
X00325865Y00295555D01*
X00327086Y00297147D01*
X00327854Y00299001D01*
X00328116Y00300990D01*
Y00337260D01*
X00329340Y00338200D01*
X00331430Y00340924D01*
X00332744Y00344096D01*
X00333192Y00347500D01*
X00332744Y00350904D01*
X00331430Y00354076D01*
X00329340Y00356800D01*
X00326616Y00358890D01*
X00323444Y00360204D01*
X00320040Y00360653D01*
X00316636Y00360204D01*
X00313464Y00358890D01*
X00310740Y00356800D01*
X00308650Y00354076D01*
X00307336Y00350904D01*
X00306887Y00347500D01*
X00307336Y00344096D01*
X00308650Y00340924D01*
X00310740Y00338200D01*
X00312744Y00336662D01*
Y00304174D01*
X00286173Y00277602D01*
X00205431D01*
X00204945Y00278776D01*
X00223875Y00297705D01*
X00223875Y00297705D01*
X00225096Y00299297D01*
X00225864Y00301151D01*
X00226126Y00303140D01*
X00226126Y00303140D01*
Y00336961D01*
X00227740Y00338200D01*
X00229830Y00340924D01*
X00231144Y00344096D01*
X00231593Y00347500D01*
X00231144Y00350904D01*
X00229830Y00354076D01*
X00227740Y00356800D01*
X00225016Y00358890D01*
X00221844Y00360204D01*
X00218440Y00360653D01*
X00215036Y00360204D01*
X00211864Y00358890D01*
X00209140Y00356800D01*
X00207050Y00354076D01*
X00205736Y00350904D01*
X00205287Y00347500D01*
X00205736Y00344096D01*
X00207050Y00340924D01*
X00209140Y00338200D01*
X00210754Y00336961D01*
Y00306324D01*
X00182033Y00277602D01*
X00100021D01*
X00099535Y00278776D01*
X00122275Y00301515D01*
X00123496Y00303107D01*
X00124264Y00304961D01*
X00124526Y00306950D01*
X00124526Y00306950D01*
Y00334460D01*
X00129880D01*
Y00360540D01*
X00103800D01*
Y00334460D01*
X00109154D01*
Y00310134D01*
X00079807Y00280786D01*
X00061026Y00299567D01*
X00061026Y01106796D01*
X00070473Y01116244D01*
X00075036D01*
X00077238Y01114554D01*
X00079862Y01113467D01*
X00082679Y01113096D01*
X00085496Y01113467D01*
X00088121Y01114554D01*
X00090375Y01116284D01*
X00092104Y01118538D01*
X00093191Y01121162D01*
X00093562Y01123979D01*
X00093191Y01126796D01*
X00092104Y01129421D01*
X00090375Y01131675D01*
X00088121Y01133404D01*
X00085496Y01134492D01*
X00082679Y01134862D01*
D02*
G37*
G36*
X00108079Y01109462D02*
X00105262Y01109091D01*
X00102638Y01108004D01*
X00100384Y01106275D01*
X00098654Y01104021D01*
X00097567Y01101396D01*
X00097196Y01098579D01*
X00097567Y01095762D01*
X00098654Y01093138D01*
X00100384Y01090884D01*
X00102638Y01089154D01*
X00105262Y01088067D01*
X00108079Y01087696D01*
X00110896Y01088067D01*
X00113521Y01089154D01*
X00115775Y01090884D01*
X00117504Y01093138D01*
X00118591Y01095762D01*
X00118962Y01098579D01*
X00118591Y01101396D01*
X00117504Y01104021D01*
X00115775Y01106275D01*
X00113521Y01108004D01*
X00110896Y01109091D01*
X00108079Y01109462D01*
D02*
G37*
G36*
X00082679D02*
X00079862Y01109091D01*
X00077238Y01108004D01*
X00074984Y01106275D01*
X00073254Y01104021D01*
X00072167Y01101396D01*
X00071796Y01098579D01*
X00072167Y01095762D01*
X00073254Y01093138D01*
X00074984Y01090884D01*
X00077238Y01089154D01*
X00079862Y01088067D01*
X00082679Y01087696D01*
X00085496Y01088067D01*
X00088121Y01089154D01*
X00090375Y01090884D01*
X00092104Y01093138D01*
X00093191Y01095762D01*
X00093562Y01098579D01*
X00093191Y01101396D01*
X00092104Y01104021D01*
X00090375Y01106275D01*
X00088121Y01108004D01*
X00085496Y01109091D01*
X00082679Y01109462D01*
D02*
G37*
G36*
X00108079Y01084062D02*
X00105262Y01083691D01*
X00102638Y01082604D01*
X00100384Y01080875D01*
X00098654Y01078621D01*
X00097567Y01075996D01*
X00097196Y01073179D01*
X00097567Y01070362D01*
X00098654Y01067738D01*
X00100384Y01065484D01*
X00102638Y01063754D01*
X00105262Y01062667D01*
X00108079Y01062296D01*
X00110896Y01062667D01*
X00113521Y01063754D01*
X00115775Y01065484D01*
X00117504Y01067738D01*
X00118591Y01070362D01*
X00118962Y01073179D01*
X00118591Y01075996D01*
X00117504Y01078621D01*
X00115775Y01080875D01*
X00113521Y01082604D01*
X00110896Y01083691D01*
X00108079Y01084062D01*
D02*
G37*
G36*
X00082679D02*
X00079862Y01083691D01*
X00077238Y01082604D01*
X00074984Y01080875D01*
X00073254Y01078621D01*
X00072167Y01075996D01*
X00071796Y01073179D01*
X00072167Y01070362D01*
X00073254Y01067738D01*
X00074984Y01065484D01*
X00077238Y01063754D01*
X00079862Y01062667D01*
X00082679Y01062296D01*
X00085496Y01062667D01*
X00088121Y01063754D01*
X00090375Y01065484D01*
X00092104Y01067738D01*
X00093191Y01070362D01*
X00093562Y01073179D01*
X00093191Y01075996D01*
X00092104Y01078621D01*
X00090375Y01080875D01*
X00088121Y01082604D01*
X00085496Y01083691D01*
X00082679Y01084062D01*
D02*
G37*
G36*
X00108079Y01033262D02*
X00105262Y01032891D01*
X00102638Y01031804D01*
X00100384Y01030075D01*
X00098654Y01027821D01*
X00097567Y01025196D01*
X00097196Y01022379D01*
X00097567Y01019563D01*
X00098654Y01016938D01*
X00100384Y01014684D01*
X00102638Y01012954D01*
X00105262Y01011867D01*
X00108079Y01011496D01*
X00110896Y01011867D01*
X00113521Y01012954D01*
X00115775Y01014684D01*
X00117504Y01016938D01*
X00118591Y01019563D01*
X00118962Y01022379D01*
X00118591Y01025196D01*
X00117504Y01027821D01*
X00115775Y01030075D01*
X00113521Y01031804D01*
X00110896Y01032891D01*
X00108079Y01033262D01*
D02*
G37*
G36*
X00082679D02*
X00079862Y01032891D01*
X00077238Y01031804D01*
X00074984Y01030075D01*
X00073254Y01027821D01*
X00072167Y01025196D01*
X00071796Y01022379D01*
X00072167Y01019563D01*
X00073254Y01016938D01*
X00074984Y01014684D01*
X00077238Y01012954D01*
X00079862Y01011867D01*
X00082679Y01011496D01*
X00085496Y01011867D01*
X00088121Y01012954D01*
X00090375Y01014684D01*
X00092104Y01016938D01*
X00093191Y01019563D01*
X00093562Y01022379D01*
X00093191Y01025196D01*
X00092104Y01027821D01*
X00090375Y01030075D01*
X00088121Y01031804D01*
X00085496Y01032891D01*
X00082679Y01033262D01*
D02*
G37*
G36*
Y00982462D02*
X00079862Y00982092D01*
X00077238Y00981004D01*
X00074984Y00979275D01*
X00073254Y00977021D01*
X00072167Y00974396D01*
X00071796Y00971579D01*
X00072167Y00968763D01*
X00073254Y00966138D01*
X00074984Y00963884D01*
X00077238Y00962154D01*
X00079862Y00961067D01*
X00082679Y00960696D01*
X00085496Y00961067D01*
X00088121Y00962154D01*
X00090375Y00963884D01*
X00092104Y00966138D01*
X00093191Y00968763D01*
X00093562Y00971579D01*
X00093191Y00974396D01*
X00092104Y00977021D01*
X00090375Y00979275D01*
X00088121Y00981004D01*
X00085496Y00982092D01*
X00082679Y00982462D01*
D02*
G37*
G36*
Y00957062D02*
X00079862Y00956692D01*
X00077238Y00955604D01*
X00074984Y00953875D01*
X00073254Y00951621D01*
X00072167Y00948996D01*
X00071796Y00946179D01*
X00072167Y00943363D01*
X00073254Y00940738D01*
X00074984Y00938484D01*
X00077238Y00936754D01*
X00079862Y00935667D01*
X00082679Y00935296D01*
X00085496Y00935667D01*
X00088121Y00936754D01*
X00090375Y00938484D01*
X00092104Y00940738D01*
X00093191Y00943363D01*
X00093562Y00946179D01*
X00093191Y00948996D01*
X00092104Y00951621D01*
X00090375Y00953875D01*
X00088121Y00955604D01*
X00085496Y00956692D01*
X00082679Y00957062D01*
D02*
G37*
G36*
X00108079Y00855462D02*
X00105262Y00855091D01*
X00102638Y00854004D01*
X00100384Y00852275D01*
X00098654Y00850021D01*
X00097567Y00847396D01*
X00097196Y00844579D01*
X00097567Y00841762D01*
X00098654Y00839138D01*
X00100384Y00836884D01*
X00102638Y00835154D01*
X00105262Y00834067D01*
X00108079Y00833696D01*
X00110896Y00834067D01*
X00113521Y00835154D01*
X00115775Y00836884D01*
X00117504Y00839138D01*
X00118591Y00841762D01*
X00118962Y00844579D01*
X00118591Y00847396D01*
X00117504Y00850021D01*
X00115775Y00852275D01*
X00113521Y00854004D01*
X00110896Y00855091D01*
X00108079Y00855462D01*
D02*
G37*
G36*
X00082679D02*
X00079862Y00855091D01*
X00077238Y00854004D01*
X00074984Y00852275D01*
X00073254Y00850021D01*
X00072167Y00847396D01*
X00071796Y00844579D01*
X00072167Y00841762D01*
X00073254Y00839138D01*
X00074984Y00836884D01*
X00077238Y00835154D01*
X00079862Y00834067D01*
X00082679Y00833696D01*
X00085496Y00834067D01*
X00088121Y00835154D01*
X00090375Y00836884D01*
X00092104Y00839138D01*
X00093191Y00841762D01*
X00093562Y00844579D01*
X00093191Y00847396D01*
X00092104Y00850021D01*
X00090375Y00852275D01*
X00088121Y00854004D01*
X00085496Y00855091D01*
X00082679Y00855462D01*
D02*
G37*
G36*
X00108079Y00830062D02*
X00105262Y00829691D01*
X00102638Y00828604D01*
X00100384Y00826875D01*
X00098654Y00824621D01*
X00097567Y00821996D01*
X00097196Y00819179D01*
X00097567Y00816363D01*
X00098654Y00813738D01*
X00100384Y00811484D01*
X00102638Y00809754D01*
X00105262Y00808667D01*
X00108079Y00808296D01*
X00110896Y00808667D01*
X00113521Y00809754D01*
X00115775Y00811484D01*
X00117504Y00813738D01*
X00118591Y00816363D01*
X00118962Y00819179D01*
X00118591Y00821996D01*
X00117504Y00824621D01*
X00115775Y00826875D01*
X00113521Y00828604D01*
X00110896Y00829691D01*
X00108079Y00830062D01*
D02*
G37*
G36*
X00082679D02*
X00079862Y00829691D01*
X00077238Y00828604D01*
X00074984Y00826875D01*
X00073254Y00824621D01*
X00072167Y00821996D01*
X00071796Y00819179D01*
X00072167Y00816363D01*
X00073254Y00813738D01*
X00074984Y00811484D01*
X00077238Y00809754D01*
X00079862Y00808667D01*
X00082679Y00808296D01*
X00085496Y00808667D01*
X00088121Y00809754D01*
X00090375Y00811484D01*
X00092104Y00813738D01*
X00093191Y00816363D01*
X00093562Y00819179D01*
X00093191Y00821996D01*
X00092104Y00824621D01*
X00090375Y00826875D01*
X00088121Y00828604D01*
X00085496Y00829691D01*
X00082679Y00830062D01*
D02*
G37*
G36*
X00108079Y00804662D02*
X00105262Y00804292D01*
X00102638Y00803204D01*
X00100384Y00801475D01*
X00098654Y00799221D01*
X00097567Y00796596D01*
X00097196Y00793779D01*
X00097567Y00790963D01*
X00098654Y00788338D01*
X00100384Y00786084D01*
X00102638Y00784354D01*
X00105262Y00783267D01*
X00108079Y00782896D01*
X00110896Y00783267D01*
X00113521Y00784354D01*
X00115775Y00786084D01*
X00117504Y00788338D01*
X00118591Y00790963D01*
X00118962Y00793779D01*
X00118591Y00796596D01*
X00117504Y00799221D01*
X00115775Y00801475D01*
X00113521Y00803204D01*
X00110896Y00804292D01*
X00108079Y00804662D01*
D02*
G37*
G36*
X00082679D02*
X00079862Y00804292D01*
X00077238Y00803204D01*
X00074984Y00801475D01*
X00073254Y00799221D01*
X00072167Y00796596D01*
X00071796Y00793779D01*
X00072167Y00790963D01*
X00073254Y00788338D01*
X00074984Y00786084D01*
X00077238Y00784354D01*
X00079862Y00783267D01*
X00082679Y00782896D01*
X00085496Y00783267D01*
X00088121Y00784354D01*
X00090375Y00786084D01*
X00092104Y00788338D01*
X00093191Y00790963D01*
X00093562Y00793779D01*
X00093191Y00796596D01*
X00092104Y00799221D01*
X00090375Y00801475D01*
X00088121Y00803204D01*
X00085496Y00804292D01*
X00082679Y00804662D01*
D02*
G37*
G36*
X00108079Y00779262D02*
X00105262Y00778892D01*
X00102638Y00777804D01*
X00100384Y00776075D01*
X00098654Y00773821D01*
X00097567Y00771196D01*
X00097196Y00768379D01*
X00097567Y00765563D01*
X00098654Y00762938D01*
X00100384Y00760684D01*
X00102638Y00758954D01*
X00105262Y00757867D01*
X00108079Y00757496D01*
X00110896Y00757867D01*
X00113521Y00758954D01*
X00115775Y00760684D01*
X00117504Y00762938D01*
X00118591Y00765563D01*
X00118962Y00768379D01*
X00118591Y00771196D01*
X00117504Y00773821D01*
X00115775Y00776075D01*
X00113521Y00777804D01*
X00110896Y00778892D01*
X00108079Y00779262D01*
D02*
G37*
G36*
X00082679D02*
X00079862Y00778892D01*
X00077238Y00777804D01*
X00074984Y00776075D01*
X00073254Y00773821D01*
X00072167Y00771196D01*
X00071796Y00768379D01*
X00072167Y00765563D01*
X00073254Y00762938D01*
X00074984Y00760684D01*
X00077238Y00758954D01*
X00079862Y00757867D01*
X00082679Y00757496D01*
X00085496Y00757867D01*
X00088121Y00758954D01*
X00090375Y00760684D01*
X00092104Y00762938D01*
X00093191Y00765563D01*
X00093562Y00768379D01*
X00093191Y00771196D01*
X00092104Y00773821D01*
X00090375Y00776075D01*
X00088121Y00777804D01*
X00085496Y00778892D01*
X00082679Y00779262D01*
D02*
G37*
G36*
X00108079Y00753862D02*
X00105262Y00753492D01*
X00102638Y00752404D01*
X00100384Y00750675D01*
X00098654Y00748421D01*
X00097567Y00745796D01*
X00097196Y00742979D01*
X00097567Y00740163D01*
X00098654Y00737538D01*
X00100384Y00735284D01*
X00102638Y00733554D01*
X00105262Y00732467D01*
X00108079Y00732096D01*
X00110896Y00732467D01*
X00113521Y00733554D01*
X00115775Y00735284D01*
X00117504Y00737538D01*
X00118591Y00740163D01*
X00118962Y00742979D01*
X00118591Y00745796D01*
X00117504Y00748421D01*
X00115775Y00750675D01*
X00113521Y00752404D01*
X00110896Y00753492D01*
X00108079Y00753862D01*
D02*
G37*
G36*
X00082679D02*
X00079862Y00753492D01*
X00077238Y00752404D01*
X00074984Y00750675D01*
X00073254Y00748421D01*
X00072167Y00745796D01*
X00071796Y00742979D01*
X00072167Y00740163D01*
X00073254Y00737538D01*
X00074984Y00735284D01*
X00077238Y00733554D01*
X00079862Y00732467D01*
X00082679Y00732096D01*
X00085496Y00732467D01*
X00088121Y00733554D01*
X00090375Y00735284D01*
X00092104Y00737538D01*
X00093191Y00740163D01*
X00093562Y00742979D01*
X00093191Y00745796D01*
X00092104Y00748421D01*
X00090375Y00750675D01*
X00088121Y00752404D01*
X00085496Y00753492D01*
X00082679Y00753862D01*
D02*
G37*
G36*
X01336040Y00360653D02*
X01332636Y00360204D01*
X01329464Y00358890D01*
X01326740Y00356800D01*
X01324650Y00354076D01*
X01323336Y00350904D01*
X01322888Y00347500D01*
X01323336Y00344096D01*
X01324650Y00340924D01*
X01326740Y00338200D01*
X01329464Y00336110D01*
X01332636Y00334796D01*
X01336040Y00334347D01*
X01339444Y00334796D01*
X01342616Y00336110D01*
X01345340Y00338200D01*
X01347430Y00340924D01*
X01348744Y00344096D01*
X01349193Y00347500D01*
X01348744Y00350904D01*
X01347430Y00354076D01*
X01345340Y00356800D01*
X01342616Y00358890D01*
X01339444Y00360204D01*
X01336040Y00360653D01*
D02*
G37*
G36*
X01285240D02*
X01281836Y00360204D01*
X01278664Y00358890D01*
X01275940Y00356800D01*
X01273850Y00354076D01*
X01272536Y00350904D01*
X01272087Y00347500D01*
X01272536Y00344096D01*
X01273850Y00340924D01*
X01275940Y00338200D01*
X01278664Y00336110D01*
X01281836Y00334796D01*
X01285240Y00334347D01*
X01288644Y00334796D01*
X01291816Y00336110D01*
X01294540Y00338200D01*
X01296630Y00340924D01*
X01297944Y00344096D01*
X01298392Y00347500D01*
X01297944Y00350904D01*
X01296630Y00354076D01*
X01294540Y00356800D01*
X01291816Y00358890D01*
X01288644Y00360204D01*
X01285240Y00360653D01*
D02*
G37*
G36*
X01031240D02*
X01027836Y00360204D01*
X01024664Y00358890D01*
X01021940Y00356800D01*
X01019850Y00354076D01*
X01018536Y00350904D01*
X01018087Y00347500D01*
X01018536Y00344096D01*
X01019850Y00340924D01*
X01021940Y00338200D01*
X01024664Y00336110D01*
X01027836Y00334796D01*
X01031240Y00334347D01*
X01034644Y00334796D01*
X01037816Y00336110D01*
X01040540Y00338200D01*
X01042630Y00340924D01*
X01043944Y00344096D01*
X01044392Y00347500D01*
X01043944Y00350904D01*
X01042630Y00354076D01*
X01040540Y00356800D01*
X01037816Y00358890D01*
X01034644Y00360204D01*
X01031240Y00360653D01*
D02*
G37*
G36*
X00980440D02*
X00977036Y00360204D01*
X00973864Y00358890D01*
X00971140Y00356800D01*
X00969050Y00354076D01*
X00967736Y00350904D01*
X00967288Y00347500D01*
X00967736Y00344096D01*
X00969050Y00340924D01*
X00971140Y00338200D01*
X00973864Y00336110D01*
X00977036Y00334796D01*
X00980440Y00334347D01*
X00983844Y00334796D01*
X00987016Y00336110D01*
X00989740Y00338200D01*
X00991830Y00340924D01*
X00993144Y00344096D01*
X00993593Y00347500D01*
X00993144Y00350904D01*
X00991830Y00354076D01*
X00989740Y00356800D01*
X00987016Y00358890D01*
X00983844Y00360204D01*
X00980440Y00360653D01*
D02*
G37*
G36*
X00358530Y01179896D02*
X00105510D01*
X00103521Y01179634D01*
X00101667Y01178866D01*
X00100075Y01177645D01*
X00082600Y01160169D01*
X00071889D01*
Y01138589D01*
X00093469D01*
Y01149300D01*
X00096274Y01152105D01*
X00097477Y01151512D01*
X00097196Y01149379D01*
X00097567Y01146562D01*
X00098654Y01143938D01*
X00100384Y01141684D01*
X00102638Y01139954D01*
X00105262Y01138867D01*
X00108079Y01138496D01*
X00110896Y01138867D01*
X00113521Y01139954D01*
X00115775Y01141684D01*
X00115782Y01141693D01*
X00126327D01*
X00134684Y01133337D01*
Y01004599D01*
X00134945Y01002610D01*
X00135713Y01000756D01*
X00136935Y00999165D01*
X00146115Y00989985D01*
X00145628Y00988811D01*
X00117013D01*
X00116387Y00990081D01*
X00117504Y00991538D01*
X00118591Y00994163D01*
X00118962Y00996979D01*
X00118591Y00999796D01*
X00117504Y01002421D01*
X00115775Y01004675D01*
X00113521Y01006404D01*
X00110896Y01007492D01*
X00108079Y01007862D01*
X00105262Y01007492D01*
X00102638Y01006404D01*
X00100384Y01004675D01*
X00098654Y01002421D01*
X00097567Y00999796D01*
X00097196Y00996979D01*
X00097567Y00994163D01*
X00098654Y00991538D01*
X00099772Y00990081D01*
X00099145Y00988811D01*
X00097256D01*
X00092815Y00993253D01*
X00093191Y00994163D01*
X00093562Y00996979D01*
X00093191Y00999796D01*
X00092104Y01002421D01*
X00090375Y01004675D01*
X00088121Y01006404D01*
X00085496Y01007492D01*
X00082679Y01007862D01*
X00079862Y01007492D01*
X00077238Y01006404D01*
X00074984Y01004675D01*
X00073254Y01002421D01*
X00072167Y00999796D01*
X00071796Y00996979D01*
X00072167Y00994163D01*
X00073254Y00991538D01*
X00074984Y00989284D01*
X00077238Y00987554D01*
X00079862Y00986467D01*
X00082679Y00986096D01*
X00085496Y00986467D01*
X00086405Y00986844D01*
X00092175Y00981075D01*
X00092175Y00981075D01*
X00093645Y00980092D01*
X00095379Y00979747D01*
X00095379Y00979747D01*
X00099145D01*
X00099772Y00978477D01*
X00098654Y00977021D01*
X00097567Y00974396D01*
X00097196Y00971579D01*
X00097567Y00968763D01*
X00098654Y00966138D01*
X00100384Y00963884D01*
X00102638Y00962154D01*
X00105262Y00961067D01*
X00108079Y00960696D01*
X00110896Y00961067D01*
X00113521Y00962154D01*
X00115775Y00963884D01*
X00117504Y00966138D01*
X00118591Y00968763D01*
X00118962Y00971579D01*
X00118591Y00974396D01*
X00117504Y00977021D01*
X00116387Y00978477D01*
X00117013Y00979747D01*
X00156352D01*
X00157255Y00978845D01*
X00158846Y00977623D01*
X00160700Y00976855D01*
X00162689Y00976593D01*
X00301977D01*
X00381324Y00897246D01*
Y00543560D01*
X00381586Y00541571D01*
X00382354Y00539717D01*
X00383575Y00538125D01*
X00433105Y00488595D01*
X00434697Y00487374D01*
X00436551Y00486606D01*
X00438540Y00486344D01*
X00438540Y00486344D01*
X00784216D01*
X00820354Y00450206D01*
Y00358039D01*
X00818740Y00356800D01*
X00816650Y00354076D01*
X00815336Y00350904D01*
X00814887Y00347500D01*
X00815336Y00344096D01*
X00816650Y00340924D01*
X00818740Y00338200D01*
X00821464Y00336110D01*
X00824636Y00334796D01*
X00828040Y00334347D01*
X00831444Y00334796D01*
X00834616Y00336110D01*
X00837340Y00338200D01*
X00839430Y00340924D01*
X00840744Y00344096D01*
X00841192Y00347500D01*
X00840744Y00350904D01*
X00839430Y00354076D01*
X00837340Y00356800D01*
X00835726Y00358039D01*
Y00453390D01*
X00835726Y00453390D01*
X00835464Y00455379D01*
X00834696Y00457233D01*
X00833475Y00458825D01*
X00792835Y00499465D01*
X00791243Y00500686D01*
X00789389Y00501454D01*
X00787400Y00501716D01*
X00441724D01*
X00396696Y00546744D01*
Y00900430D01*
X00396696Y00900430D01*
X00396434Y00902419D01*
X00395666Y00904273D01*
X00394445Y00905865D01*
X00394445Y00905865D01*
X00310595Y00989714D01*
X00309004Y00990935D01*
X00307150Y00991703D01*
X00305161Y00991965D01*
X00165873D01*
X00150055Y01007783D01*
Y01136521D01*
X00149793Y01138510D01*
X00149025Y01140364D01*
X00147804Y01141955D01*
X00147804Y01141955D01*
X00134945Y01154814D01*
X00133354Y01156035D01*
X00131500Y01156803D01*
X00129511Y01157065D01*
X00115782D01*
X00115775Y01157075D01*
X00113521Y01158804D01*
X00110896Y01159892D01*
X00108079Y01160262D01*
X00105947Y01159982D01*
X00105354Y01161184D01*
X00108694Y01164524D01*
X00355346D01*
X00419424Y01100446D01*
Y00571500D01*
X00419686Y00569511D01*
X00420454Y00567657D01*
X00421675Y00566065D01*
X00462315Y00525425D01*
X00463907Y00524204D01*
X00465761Y00523436D01*
X00467750Y00523174D01*
X00467750Y00523174D01*
X00855336D01*
X00921954Y00456556D01*
Y00358039D01*
X00920340Y00356800D01*
X00918250Y00354076D01*
X00916936Y00350904D01*
X00916488Y00347500D01*
X00916936Y00344096D01*
X00918250Y00340924D01*
X00920340Y00338200D01*
X00923064Y00336110D01*
X00926236Y00334796D01*
X00929640Y00334347D01*
X00933044Y00334796D01*
X00936216Y00336110D01*
X00938940Y00338200D01*
X00941030Y00340924D01*
X00942344Y00344096D01*
X00942793Y00347500D01*
X00942344Y00350904D01*
X00941030Y00354076D01*
X00938940Y00356800D01*
X00937326Y00358039D01*
Y00459740D01*
X00937064Y00461729D01*
X00936296Y00463583D01*
X00935075Y00465175D01*
X00863955Y00536295D01*
X00862363Y00537516D01*
X00860509Y00538284D01*
X00858520Y00538546D01*
X00470933D01*
X00434796Y00574683D01*
Y01103630D01*
X00434534Y01105619D01*
X00433766Y01107473D01*
X00432545Y01109065D01*
X00363965Y01177645D01*
X00362373Y01178866D01*
X00360519Y01179634D01*
X00358530Y01179896D01*
D02*
G37*
G36*
X00878840Y00360653D02*
X00875436Y00360204D01*
X00872264Y00358890D01*
X00869540Y00356800D01*
X00867450Y00354076D01*
X00866136Y00350904D01*
X00865687Y00347500D01*
X00866136Y00344096D01*
X00867450Y00340924D01*
X00869540Y00338200D01*
X00872264Y00336110D01*
X00875436Y00334796D01*
X00878840Y00334347D01*
X00882244Y00334796D01*
X00885416Y00336110D01*
X00888140Y00338200D01*
X00890230Y00340924D01*
X00891544Y00344096D01*
X00891992Y00347500D01*
X00891544Y00350904D01*
X00890230Y00354076D01*
X00888140Y00356800D01*
X00885416Y00358890D01*
X00882244Y00360204D01*
X00878840Y00360653D01*
D02*
G37*
G36*
X00777240D02*
X00773836Y00360204D01*
X00770664Y00358890D01*
X00767940Y00356800D01*
X00765850Y00354076D01*
X00764536Y00350904D01*
X00764088Y00347500D01*
X00764536Y00344096D01*
X00765850Y00340924D01*
X00767940Y00338200D01*
X00770664Y00336110D01*
X00773836Y00334796D01*
X00777240Y00334347D01*
X00780644Y00334796D01*
X00783816Y00336110D01*
X00786540Y00338200D01*
X00788630Y00340924D01*
X00789944Y00344096D01*
X00790393Y00347500D01*
X00789944Y00350904D01*
X00788630Y00354076D01*
X00786540Y00356800D01*
X00783816Y00358890D01*
X00780644Y00360204D01*
X00777240Y00360653D01*
D02*
G37*
G36*
X00108079Y00957062D02*
X00105262Y00956692D01*
X00102638Y00955604D01*
X00100384Y00953875D01*
X00098654Y00951621D01*
X00097567Y00948996D01*
X00097196Y00946179D01*
X00097567Y00943363D01*
X00098654Y00940738D01*
X00099775Y00939276D01*
X00099149Y00938006D01*
X00098808D01*
X00097074Y00937661D01*
X00095603Y00936679D01*
X00088691Y00929767D01*
X00088121Y00930204D01*
X00085496Y00931292D01*
X00082679Y00931662D01*
X00079862Y00931292D01*
X00077238Y00930204D01*
X00074984Y00928475D01*
X00073254Y00926221D01*
X00072167Y00923596D01*
X00071796Y00920779D01*
X00072167Y00917962D01*
X00073254Y00915338D01*
X00074984Y00913084D01*
X00077238Y00911354D01*
X00079862Y00910267D01*
X00082679Y00909896D01*
X00085496Y00910267D01*
X00088121Y00911354D01*
X00090375Y00913084D01*
X00092104Y00915338D01*
X00093191Y00917962D01*
X00093562Y00920779D01*
X00093441Y00921698D01*
X00096796Y00925052D01*
X00097872Y00924333D01*
X00097567Y00923596D01*
X00097196Y00920779D01*
X00097567Y00917962D01*
X00098654Y00915338D01*
X00099775Y00913876D01*
X00099149Y00912606D01*
X00098808D01*
X00097074Y00912261D01*
X00095603Y00911279D01*
X00088691Y00904367D01*
X00088121Y00904804D01*
X00085496Y00905891D01*
X00082679Y00906262D01*
X00079862Y00905891D01*
X00077238Y00904804D01*
X00074984Y00903075D01*
X00073254Y00900821D01*
X00072167Y00898196D01*
X00071796Y00895379D01*
X00072167Y00892562D01*
X00073254Y00889938D01*
X00074984Y00887684D01*
X00077238Y00885954D01*
X00079862Y00884867D01*
X00082679Y00884496D01*
X00085496Y00884867D01*
X00088121Y00885954D01*
X00090375Y00887684D01*
X00092104Y00889938D01*
X00093191Y00892562D01*
X00093562Y00895379D01*
X00093441Y00896298D01*
X00096796Y00899652D01*
X00097872Y00898933D01*
X00097567Y00898196D01*
X00097196Y00895379D01*
X00097567Y00892562D01*
X00098654Y00889938D01*
X00100384Y00887684D01*
X00102638Y00885954D01*
X00105262Y00884867D01*
X00108079Y00884496D01*
X00110896Y00884867D01*
X00113521Y00885954D01*
X00115775Y00887684D01*
X00117504Y00889938D01*
X00117881Y00890847D01*
X00149223D01*
X00163108Y00876963D01*
Y00359737D01*
X00161064Y00358890D01*
X00158340Y00356800D01*
X00156250Y00354076D01*
X00154936Y00350904D01*
X00154487Y00347500D01*
X00154936Y00344096D01*
X00156250Y00340924D01*
X00158340Y00338200D01*
X00161064Y00336110D01*
X00164236Y00334796D01*
X00167640Y00334347D01*
X00171044Y00334796D01*
X00174216Y00336110D01*
X00176940Y00338200D01*
X00179030Y00340924D01*
X00180344Y00344096D01*
X00180793Y00347500D01*
X00180344Y00350904D01*
X00179030Y00354076D01*
X00176940Y00356800D01*
X00174216Y00358890D01*
X00172172Y00359737D01*
Y00878840D01*
X00172172Y00878840D01*
X00171827Y00880574D01*
X00170845Y00882045D01*
X00170845Y00882045D01*
X00154305Y00898584D01*
X00152835Y00899566D01*
X00151101Y00899911D01*
X00117881D01*
X00117504Y00900821D01*
X00116391Y00902272D01*
X00117017Y00903542D01*
X00259328D01*
X00304468Y00858403D01*
X00304468Y00494030D01*
X00304813Y00492296D01*
X00305795Y00490825D01*
X00366308Y00430313D01*
Y00359737D01*
X00364264Y00358890D01*
X00361540Y00356800D01*
X00359450Y00354076D01*
X00358136Y00350904D01*
X00357687Y00347500D01*
X00358136Y00344096D01*
X00359450Y00340924D01*
X00361540Y00338200D01*
X00364264Y00336110D01*
X00367436Y00334796D01*
X00370840Y00334347D01*
X00374244Y00334796D01*
X00377416Y00336110D01*
X00380140Y00338200D01*
X00382230Y00340924D01*
X00383544Y00344096D01*
X00383993Y00347500D01*
X00383544Y00350904D01*
X00382230Y00354076D01*
X00380140Y00356800D01*
X00377416Y00358890D01*
X00375372Y00359737D01*
Y00432190D01*
X00375027Y00433924D01*
X00374045Y00435395D01*
X00374045Y00435395D01*
X00313532Y00495907D01*
X00313532Y00860280D01*
X00313532Y00860280D01*
X00313187Y00862014D01*
X00312205Y00863484D01*
X00264410Y00911279D01*
X00262940Y00912261D01*
X00261206Y00912606D01*
X00117009D01*
X00116383Y00913876D01*
X00117504Y00915338D01*
X00117881Y00916247D01*
X00265763D01*
X00318438Y00863573D01*
X00318438Y00500380D01*
X00318783Y00498646D01*
X00319765Y00497175D01*
X00387075Y00429865D01*
X00388546Y00428883D01*
X00390280Y00428538D01*
X00390280Y00428538D01*
X00448093D01*
X00467908Y00408723D01*
Y00359737D01*
X00465864Y00358890D01*
X00463140Y00356800D01*
X00461050Y00354076D01*
X00459736Y00350904D01*
X00459287Y00347500D01*
X00459736Y00344096D01*
X00461050Y00340924D01*
X00463140Y00338200D01*
X00465864Y00336110D01*
X00469036Y00334796D01*
X00472440Y00334347D01*
X00475844Y00334796D01*
X00479016Y00336110D01*
X00481740Y00338200D01*
X00483830Y00340924D01*
X00485144Y00344096D01*
X00485592Y00347500D01*
X00485144Y00350904D01*
X00483830Y00354076D01*
X00481740Y00356800D01*
X00479016Y00358890D01*
X00476972Y00359737D01*
Y00410600D01*
X00476627Y00412334D01*
X00475645Y00413805D01*
X00475645Y00413805D01*
X00453175Y00436275D01*
X00451704Y00437257D01*
X00449970Y00437602D01*
X00392157D01*
X00327502Y00502257D01*
X00327502Y00865450D01*
X00327502Y00865450D01*
X00327157Y00867184D01*
X00326175Y00868655D01*
X00270846Y00923984D01*
X00269375Y00924966D01*
X00267641Y00925311D01*
X00117881D01*
X00117504Y00926221D01*
X00116391Y00927672D01*
X00117017Y00928942D01*
X00273298D01*
X00331138Y00871103D01*
X00331138Y00505460D01*
X00331483Y00503726D01*
X00332465Y00502255D01*
X00392155Y00442565D01*
X00393626Y00441583D01*
X00395360Y00441238D01*
X00395360Y00441238D01*
X00541683D01*
X00569508Y00413413D01*
Y00359737D01*
X00567464Y00358890D01*
X00564740Y00356800D01*
X00562650Y00354076D01*
X00561336Y00350904D01*
X00560887Y00347500D01*
X00561336Y00344096D01*
X00562650Y00340924D01*
X00564740Y00338200D01*
X00567464Y00336110D01*
X00570636Y00334796D01*
X00574040Y00334347D01*
X00577444Y00334796D01*
X00580616Y00336110D01*
X00583340Y00338200D01*
X00585430Y00340924D01*
X00586744Y00344096D01*
X00587192Y00347500D01*
X00586744Y00350904D01*
X00585430Y00354076D01*
X00583340Y00356800D01*
X00580616Y00358890D01*
X00578572Y00359737D01*
Y00415290D01*
X00578227Y00417024D01*
X00577245Y00418495D01*
X00577245Y00418495D01*
X00546765Y00448975D01*
X00545294Y00449957D01*
X00543560Y00450302D01*
X00397237D01*
X00340202Y00507337D01*
X00340202Y00872980D01*
X00340202Y00872980D01*
X00339857Y00874714D01*
X00338875Y00876184D01*
X00278380Y00936679D01*
X00276910Y00937661D01*
X00275175Y00938006D01*
X00117009D01*
X00116383Y00939276D01*
X00117504Y00940738D01*
X00117881Y00941647D01*
X00279643D01*
X00342568Y00878723D01*
X00342568Y00513080D01*
X00342913Y00511346D01*
X00343895Y00509875D01*
X00398505Y00455265D01*
X00399976Y00454283D01*
X00401710Y00453938D01*
X00645823D01*
X00671108Y00428653D01*
Y00359737D01*
X00669064Y00358890D01*
X00666340Y00356800D01*
X00664250Y00354076D01*
X00662936Y00350904D01*
X00662487Y00347500D01*
X00662936Y00344096D01*
X00664250Y00340924D01*
X00666340Y00338200D01*
X00669064Y00336110D01*
X00672236Y00334796D01*
X00675640Y00334347D01*
X00679044Y00334796D01*
X00682216Y00336110D01*
X00684940Y00338200D01*
X00687030Y00340924D01*
X00688344Y00344096D01*
X00688792Y00347500D01*
X00688344Y00350904D01*
X00687030Y00354076D01*
X00684940Y00356800D01*
X00682216Y00358890D01*
X00680172Y00359737D01*
Y00430530D01*
X00680172Y00430530D01*
X00679827Y00432264D01*
X00678845Y00433735D01*
X00650905Y00461675D01*
X00649434Y00462657D01*
X00647700Y00463002D01*
X00403587D01*
X00351632Y00514957D01*
X00351632Y00880600D01*
X00351632Y00880600D01*
X00351287Y00882334D01*
X00350305Y00883804D01*
X00284725Y00949384D01*
X00283255Y00950366D01*
X00281521Y00950711D01*
X00117881D01*
X00117504Y00951621D01*
X00115775Y00953875D01*
X00113521Y00955604D01*
X00110896Y00956692D01*
X00108079Y00957062D01*
D02*
G37*
G36*
X00269240Y00360653D02*
X00265836Y00360204D01*
X00262664Y00358890D01*
X00259940Y00356800D01*
X00257850Y00354076D01*
X00256536Y00350904D01*
X00256087Y00347500D01*
X00256536Y00344096D01*
X00257850Y00340924D01*
X00259940Y00338200D01*
X00262664Y00336110D01*
X00265836Y00334796D01*
X00269240Y00334347D01*
X00272644Y00334796D01*
X00275816Y00336110D01*
X00278540Y00338200D01*
X00280630Y00340924D01*
X00281944Y00344096D01*
X00282393Y00347500D01*
X00281944Y00350904D01*
X00280630Y00354076D01*
X00278540Y00356800D01*
X00275816Y00358890D01*
X00272644Y00360204D01*
X00269240Y00360653D01*
D02*
G37*
G36*
X00031750Y01093547D02*
X00029429Y01093241D01*
X00027267Y01092345D01*
X00025410Y01090920D01*
X00023985Y01089063D01*
X00023089Y01086901D01*
X00022783Y01084580D01*
X00023089Y01082259D01*
X00023985Y01080097D01*
X00024064Y01079993D01*
X00024064Y00286140D01*
X00024326Y00284151D01*
X00025094Y00282297D01*
X00026315Y00280705D01*
X00064805Y00242215D01*
X00066397Y00240994D01*
X00068251Y00240226D01*
X00070240Y00239964D01*
X01104020D01*
X01106009Y00240226D01*
X01107863Y00240994D01*
X01109455Y00242215D01*
X01138275Y00271035D01*
X01139496Y00272627D01*
X01140264Y00274481D01*
X01140526Y00276470D01*
X01140526Y00276470D01*
Y00336961D01*
X01142140Y00338200D01*
X01144230Y00340924D01*
X01145544Y00344096D01*
X01145993Y00347500D01*
X01145544Y00350904D01*
X01144230Y00354076D01*
X01142140Y00356800D01*
X01139416Y00358890D01*
X01136244Y00360204D01*
X01132840Y00360653D01*
X01129436Y00360204D01*
X01126264Y00358890D01*
X01123540Y00356800D01*
X01121450Y00354076D01*
X01120136Y00350904D01*
X01119688Y00347500D01*
X01120136Y00344096D01*
X01121450Y00340924D01*
X01123540Y00338200D01*
X01125154Y00336961D01*
Y00279654D01*
X01100836Y00255336D01*
X00073424D01*
X00039436Y00289324D01*
X00039436Y01079993D01*
X00039515Y01080097D01*
X00040411Y01082259D01*
X00040717Y01084580D01*
X00040411Y01086901D01*
X00039515Y01089063D01*
X00038090Y01090920D01*
X00036233Y01092345D01*
X00034071Y01093241D01*
X00031750Y01093547D01*
D02*
G37*
%LPD*%
G54D27*
X00358530Y01172210D02*
X00427110Y01103630D01*
X00082679Y01149379D02*
X00105510Y01172210D01*
X00358530D01*
X00320430Y00300990D02*
Y00347500D01*
X00389010Y00543560D02*
Y00900430D01*
X00305161Y00984279D02*
X00389010Y00900430D01*
X00162689Y00984279D02*
X00305161D01*
X00389010Y00543560D02*
X00438540Y00494030D01*
X00427110Y00571500D02*
X00467750Y00530860D01*
X00427110Y00571500D02*
Y01103630D01*
X00858520Y00530860D02*
X00929640Y00459740D01*
X00467750Y00530860D02*
X00858520D01*
X00438540Y00494030D02*
X00787400D01*
X00828040Y00347500D02*
Y00453390D01*
X00787400Y00494030D02*
X00828040Y00453390D01*
X00129511Y01149379D02*
X00142369Y01136521D01*
Y01004599D02*
Y01136521D01*
X00108079Y01149379D02*
X00129511D01*
X00142369Y01004599D02*
X00162689Y00984279D01*
X00929640Y00347500D02*
Y00459740D01*
X00070240Y00247650D02*
X01104020D01*
X00031750Y00286140D02*
X00070240Y00247650D01*
X01104020D02*
X01132840Y00276470D01*
Y00347500D01*
X00031750Y01084580D02*
X00031750Y00286140D01*
X00695757Y00269917D02*
X00726440Y00300600D01*
Y00347500D01*
X00590347Y00269917D02*
X00695757D01*
X00624840Y00304410D02*
Y00347500D01*
X00590347Y00269917D02*
X00624840Y00304410D01*
X00490017Y00269917D02*
X00590347D01*
X00490017D02*
X00523240Y00303140D01*
Y00347500D01*
X00389687Y00269917D02*
X00490017D01*
X00289357D02*
X00389687D01*
X00421640Y00301870D01*
Y00347500D01*
X00185217Y00269917D02*
X00289357D01*
X00320430Y00300990D01*
X00218440Y00303140D02*
Y00347500D01*
X00079807Y00269917D02*
X00185217D01*
X00218440Y00303140D01*
X00053340Y00296383D02*
X00079807Y00269917D01*
X00116840Y00306950D01*
Y00347500D01*
X00053340Y01109980D02*
X00053340Y00296383D01*
X00067289Y01123929D02*
X00082629D01*
X00053340Y01109980D02*
X00067289Y01123929D01*
X00082629D02*
X00082679Y01123979D01*
G54D28*
X00151101Y00895379D02*
X00167640Y00878840D01*
Y00347500D02*
Y00878840D01*
X00261206Y00908074D02*
X00309000Y00860280D01*
X00098808Y00908074D02*
X00261206D01*
X00267641Y00920779D02*
X00322970Y00865450D01*
X00108079Y00920779D02*
X00267641D01*
X00086113Y00895379D02*
X00098808Y00908074D01*
X00309000Y00494030D02*
X00370840Y00432190D01*
X00309000Y00860280D02*
X00309000Y00494030D01*
X00370840Y00347500D02*
Y00432190D01*
X00449970Y00433070D02*
X00472440Y00410600D01*
X00322970Y00500380D02*
X00390280Y00433070D01*
X00449970D01*
X00647700Y00458470D02*
X00675640Y00430530D01*
X00401710Y00458470D02*
X00647700D01*
X00347100Y00513080D02*
X00401710Y00458470D01*
X00347100Y00880600D02*
X00347100Y00513080D01*
X00543560Y00445770D02*
X00574040Y00415290D01*
X00335670Y00505460D02*
X00395360Y00445770D01*
X00543560D01*
X00335670Y00872980D02*
X00335670Y00505460D01*
X00322970Y00865450D02*
X00322970Y00500380D01*
X00472440Y00347500D02*
Y00410600D01*
X00095379Y00984279D02*
X00162689D01*
X00082679Y00996979D02*
X00095379Y00984279D01*
X00108079Y00895379D02*
X00151101D01*
X00275175Y00933474D02*
X00335670Y00872980D01*
X00098808Y00933474D02*
X00275175D01*
X00281521Y00946179D02*
X00347100Y00880600D01*
X00108079Y00946179D02*
X00281521D01*
X00574040Y00347500D02*
Y00415290D01*
X00675640Y00347500D02*
Y00430530D01*
X00082679Y00895379D02*
X00086113D01*
Y00920779D02*
X00098808Y00933474D01*
X00082679Y00920779D02*
X00086113D01*
G54D29*
X00405830Y01464000D02*
X00476640Y01393190D01*
Y01235710D02*
Y01393190D01*
X00177010Y01464000D02*
X00405830D01*
X00476640Y00693420D02*
Y01235710D01*
X00177010Y01330000D02*
X00382350D01*
X00476640Y01235710D01*
Y00693420D02*
X00564270Y00605790D01*
X01140850D01*
X01183640Y00563000D01*
X01272173D01*
X01272173Y00563000D01*
X01183640Y00347500D02*
Y00563000D01*
G54D30*
X00177010Y01413200D02*
D03*
X00177010Y01279200D02*
D03*
X01272173Y00613800D02*
D03*
X00624840Y00347500D02*
D03*
X00523240D02*
D03*
X00421640D02*
D03*
X00320040D02*
D03*
X00218440D02*
D03*
X00726440D02*
D03*
X01183640D02*
D03*
X01082040D02*
D03*
X01234440D02*
D03*
X00929640D02*
D03*
X00828040D02*
D03*
X01031240D02*
D03*
X00777240D02*
D03*
X00878840D02*
D03*
X00269240D02*
D03*
X00167640D02*
D03*
X01336040D02*
D03*
X00980440D02*
D03*
X00675640D02*
D03*
X00574040D02*
D03*
X01285240D02*
D03*
X01132840D02*
D03*
X00472440D02*
D03*
X00370840D02*
D03*
G54D31*
X00177010Y01464000D02*
D03*
X00177010Y01330000D02*
D03*
X01272173Y00563000D02*
D03*
G54D32*
X00116840Y00347500D02*
D03*
G54D33*
X00108079Y00819179D02*
D03*
Y00996979D02*
D03*
Y01123979D02*
D03*
Y01149379D02*
D03*
X00082679Y00996979D02*
D03*
X00108079Y00869979D02*
D03*
X00082679D02*
D03*
X00108079Y01047779D02*
D03*
X00082679D02*
D03*
X00108079Y00844579D02*
D03*
X00082679Y01022379D02*
D03*
X00108079Y00895379D02*
D03*
X00082679Y00946179D02*
D03*
X00108079Y01022379D02*
D03*
X00082679Y01123979D02*
D03*
X00108079Y01098579D02*
D03*
X00082679D02*
D03*
Y01073179D02*
D03*
X00108079D02*
D03*
X00082679Y00971579D02*
D03*
X00108079D02*
D03*
Y00946179D02*
D03*
X00082679Y00920779D02*
D03*
X00108079D02*
D03*
X00082679Y00895379D02*
D03*
Y00844579D02*
D03*
Y00819179D02*
D03*
Y00793779D02*
D03*
X00108079D02*
D03*
X00082679Y00768379D02*
D03*
X00108079D02*
D03*
X00082679Y00742979D02*
D03*
X00108079D02*
D03*
G54D34*
X00082679Y01149379D02*
D03*
G54D35*
X01353066Y01497580D02*
D03*
G54D36*
Y00782850D02*
D03*
G54D37*
X00646596D02*
D03*
G54D38*
X00646566Y01497580D02*
D03*
G54D39*
X00031750Y01084580D02*
D03*
M02*
