G04*
G04 #@! TF.GenerationSoftware,Altium Limited,Altium Designer,20.0.13 (296)*
G04*
G04 Layer_Color=16711935*
%FSLAX44Y44*%
%MOMM*%
G71*
G01*
G75*
%ADD11C,0.2000*%
%ADD13C,0.1000*%
G54D11*
X51010Y1489400D02*
X216010D01*
X51010Y1387800D02*
Y1489400D01*
Y1387800D02*
X216010D01*
Y1489400D01*
X51010Y1355400D02*
X216010D01*
X51010Y1253800D02*
Y1355400D01*
Y1253800D02*
X216010D01*
Y1355400D01*
X1233173Y537600D02*
X1398173D01*
Y639200D01*
X1233173D02*
X1398173D01*
X1233173Y537600D02*
Y639200D01*
X599440Y221500D02*
X1107440D01*
X853440D02*
X1361440D01*
X91440D02*
X599440D01*
X853440Y386500D02*
X1361440D01*
Y221500D02*
Y386500D01*
X91440Y221500D02*
Y386500D01*
X599440D01*
X1107440D01*
G54D13*
X139636Y1173079D02*
X141837Y1174316D01*
Y1176842D01*
X139636Y1178079D01*
X139642Y714279D02*
X141881Y715503D01*
Y718055D01*
X139642Y719280D01*
X139636Y943679D02*
X141837Y944916D01*
Y947442D01*
X139636Y948679D01*
X51129Y1200379D02*
X139629D01*
Y1178079D02*
Y1200379D01*
Y719279D02*
Y1173080D01*
Y691979D02*
Y714279D01*
X51129Y691979D02*
X139629D01*
X51129D02*
Y923679D01*
Y968679D02*
Y1200379D01*
X127129Y703579D02*
Y1188779D01*
X63629Y703579D02*
X127129D01*
X63629D02*
Y923679D01*
Y968679D02*
Y1188779D01*
X63779D01*
X127129D01*
X133129Y697529D02*
Y1194829D01*
X57629Y697529D02*
X133129D01*
X57629D02*
Y923679D01*
Y968679D02*
Y1194829D01*
X133129D01*
X127079Y1188679D02*
X133079Y1194779D01*
X57679D02*
X63779Y1188779D01*
X57679Y697679D02*
X63679Y703779D01*
X126879Y703679D02*
X132979Y697679D01*
X57629Y968679D02*
X63629D01*
X51429D02*
X57429D01*
X57629Y923679D02*
X63629D01*
X51230D02*
X57229D01*
M02*
