G04*
G04 #@! TF.GenerationSoftware,Altium Limited,Altium Designer,20.0.13 (296)*
G04*
G04 Layer_Physical_Order=1*
G04 Layer_Color=255*
%FSLAX44Y44*%
%MOMM*%
G71*
G01*
G75*
%ADD27C,1.0160*%
%ADD28C,0.3810*%
%ADD29C,3.5000*%
%ADD30C,2.1000*%
%ADD31R,2.1000X2.1000*%
%ADD32R,2.1000X2.1000*%
%ADD33C,1.6500*%
%ADD34R,1.6500X1.6500*%
G04:AMPARAMS|DCode=35|XSize=10mm|YSize=3.2mm|CornerRadius=0mm|HoleSize=0mm|Usage=FLASHONLY|Rotation=38.400|XOffset=0mm|YOffset=0mm|HoleType=Round|Shape=Round|*
%AMOVALD35*
21,1,6.8000,3.2000,0.0000,0.0000,38.4*
1,1,3.2000,-2.6646,-2.1119*
1,1,3.2000,2.6646,2.1119*
%
%ADD35OVALD35*%

G04:AMPARAMS|DCode=36|XSize=10mm|YSize=3.2mm|CornerRadius=0mm|HoleSize=0mm|Usage=FLASHONLY|Rotation=-39.200|XOffset=0mm|YOffset=0mm|HoleType=Round|Shape=Round|*
%AMOVALD36*
21,1,6.8000,3.2000,0.0000,0.0000,-39.2*
1,1,3.2000,-2.6348,2.1489*
1,1,3.2000,2.6348,-2.1489*
%
%ADD36OVALD36*%

G04:AMPARAMS|DCode=37|XSize=10mm|YSize=3.2mm|CornerRadius=0mm|HoleSize=0mm|Usage=FLASHONLY|Rotation=39.600|XOffset=0mm|YOffset=0mm|HoleType=Round|Shape=Round|*
%AMOVALD37*
21,1,6.8000,3.2000,0.0000,0.0000,39.6*
1,1,3.2000,-2.6197,-2.1672*
1,1,3.2000,2.6197,2.1672*
%
%ADD37OVALD37*%

G04:AMPARAMS|DCode=38|XSize=10mm|YSize=3.2mm|CornerRadius=0mm|HoleSize=0mm|Usage=FLASHONLY|Rotation=-38.600|XOffset=0mm|YOffset=0mm|HoleType=Round|Shape=Round|*
%AMOVALD38*
21,1,6.8000,3.2000,0.0000,0.0000,-38.6*
1,1,3.2000,-2.6572,2.1212*
1,1,3.2000,2.6572,-2.1212*
%
%ADD38OVALD38*%

%ADD39C,1.2700*%
G36*
X546015Y689910D02*
X546311Y688423D01*
X547153Y687163D01*
X548413Y686321D01*
X549900Y686025D01*
X1446116D01*
Y213885D01*
X3885D01*
Y1536115D01*
X546015D01*
Y689910D01*
D02*
G37*
%LPC*%
G36*
X405830Y1484137D02*
X177010D01*
X173081Y1483750D01*
X169304Y1482604D01*
X165822Y1480743D01*
X162771Y1478239D01*
X160267Y1475188D01*
X158406Y1471706D01*
X157260Y1467929D01*
X156873Y1464000D01*
X157260Y1460072D01*
X158406Y1456294D01*
X160267Y1452813D01*
X162771Y1449761D01*
X165822Y1447257D01*
X169304Y1445396D01*
X173081Y1444250D01*
X177010Y1443863D01*
X397489D01*
X456503Y1384849D01*
Y1285984D01*
X455330Y1285498D01*
X396589Y1344239D01*
X393537Y1346743D01*
X390056Y1348604D01*
X386278Y1349750D01*
X382350Y1350137D01*
X177010D01*
X173081Y1349750D01*
X169304Y1348604D01*
X165822Y1346743D01*
X162771Y1344239D01*
X160267Y1341187D01*
X158406Y1337706D01*
X157260Y1333929D01*
X156873Y1330000D01*
X157260Y1326071D01*
X158406Y1322294D01*
X160267Y1318813D01*
X162771Y1315761D01*
X165822Y1313257D01*
X169304Y1311396D01*
X173081Y1310250D01*
X177010Y1309863D01*
X374009D01*
X456503Y1227369D01*
Y693420D01*
X456890Y689492D01*
X458036Y685714D01*
X459897Y682233D01*
X462401Y679181D01*
X550031Y591551D01*
X553083Y589047D01*
X556564Y587186D01*
X560341Y586040D01*
X564270Y585653D01*
X1132509D01*
X1163503Y554659D01*
Y347500D01*
X1163890Y343572D01*
X1165036Y339794D01*
X1166897Y336312D01*
X1169401Y333261D01*
X1172452Y330757D01*
X1175934Y328896D01*
X1179712Y327750D01*
X1183640Y327363D01*
X1187569Y327750D01*
X1191346Y328896D01*
X1194827Y330757D01*
X1197879Y333261D01*
X1200383Y336312D01*
X1202244Y339794D01*
X1203390Y343572D01*
X1203777Y347500D01*
Y542863D01*
X1272172D01*
X1272173Y542863D01*
X1276101Y543250D01*
X1279879Y544396D01*
X1283360Y546257D01*
X1286412Y548761D01*
X1288916Y551813D01*
X1290777Y555294D01*
X1291923Y559072D01*
X1292310Y563000D01*
X1291923Y566928D01*
X1290777Y570706D01*
X1288916Y574188D01*
X1286412Y577239D01*
X1283360Y579743D01*
X1279879Y581604D01*
X1276101Y582750D01*
X1272173Y583137D01*
X1191981D01*
X1155089Y620029D01*
X1152038Y622533D01*
X1148556Y624394D01*
X1144779Y625540D01*
X1140850Y625927D01*
X572611D01*
X496777Y701761D01*
Y1235710D01*
Y1393190D01*
X496390Y1397119D01*
X495244Y1400896D01*
X493383Y1404377D01*
X490879Y1407429D01*
X420069Y1478239D01*
X417017Y1480743D01*
X413536Y1482604D01*
X409758Y1483750D01*
X405830Y1484137D01*
D02*
G37*
G36*
X108079Y1134862D02*
X105262Y1134492D01*
X102638Y1133404D01*
X100384Y1131675D01*
X98654Y1129421D01*
X97567Y1126796D01*
X97196Y1123979D01*
X97567Y1121162D01*
X98654Y1118538D01*
X100384Y1116284D01*
X102638Y1114554D01*
X105262Y1113467D01*
X108079Y1113096D01*
X110896Y1113467D01*
X113521Y1114554D01*
X115775Y1116284D01*
X117504Y1118538D01*
X118591Y1121162D01*
X118962Y1123979D01*
X118591Y1126796D01*
X117504Y1129421D01*
X115775Y1131675D01*
X113521Y1133404D01*
X110896Y1134492D01*
X108079Y1134862D01*
D02*
G37*
G36*
X82679D02*
X79862Y1134492D01*
X77238Y1133404D01*
X74984Y1131675D01*
X74938Y1131615D01*
X67289D01*
X65300Y1131353D01*
X63446Y1130585D01*
X61855Y1129364D01*
X47905Y1115415D01*
X47905Y1115415D01*
X46684Y1113823D01*
X45916Y1111969D01*
X45654Y1109980D01*
X45654Y296383D01*
X45916Y294394D01*
X46684Y292540D01*
X47905Y290949D01*
X74372Y264482D01*
X75964Y263260D01*
X77817Y262493D01*
X79807Y262231D01*
X695757D01*
X697746Y262493D01*
X699600Y263260D01*
X701191Y264482D01*
X731875Y295165D01*
X733096Y296757D01*
X733864Y298611D01*
X734126Y300600D01*
Y336961D01*
X735740Y338200D01*
X737830Y340924D01*
X739144Y344096D01*
X739593Y347500D01*
X739144Y350904D01*
X737830Y354076D01*
X735740Y356800D01*
X733016Y358890D01*
X729844Y360204D01*
X726440Y360653D01*
X723036Y360204D01*
X719864Y358890D01*
X717140Y356800D01*
X715050Y354076D01*
X713736Y350904D01*
X713288Y347500D01*
X713736Y344096D01*
X715050Y340924D01*
X717140Y338200D01*
X718754Y336961D01*
Y303784D01*
X692573Y277602D01*
X610561D01*
X610075Y278776D01*
X630275Y298975D01*
X630275Y298975D01*
X631496Y300567D01*
X632264Y302421D01*
X632526Y304410D01*
Y336961D01*
X634140Y338200D01*
X636230Y340924D01*
X637544Y344096D01*
X637993Y347500D01*
X637544Y350904D01*
X636230Y354076D01*
X634140Y356800D01*
X631416Y358890D01*
X628244Y360204D01*
X624840Y360653D01*
X621436Y360204D01*
X618264Y358890D01*
X615540Y356800D01*
X613450Y354076D01*
X612136Y350904D01*
X611688Y347500D01*
X612136Y344096D01*
X613450Y340924D01*
X615540Y338200D01*
X617154Y336961D01*
Y307593D01*
X587163Y277602D01*
X510231D01*
X509745Y278776D01*
X528675Y297705D01*
X528675Y297705D01*
X529896Y299297D01*
X530664Y301151D01*
X530926Y303140D01*
X530926Y303140D01*
Y336961D01*
X532540Y338200D01*
X534630Y340924D01*
X535944Y344096D01*
X536393Y347500D01*
X535944Y350904D01*
X534630Y354076D01*
X532540Y356800D01*
X529816Y358890D01*
X526644Y360204D01*
X523240Y360653D01*
X519836Y360204D01*
X516664Y358890D01*
X513940Y356800D01*
X511850Y354076D01*
X510536Y350904D01*
X510088Y347500D01*
X510536Y344096D01*
X511850Y340924D01*
X513940Y338200D01*
X515554Y336961D01*
Y306324D01*
X486833Y277602D01*
X409901D01*
X409415Y278776D01*
X427075Y296435D01*
X428296Y298027D01*
X429064Y299881D01*
X429326Y301870D01*
Y336961D01*
X430940Y338200D01*
X433030Y340924D01*
X434344Y344096D01*
X434793Y347500D01*
X434344Y350904D01*
X433030Y354076D01*
X430940Y356800D01*
X428216Y358890D01*
X425044Y360204D01*
X421640Y360653D01*
X418236Y360204D01*
X415064Y358890D01*
X412340Y356800D01*
X410250Y354076D01*
X408936Y350904D01*
X408488Y347500D01*
X408936Y344096D01*
X410250Y340924D01*
X412340Y338200D01*
X413954Y336961D01*
Y305054D01*
X386503Y277602D01*
X309571D01*
X309085Y278776D01*
X325865Y295555D01*
X327086Y297147D01*
X327854Y299001D01*
X328116Y300990D01*
Y337260D01*
X329340Y338200D01*
X331430Y340924D01*
X332744Y344096D01*
X333192Y347500D01*
X332744Y350904D01*
X331430Y354076D01*
X329340Y356800D01*
X326616Y358890D01*
X323444Y360204D01*
X320040Y360653D01*
X316636Y360204D01*
X313464Y358890D01*
X310740Y356800D01*
X308650Y354076D01*
X307336Y350904D01*
X306887Y347500D01*
X307336Y344096D01*
X308650Y340924D01*
X310740Y338200D01*
X312744Y336662D01*
Y304174D01*
X286173Y277602D01*
X205431D01*
X204945Y278776D01*
X223875Y297705D01*
X223875Y297705D01*
X225096Y299297D01*
X225864Y301151D01*
X226126Y303140D01*
X226126Y303140D01*
Y336961D01*
X227740Y338200D01*
X229830Y340924D01*
X231144Y344096D01*
X231593Y347500D01*
X231144Y350904D01*
X229830Y354076D01*
X227740Y356800D01*
X225016Y358890D01*
X221844Y360204D01*
X218440Y360653D01*
X215036Y360204D01*
X211864Y358890D01*
X209140Y356800D01*
X207050Y354076D01*
X205736Y350904D01*
X205287Y347500D01*
X205736Y344096D01*
X207050Y340924D01*
X209140Y338200D01*
X210754Y336961D01*
Y306324D01*
X182033Y277602D01*
X100021D01*
X99535Y278776D01*
X122275Y301515D01*
X123496Y303107D01*
X124264Y304961D01*
X124526Y306950D01*
X124526Y306950D01*
Y334460D01*
X129880D01*
Y360540D01*
X103800D01*
Y334460D01*
X109154D01*
Y310134D01*
X79807Y280786D01*
X61026Y299567D01*
X61026Y1106796D01*
X70473Y1116244D01*
X75036D01*
X77238Y1114554D01*
X79862Y1113467D01*
X82679Y1113096D01*
X85496Y1113467D01*
X88121Y1114554D01*
X90375Y1116284D01*
X92104Y1118538D01*
X93191Y1121162D01*
X93562Y1123979D01*
X93191Y1126796D01*
X92104Y1129421D01*
X90375Y1131675D01*
X88121Y1133404D01*
X85496Y1134492D01*
X82679Y1134862D01*
D02*
G37*
G36*
X108079Y1109462D02*
X105262Y1109091D01*
X102638Y1108004D01*
X100384Y1106275D01*
X98654Y1104021D01*
X97567Y1101396D01*
X97196Y1098579D01*
X97567Y1095762D01*
X98654Y1093138D01*
X100384Y1090884D01*
X102638Y1089154D01*
X105262Y1088067D01*
X108079Y1087696D01*
X110896Y1088067D01*
X113521Y1089154D01*
X115775Y1090884D01*
X117504Y1093138D01*
X118591Y1095762D01*
X118962Y1098579D01*
X118591Y1101396D01*
X117504Y1104021D01*
X115775Y1106275D01*
X113521Y1108004D01*
X110896Y1109091D01*
X108079Y1109462D01*
D02*
G37*
G36*
X82679D02*
X79862Y1109091D01*
X77238Y1108004D01*
X74984Y1106275D01*
X73254Y1104021D01*
X72167Y1101396D01*
X71796Y1098579D01*
X72167Y1095762D01*
X73254Y1093138D01*
X74984Y1090884D01*
X77238Y1089154D01*
X79862Y1088067D01*
X82679Y1087696D01*
X85496Y1088067D01*
X88121Y1089154D01*
X90375Y1090884D01*
X92104Y1093138D01*
X93191Y1095762D01*
X93562Y1098579D01*
X93191Y1101396D01*
X92104Y1104021D01*
X90375Y1106275D01*
X88121Y1108004D01*
X85496Y1109091D01*
X82679Y1109462D01*
D02*
G37*
G36*
X108079Y1084062D02*
X105262Y1083691D01*
X102638Y1082604D01*
X100384Y1080875D01*
X98654Y1078621D01*
X97567Y1075996D01*
X97196Y1073179D01*
X97567Y1070362D01*
X98654Y1067738D01*
X100384Y1065484D01*
X102638Y1063754D01*
X105262Y1062667D01*
X108079Y1062296D01*
X110896Y1062667D01*
X113521Y1063754D01*
X115775Y1065484D01*
X117504Y1067738D01*
X118591Y1070362D01*
X118962Y1073179D01*
X118591Y1075996D01*
X117504Y1078621D01*
X115775Y1080875D01*
X113521Y1082604D01*
X110896Y1083691D01*
X108079Y1084062D01*
D02*
G37*
G36*
X82679D02*
X79862Y1083691D01*
X77238Y1082604D01*
X74984Y1080875D01*
X73254Y1078621D01*
X72167Y1075996D01*
X71796Y1073179D01*
X72167Y1070362D01*
X73254Y1067738D01*
X74984Y1065484D01*
X77238Y1063754D01*
X79862Y1062667D01*
X82679Y1062296D01*
X85496Y1062667D01*
X88121Y1063754D01*
X90375Y1065484D01*
X92104Y1067738D01*
X93191Y1070362D01*
X93562Y1073179D01*
X93191Y1075996D01*
X92104Y1078621D01*
X90375Y1080875D01*
X88121Y1082604D01*
X85496Y1083691D01*
X82679Y1084062D01*
D02*
G37*
G36*
X108079Y1033262D02*
X105262Y1032891D01*
X102638Y1031804D01*
X100384Y1030075D01*
X98654Y1027821D01*
X97567Y1025196D01*
X97196Y1022379D01*
X97567Y1019563D01*
X98654Y1016938D01*
X100384Y1014684D01*
X102638Y1012954D01*
X105262Y1011867D01*
X108079Y1011496D01*
X110896Y1011867D01*
X113521Y1012954D01*
X115775Y1014684D01*
X117504Y1016938D01*
X118591Y1019563D01*
X118962Y1022379D01*
X118591Y1025196D01*
X117504Y1027821D01*
X115775Y1030075D01*
X113521Y1031804D01*
X110896Y1032891D01*
X108079Y1033262D01*
D02*
G37*
G36*
X82679D02*
X79862Y1032891D01*
X77238Y1031804D01*
X74984Y1030075D01*
X73254Y1027821D01*
X72167Y1025196D01*
X71796Y1022379D01*
X72167Y1019563D01*
X73254Y1016938D01*
X74984Y1014684D01*
X77238Y1012954D01*
X79862Y1011867D01*
X82679Y1011496D01*
X85496Y1011867D01*
X88121Y1012954D01*
X90375Y1014684D01*
X92104Y1016938D01*
X93191Y1019563D01*
X93562Y1022379D01*
X93191Y1025196D01*
X92104Y1027821D01*
X90375Y1030075D01*
X88121Y1031804D01*
X85496Y1032891D01*
X82679Y1033262D01*
D02*
G37*
G36*
Y982462D02*
X79862Y982092D01*
X77238Y981004D01*
X74984Y979275D01*
X73254Y977021D01*
X72167Y974396D01*
X71796Y971579D01*
X72167Y968763D01*
X73254Y966138D01*
X74984Y963884D01*
X77238Y962154D01*
X79862Y961067D01*
X82679Y960696D01*
X85496Y961067D01*
X88121Y962154D01*
X90375Y963884D01*
X92104Y966138D01*
X93191Y968763D01*
X93562Y971579D01*
X93191Y974396D01*
X92104Y977021D01*
X90375Y979275D01*
X88121Y981004D01*
X85496Y982092D01*
X82679Y982462D01*
D02*
G37*
G36*
Y957062D02*
X79862Y956692D01*
X77238Y955604D01*
X74984Y953875D01*
X73254Y951621D01*
X72167Y948996D01*
X71796Y946179D01*
X72167Y943363D01*
X73254Y940738D01*
X74984Y938484D01*
X77238Y936754D01*
X79862Y935667D01*
X82679Y935296D01*
X85496Y935667D01*
X88121Y936754D01*
X90375Y938484D01*
X92104Y940738D01*
X93191Y943363D01*
X93562Y946179D01*
X93191Y948996D01*
X92104Y951621D01*
X90375Y953875D01*
X88121Y955604D01*
X85496Y956692D01*
X82679Y957062D01*
D02*
G37*
G36*
X108079Y855462D02*
X105262Y855091D01*
X102638Y854004D01*
X100384Y852275D01*
X98654Y850021D01*
X97567Y847396D01*
X97196Y844579D01*
X97567Y841762D01*
X98654Y839138D01*
X100384Y836884D01*
X102638Y835154D01*
X105262Y834067D01*
X108079Y833696D01*
X110896Y834067D01*
X113521Y835154D01*
X115775Y836884D01*
X117504Y839138D01*
X118591Y841762D01*
X118962Y844579D01*
X118591Y847396D01*
X117504Y850021D01*
X115775Y852275D01*
X113521Y854004D01*
X110896Y855091D01*
X108079Y855462D01*
D02*
G37*
G36*
X82679D02*
X79862Y855091D01*
X77238Y854004D01*
X74984Y852275D01*
X73254Y850021D01*
X72167Y847396D01*
X71796Y844579D01*
X72167Y841762D01*
X73254Y839138D01*
X74984Y836884D01*
X77238Y835154D01*
X79862Y834067D01*
X82679Y833696D01*
X85496Y834067D01*
X88121Y835154D01*
X90375Y836884D01*
X92104Y839138D01*
X93191Y841762D01*
X93562Y844579D01*
X93191Y847396D01*
X92104Y850021D01*
X90375Y852275D01*
X88121Y854004D01*
X85496Y855091D01*
X82679Y855462D01*
D02*
G37*
G36*
X108079Y830062D02*
X105262Y829691D01*
X102638Y828604D01*
X100384Y826875D01*
X98654Y824621D01*
X97567Y821996D01*
X97196Y819179D01*
X97567Y816363D01*
X98654Y813738D01*
X100384Y811484D01*
X102638Y809754D01*
X105262Y808667D01*
X108079Y808296D01*
X110896Y808667D01*
X113521Y809754D01*
X115775Y811484D01*
X117504Y813738D01*
X118591Y816363D01*
X118962Y819179D01*
X118591Y821996D01*
X117504Y824621D01*
X115775Y826875D01*
X113521Y828604D01*
X110896Y829691D01*
X108079Y830062D01*
D02*
G37*
G36*
X82679D02*
X79862Y829691D01*
X77238Y828604D01*
X74984Y826875D01*
X73254Y824621D01*
X72167Y821996D01*
X71796Y819179D01*
X72167Y816363D01*
X73254Y813738D01*
X74984Y811484D01*
X77238Y809754D01*
X79862Y808667D01*
X82679Y808296D01*
X85496Y808667D01*
X88121Y809754D01*
X90375Y811484D01*
X92104Y813738D01*
X93191Y816363D01*
X93562Y819179D01*
X93191Y821996D01*
X92104Y824621D01*
X90375Y826875D01*
X88121Y828604D01*
X85496Y829691D01*
X82679Y830062D01*
D02*
G37*
G36*
X108079Y804662D02*
X105262Y804292D01*
X102638Y803204D01*
X100384Y801475D01*
X98654Y799221D01*
X97567Y796596D01*
X97196Y793779D01*
X97567Y790963D01*
X98654Y788338D01*
X100384Y786084D01*
X102638Y784354D01*
X105262Y783267D01*
X108079Y782896D01*
X110896Y783267D01*
X113521Y784354D01*
X115775Y786084D01*
X117504Y788338D01*
X118591Y790963D01*
X118962Y793779D01*
X118591Y796596D01*
X117504Y799221D01*
X115775Y801475D01*
X113521Y803204D01*
X110896Y804292D01*
X108079Y804662D01*
D02*
G37*
G36*
X82679D02*
X79862Y804292D01*
X77238Y803204D01*
X74984Y801475D01*
X73254Y799221D01*
X72167Y796596D01*
X71796Y793779D01*
X72167Y790963D01*
X73254Y788338D01*
X74984Y786084D01*
X77238Y784354D01*
X79862Y783267D01*
X82679Y782896D01*
X85496Y783267D01*
X88121Y784354D01*
X90375Y786084D01*
X92104Y788338D01*
X93191Y790963D01*
X93562Y793779D01*
X93191Y796596D01*
X92104Y799221D01*
X90375Y801475D01*
X88121Y803204D01*
X85496Y804292D01*
X82679Y804662D01*
D02*
G37*
G36*
X108079Y779262D02*
X105262Y778892D01*
X102638Y777804D01*
X100384Y776075D01*
X98654Y773821D01*
X97567Y771196D01*
X97196Y768379D01*
X97567Y765563D01*
X98654Y762938D01*
X100384Y760684D01*
X102638Y758954D01*
X105262Y757867D01*
X108079Y757496D01*
X110896Y757867D01*
X113521Y758954D01*
X115775Y760684D01*
X117504Y762938D01*
X118591Y765563D01*
X118962Y768379D01*
X118591Y771196D01*
X117504Y773821D01*
X115775Y776075D01*
X113521Y777804D01*
X110896Y778892D01*
X108079Y779262D01*
D02*
G37*
G36*
X82679D02*
X79862Y778892D01*
X77238Y777804D01*
X74984Y776075D01*
X73254Y773821D01*
X72167Y771196D01*
X71796Y768379D01*
X72167Y765563D01*
X73254Y762938D01*
X74984Y760684D01*
X77238Y758954D01*
X79862Y757867D01*
X82679Y757496D01*
X85496Y757867D01*
X88121Y758954D01*
X90375Y760684D01*
X92104Y762938D01*
X93191Y765563D01*
X93562Y768379D01*
X93191Y771196D01*
X92104Y773821D01*
X90375Y776075D01*
X88121Y777804D01*
X85496Y778892D01*
X82679Y779262D01*
D02*
G37*
G36*
X108079Y753862D02*
X105262Y753492D01*
X102638Y752404D01*
X100384Y750675D01*
X98654Y748421D01*
X97567Y745796D01*
X97196Y742979D01*
X97567Y740163D01*
X98654Y737538D01*
X100384Y735284D01*
X102638Y733554D01*
X105262Y732467D01*
X108079Y732096D01*
X110896Y732467D01*
X113521Y733554D01*
X115775Y735284D01*
X117504Y737538D01*
X118591Y740163D01*
X118962Y742979D01*
X118591Y745796D01*
X117504Y748421D01*
X115775Y750675D01*
X113521Y752404D01*
X110896Y753492D01*
X108079Y753862D01*
D02*
G37*
G36*
X82679D02*
X79862Y753492D01*
X77238Y752404D01*
X74984Y750675D01*
X73254Y748421D01*
X72167Y745796D01*
X71796Y742979D01*
X72167Y740163D01*
X73254Y737538D01*
X74984Y735284D01*
X77238Y733554D01*
X79862Y732467D01*
X82679Y732096D01*
X85496Y732467D01*
X88121Y733554D01*
X90375Y735284D01*
X92104Y737538D01*
X93191Y740163D01*
X93562Y742979D01*
X93191Y745796D01*
X92104Y748421D01*
X90375Y750675D01*
X88121Y752404D01*
X85496Y753492D01*
X82679Y753862D01*
D02*
G37*
G36*
X1336040Y360653D02*
X1332636Y360204D01*
X1329464Y358890D01*
X1326740Y356800D01*
X1324650Y354076D01*
X1323336Y350904D01*
X1322888Y347500D01*
X1323336Y344096D01*
X1324650Y340924D01*
X1326740Y338200D01*
X1329464Y336110D01*
X1332636Y334796D01*
X1336040Y334347D01*
X1339444Y334796D01*
X1342616Y336110D01*
X1345340Y338200D01*
X1347430Y340924D01*
X1348744Y344096D01*
X1349193Y347500D01*
X1348744Y350904D01*
X1347430Y354076D01*
X1345340Y356800D01*
X1342616Y358890D01*
X1339444Y360204D01*
X1336040Y360653D01*
D02*
G37*
G36*
X1285240D02*
X1281836Y360204D01*
X1278664Y358890D01*
X1275940Y356800D01*
X1273850Y354076D01*
X1272536Y350904D01*
X1272087Y347500D01*
X1272536Y344096D01*
X1273850Y340924D01*
X1275940Y338200D01*
X1278664Y336110D01*
X1281836Y334796D01*
X1285240Y334347D01*
X1288644Y334796D01*
X1291816Y336110D01*
X1294540Y338200D01*
X1296630Y340924D01*
X1297944Y344096D01*
X1298392Y347500D01*
X1297944Y350904D01*
X1296630Y354076D01*
X1294540Y356800D01*
X1291816Y358890D01*
X1288644Y360204D01*
X1285240Y360653D01*
D02*
G37*
G36*
X1031240D02*
X1027836Y360204D01*
X1024664Y358890D01*
X1021940Y356800D01*
X1019850Y354076D01*
X1018536Y350904D01*
X1018087Y347500D01*
X1018536Y344096D01*
X1019850Y340924D01*
X1021940Y338200D01*
X1024664Y336110D01*
X1027836Y334796D01*
X1031240Y334347D01*
X1034644Y334796D01*
X1037816Y336110D01*
X1040540Y338200D01*
X1042630Y340924D01*
X1043944Y344096D01*
X1044392Y347500D01*
X1043944Y350904D01*
X1042630Y354076D01*
X1040540Y356800D01*
X1037816Y358890D01*
X1034644Y360204D01*
X1031240Y360653D01*
D02*
G37*
G36*
X980440D02*
X977036Y360204D01*
X973864Y358890D01*
X971140Y356800D01*
X969050Y354076D01*
X967736Y350904D01*
X967288Y347500D01*
X967736Y344096D01*
X969050Y340924D01*
X971140Y338200D01*
X973864Y336110D01*
X977036Y334796D01*
X980440Y334347D01*
X983844Y334796D01*
X987016Y336110D01*
X989740Y338200D01*
X991830Y340924D01*
X993144Y344096D01*
X993593Y347500D01*
X993144Y350904D01*
X991830Y354076D01*
X989740Y356800D01*
X987016Y358890D01*
X983844Y360204D01*
X980440Y360653D01*
D02*
G37*
G36*
X358530Y1179896D02*
X105510D01*
X103521Y1179634D01*
X101667Y1178866D01*
X100075Y1177645D01*
X82600Y1160169D01*
X71889D01*
Y1138589D01*
X93469D01*
Y1149300D01*
X96274Y1152105D01*
X97477Y1151512D01*
X97196Y1149379D01*
X97567Y1146562D01*
X98654Y1143938D01*
X100384Y1141684D01*
X102638Y1139954D01*
X105262Y1138867D01*
X108079Y1138496D01*
X110896Y1138867D01*
X113521Y1139954D01*
X115775Y1141684D01*
X115782Y1141693D01*
X126327D01*
X134684Y1133337D01*
Y1004599D01*
X134945Y1002610D01*
X135713Y1000756D01*
X136935Y999165D01*
X146115Y989985D01*
X145628Y988811D01*
X117013D01*
X116387Y990081D01*
X117504Y991538D01*
X118591Y994163D01*
X118962Y996979D01*
X118591Y999796D01*
X117504Y1002421D01*
X115775Y1004675D01*
X113521Y1006404D01*
X110896Y1007492D01*
X108079Y1007862D01*
X105262Y1007492D01*
X102638Y1006404D01*
X100384Y1004675D01*
X98654Y1002421D01*
X97567Y999796D01*
X97196Y996979D01*
X97567Y994163D01*
X98654Y991538D01*
X99772Y990081D01*
X99145Y988811D01*
X97256D01*
X92815Y993253D01*
X93191Y994163D01*
X93562Y996979D01*
X93191Y999796D01*
X92104Y1002421D01*
X90375Y1004675D01*
X88121Y1006404D01*
X85496Y1007492D01*
X82679Y1007862D01*
X79862Y1007492D01*
X77238Y1006404D01*
X74984Y1004675D01*
X73254Y1002421D01*
X72167Y999796D01*
X71796Y996979D01*
X72167Y994163D01*
X73254Y991538D01*
X74984Y989284D01*
X77238Y987554D01*
X79862Y986467D01*
X82679Y986096D01*
X85496Y986467D01*
X86405Y986844D01*
X92175Y981075D01*
X92175Y981075D01*
X93645Y980092D01*
X95379Y979747D01*
X95379Y979747D01*
X99145D01*
X99772Y978477D01*
X98654Y977021D01*
X97567Y974396D01*
X97196Y971579D01*
X97567Y968763D01*
X98654Y966138D01*
X100384Y963884D01*
X102638Y962154D01*
X105262Y961067D01*
X108079Y960696D01*
X110896Y961067D01*
X113521Y962154D01*
X115775Y963884D01*
X117504Y966138D01*
X118591Y968763D01*
X118962Y971579D01*
X118591Y974396D01*
X117504Y977021D01*
X116387Y978477D01*
X117013Y979747D01*
X156352D01*
X157255Y978845D01*
X158846Y977623D01*
X160700Y976855D01*
X162689Y976593D01*
X301977D01*
X381324Y897246D01*
Y543560D01*
X381586Y541571D01*
X382354Y539717D01*
X383575Y538125D01*
X433105Y488595D01*
X434697Y487374D01*
X436551Y486606D01*
X438540Y486344D01*
X438540Y486344D01*
X784216D01*
X820354Y450206D01*
Y358039D01*
X818740Y356800D01*
X816650Y354076D01*
X815336Y350904D01*
X814887Y347500D01*
X815336Y344096D01*
X816650Y340924D01*
X818740Y338200D01*
X821464Y336110D01*
X824636Y334796D01*
X828040Y334347D01*
X831444Y334796D01*
X834616Y336110D01*
X837340Y338200D01*
X839430Y340924D01*
X840744Y344096D01*
X841192Y347500D01*
X840744Y350904D01*
X839430Y354076D01*
X837340Y356800D01*
X835726Y358039D01*
Y453390D01*
X835726Y453390D01*
X835464Y455379D01*
X834696Y457233D01*
X833475Y458825D01*
X792835Y499465D01*
X791243Y500686D01*
X789389Y501454D01*
X787400Y501716D01*
X441724D01*
X396696Y546744D01*
Y900430D01*
X396696Y900430D01*
X396434Y902419D01*
X395666Y904273D01*
X394445Y905865D01*
X394445Y905865D01*
X310595Y989714D01*
X309004Y990935D01*
X307150Y991703D01*
X305161Y991965D01*
X165873D01*
X150055Y1007783D01*
Y1136521D01*
X149793Y1138510D01*
X149025Y1140364D01*
X147804Y1141955D01*
X147804Y1141955D01*
X134945Y1154814D01*
X133354Y1156035D01*
X131500Y1156803D01*
X129511Y1157065D01*
X115782D01*
X115775Y1157075D01*
X113521Y1158804D01*
X110896Y1159892D01*
X108079Y1160262D01*
X105947Y1159982D01*
X105354Y1161184D01*
X108694Y1164524D01*
X355346D01*
X419424Y1100446D01*
Y571500D01*
X419686Y569511D01*
X420454Y567657D01*
X421675Y566065D01*
X462315Y525425D01*
X463907Y524204D01*
X465761Y523436D01*
X467750Y523174D01*
X467750Y523174D01*
X855336D01*
X921954Y456556D01*
Y358039D01*
X920340Y356800D01*
X918250Y354076D01*
X916936Y350904D01*
X916488Y347500D01*
X916936Y344096D01*
X918250Y340924D01*
X920340Y338200D01*
X923064Y336110D01*
X926236Y334796D01*
X929640Y334347D01*
X933044Y334796D01*
X936216Y336110D01*
X938940Y338200D01*
X941030Y340924D01*
X942344Y344096D01*
X942793Y347500D01*
X942344Y350904D01*
X941030Y354076D01*
X938940Y356800D01*
X937326Y358039D01*
Y459740D01*
X937064Y461729D01*
X936296Y463583D01*
X935075Y465175D01*
X863955Y536295D01*
X862363Y537516D01*
X860509Y538284D01*
X858520Y538546D01*
X470933D01*
X434796Y574683D01*
Y1103630D01*
X434534Y1105619D01*
X433766Y1107473D01*
X432545Y1109065D01*
X363965Y1177645D01*
X362373Y1178866D01*
X360519Y1179634D01*
X358530Y1179896D01*
D02*
G37*
G36*
X878840Y360653D02*
X875436Y360204D01*
X872264Y358890D01*
X869540Y356800D01*
X867450Y354076D01*
X866136Y350904D01*
X865687Y347500D01*
X866136Y344096D01*
X867450Y340924D01*
X869540Y338200D01*
X872264Y336110D01*
X875436Y334796D01*
X878840Y334347D01*
X882244Y334796D01*
X885416Y336110D01*
X888140Y338200D01*
X890230Y340924D01*
X891544Y344096D01*
X891992Y347500D01*
X891544Y350904D01*
X890230Y354076D01*
X888140Y356800D01*
X885416Y358890D01*
X882244Y360204D01*
X878840Y360653D01*
D02*
G37*
G36*
X777240D02*
X773836Y360204D01*
X770664Y358890D01*
X767940Y356800D01*
X765850Y354076D01*
X764536Y350904D01*
X764088Y347500D01*
X764536Y344096D01*
X765850Y340924D01*
X767940Y338200D01*
X770664Y336110D01*
X773836Y334796D01*
X777240Y334347D01*
X780644Y334796D01*
X783816Y336110D01*
X786540Y338200D01*
X788630Y340924D01*
X789944Y344096D01*
X790393Y347500D01*
X789944Y350904D01*
X788630Y354076D01*
X786540Y356800D01*
X783816Y358890D01*
X780644Y360204D01*
X777240Y360653D01*
D02*
G37*
G36*
X108079Y957062D02*
X105262Y956692D01*
X102638Y955604D01*
X100384Y953875D01*
X98654Y951621D01*
X97567Y948996D01*
X97196Y946179D01*
X97567Y943363D01*
X98654Y940738D01*
X99775Y939276D01*
X99149Y938006D01*
X98808D01*
X97074Y937661D01*
X95603Y936679D01*
X88691Y929767D01*
X88121Y930204D01*
X85496Y931292D01*
X82679Y931662D01*
X79862Y931292D01*
X77238Y930204D01*
X74984Y928475D01*
X73254Y926221D01*
X72167Y923596D01*
X71796Y920779D01*
X72167Y917962D01*
X73254Y915338D01*
X74984Y913084D01*
X77238Y911354D01*
X79862Y910267D01*
X82679Y909896D01*
X85496Y910267D01*
X88121Y911354D01*
X90375Y913084D01*
X92104Y915338D01*
X93191Y917962D01*
X93562Y920779D01*
X93441Y921698D01*
X96796Y925052D01*
X97872Y924333D01*
X97567Y923596D01*
X97196Y920779D01*
X97567Y917962D01*
X98654Y915338D01*
X99775Y913876D01*
X99149Y912606D01*
X98808D01*
X97074Y912261D01*
X95603Y911279D01*
X88691Y904367D01*
X88121Y904804D01*
X85496Y905891D01*
X82679Y906262D01*
X79862Y905891D01*
X77238Y904804D01*
X74984Y903075D01*
X73254Y900821D01*
X72167Y898196D01*
X71796Y895379D01*
X72167Y892562D01*
X73254Y889938D01*
X74984Y887684D01*
X77238Y885954D01*
X79862Y884867D01*
X82679Y884496D01*
X85496Y884867D01*
X88121Y885954D01*
X90375Y887684D01*
X92104Y889938D01*
X93191Y892562D01*
X93562Y895379D01*
X93441Y896298D01*
X96796Y899652D01*
X97872Y898933D01*
X97567Y898196D01*
X97196Y895379D01*
X97567Y892562D01*
X98654Y889938D01*
X100384Y887684D01*
X102638Y885954D01*
X105262Y884867D01*
X108079Y884496D01*
X110896Y884867D01*
X113521Y885954D01*
X115775Y887684D01*
X117504Y889938D01*
X117881Y890847D01*
X149223D01*
X163108Y876963D01*
Y359737D01*
X161064Y358890D01*
X158340Y356800D01*
X156250Y354076D01*
X154936Y350904D01*
X154487Y347500D01*
X154936Y344096D01*
X156250Y340924D01*
X158340Y338200D01*
X161064Y336110D01*
X164236Y334796D01*
X167640Y334347D01*
X171044Y334796D01*
X174216Y336110D01*
X176940Y338200D01*
X179030Y340924D01*
X180344Y344096D01*
X180793Y347500D01*
X180344Y350904D01*
X179030Y354076D01*
X176940Y356800D01*
X174216Y358890D01*
X172172Y359737D01*
Y878840D01*
X172172Y878840D01*
X171827Y880574D01*
X170845Y882045D01*
X170845Y882045D01*
X154305Y898584D01*
X152835Y899566D01*
X151101Y899911D01*
X117881D01*
X117504Y900821D01*
X116391Y902272D01*
X117017Y903542D01*
X259328D01*
X304468Y858403D01*
X304468Y494030D01*
X304813Y492296D01*
X305795Y490825D01*
X366308Y430313D01*
Y359737D01*
X364264Y358890D01*
X361540Y356800D01*
X359450Y354076D01*
X358136Y350904D01*
X357687Y347500D01*
X358136Y344096D01*
X359450Y340924D01*
X361540Y338200D01*
X364264Y336110D01*
X367436Y334796D01*
X370840Y334347D01*
X374244Y334796D01*
X377416Y336110D01*
X380140Y338200D01*
X382230Y340924D01*
X383544Y344096D01*
X383993Y347500D01*
X383544Y350904D01*
X382230Y354076D01*
X380140Y356800D01*
X377416Y358890D01*
X375372Y359737D01*
Y432190D01*
X375027Y433924D01*
X374045Y435395D01*
X374045Y435395D01*
X313532Y495907D01*
X313532Y860280D01*
X313532Y860280D01*
X313187Y862014D01*
X312205Y863484D01*
X264410Y911279D01*
X262940Y912261D01*
X261206Y912606D01*
X117009D01*
X116383Y913876D01*
X117504Y915338D01*
X117881Y916247D01*
X265763D01*
X318438Y863573D01*
X318438Y500380D01*
X318783Y498646D01*
X319765Y497175D01*
X387075Y429865D01*
X388546Y428883D01*
X390280Y428538D01*
X390280Y428538D01*
X448093D01*
X467908Y408723D01*
Y359737D01*
X465864Y358890D01*
X463140Y356800D01*
X461050Y354076D01*
X459736Y350904D01*
X459287Y347500D01*
X459736Y344096D01*
X461050Y340924D01*
X463140Y338200D01*
X465864Y336110D01*
X469036Y334796D01*
X472440Y334347D01*
X475844Y334796D01*
X479016Y336110D01*
X481740Y338200D01*
X483830Y340924D01*
X485144Y344096D01*
X485592Y347500D01*
X485144Y350904D01*
X483830Y354076D01*
X481740Y356800D01*
X479016Y358890D01*
X476972Y359737D01*
Y410600D01*
X476627Y412334D01*
X475645Y413805D01*
X475645Y413805D01*
X453175Y436275D01*
X451704Y437257D01*
X449970Y437602D01*
X392157D01*
X327502Y502257D01*
X327502Y865450D01*
X327502Y865450D01*
X327157Y867184D01*
X326175Y868655D01*
X270846Y923984D01*
X269375Y924966D01*
X267641Y925311D01*
X117881D01*
X117504Y926221D01*
X116391Y927672D01*
X117017Y928942D01*
X273298D01*
X331138Y871103D01*
X331138Y505460D01*
X331483Y503726D01*
X332465Y502255D01*
X392155Y442565D01*
X393626Y441583D01*
X395360Y441238D01*
X395360Y441238D01*
X541683D01*
X569508Y413413D01*
Y359737D01*
X567464Y358890D01*
X564740Y356800D01*
X562650Y354076D01*
X561336Y350904D01*
X560887Y347500D01*
X561336Y344096D01*
X562650Y340924D01*
X564740Y338200D01*
X567464Y336110D01*
X570636Y334796D01*
X574040Y334347D01*
X577444Y334796D01*
X580616Y336110D01*
X583340Y338200D01*
X585430Y340924D01*
X586744Y344096D01*
X587192Y347500D01*
X586744Y350904D01*
X585430Y354076D01*
X583340Y356800D01*
X580616Y358890D01*
X578572Y359737D01*
Y415290D01*
X578227Y417024D01*
X577245Y418495D01*
X577245Y418495D01*
X546765Y448975D01*
X545294Y449957D01*
X543560Y450302D01*
X397237D01*
X340202Y507337D01*
X340202Y872980D01*
X340202Y872980D01*
X339857Y874714D01*
X338875Y876184D01*
X278380Y936679D01*
X276910Y937661D01*
X275175Y938006D01*
X117009D01*
X116383Y939276D01*
X117504Y940738D01*
X117881Y941647D01*
X279643D01*
X342568Y878723D01*
X342568Y513080D01*
X342913Y511346D01*
X343895Y509875D01*
X398505Y455265D01*
X399976Y454283D01*
X401710Y453938D01*
X645823D01*
X671108Y428653D01*
Y359737D01*
X669064Y358890D01*
X666340Y356800D01*
X664250Y354076D01*
X662936Y350904D01*
X662487Y347500D01*
X662936Y344096D01*
X664250Y340924D01*
X666340Y338200D01*
X669064Y336110D01*
X672236Y334796D01*
X675640Y334347D01*
X679044Y334796D01*
X682216Y336110D01*
X684940Y338200D01*
X687030Y340924D01*
X688344Y344096D01*
X688792Y347500D01*
X688344Y350904D01*
X687030Y354076D01*
X684940Y356800D01*
X682216Y358890D01*
X680172Y359737D01*
Y430530D01*
X680172Y430530D01*
X679827Y432264D01*
X678845Y433735D01*
X650905Y461675D01*
X649434Y462657D01*
X647700Y463002D01*
X403587D01*
X351632Y514957D01*
X351632Y880600D01*
X351632Y880600D01*
X351287Y882334D01*
X350305Y883804D01*
X284725Y949384D01*
X283255Y950366D01*
X281521Y950711D01*
X117881D01*
X117504Y951621D01*
X115775Y953875D01*
X113521Y955604D01*
X110896Y956692D01*
X108079Y957062D01*
D02*
G37*
G36*
X269240Y360653D02*
X265836Y360204D01*
X262664Y358890D01*
X259940Y356800D01*
X257850Y354076D01*
X256536Y350904D01*
X256087Y347500D01*
X256536Y344096D01*
X257850Y340924D01*
X259940Y338200D01*
X262664Y336110D01*
X265836Y334796D01*
X269240Y334347D01*
X272644Y334796D01*
X275816Y336110D01*
X278540Y338200D01*
X280630Y340924D01*
X281944Y344096D01*
X282393Y347500D01*
X281944Y350904D01*
X280630Y354076D01*
X278540Y356800D01*
X275816Y358890D01*
X272644Y360204D01*
X269240Y360653D01*
D02*
G37*
G36*
X31750Y1093547D02*
X29429Y1093241D01*
X27267Y1092345D01*
X25410Y1090920D01*
X23985Y1089063D01*
X23089Y1086901D01*
X22783Y1084580D01*
X23089Y1082259D01*
X23985Y1080097D01*
X24064Y1079993D01*
X24064Y286140D01*
X24326Y284151D01*
X25094Y282297D01*
X26315Y280705D01*
X64805Y242215D01*
X66397Y240994D01*
X68251Y240226D01*
X70240Y239964D01*
X1104020D01*
X1106009Y240226D01*
X1107863Y240994D01*
X1109455Y242215D01*
X1138275Y271035D01*
X1139496Y272627D01*
X1140264Y274481D01*
X1140526Y276470D01*
X1140526Y276470D01*
Y336961D01*
X1142140Y338200D01*
X1144230Y340924D01*
X1145544Y344096D01*
X1145993Y347500D01*
X1145544Y350904D01*
X1144230Y354076D01*
X1142140Y356800D01*
X1139416Y358890D01*
X1136244Y360204D01*
X1132840Y360653D01*
X1129436Y360204D01*
X1126264Y358890D01*
X1123540Y356800D01*
X1121450Y354076D01*
X1120136Y350904D01*
X1119688Y347500D01*
X1120136Y344096D01*
X1121450Y340924D01*
X1123540Y338200D01*
X1125154Y336961D01*
Y279654D01*
X1100836Y255336D01*
X73424D01*
X39436Y289324D01*
X39436Y1079993D01*
X39515Y1080097D01*
X40411Y1082259D01*
X40717Y1084580D01*
X40411Y1086901D01*
X39515Y1089063D01*
X38090Y1090920D01*
X36233Y1092345D01*
X34071Y1093241D01*
X31750Y1093547D01*
D02*
G37*
%LPD*%
G54D27*
X358530Y1172210D02*
X427110Y1103630D01*
X82679Y1149379D02*
X105510Y1172210D01*
X358530D01*
X320430Y300990D02*
Y347500D01*
X389010Y543560D02*
Y900430D01*
X305161Y984279D02*
X389010Y900430D01*
X162689Y984279D02*
X305161D01*
X389010Y543560D02*
X438540Y494030D01*
X427110Y571500D02*
X467750Y530860D01*
X427110Y571500D02*
Y1103630D01*
X858520Y530860D02*
X929640Y459740D01*
X467750Y530860D02*
X858520D01*
X438540Y494030D02*
X787400D01*
X828040Y347500D02*
Y453390D01*
X787400Y494030D02*
X828040Y453390D01*
X129511Y1149379D02*
X142369Y1136521D01*
Y1004599D02*
Y1136521D01*
X108079Y1149379D02*
X129511D01*
X142369Y1004599D02*
X162689Y984279D01*
X929640Y347500D02*
Y459740D01*
X70240Y247650D02*
X1104020D01*
X31750Y286140D02*
X70240Y247650D01*
X1104020D02*
X1132840Y276470D01*
Y347500D01*
X31750Y1084580D02*
X31750Y286140D01*
X695757Y269917D02*
X726440Y300600D01*
Y347500D01*
X590347Y269917D02*
X695757D01*
X624840Y304410D02*
Y347500D01*
X590347Y269917D02*
X624840Y304410D01*
X490017Y269917D02*
X590347D01*
X490017D02*
X523240Y303140D01*
Y347500D01*
X389687Y269917D02*
X490017D01*
X289357D02*
X389687D01*
X421640Y301870D01*
Y347500D01*
X185217Y269917D02*
X289357D01*
X320430Y300990D01*
X218440Y303140D02*
Y347500D01*
X79807Y269917D02*
X185217D01*
X218440Y303140D01*
X53340Y296383D02*
X79807Y269917D01*
X116840Y306950D01*
Y347500D01*
X53340Y1109980D02*
X53340Y296383D01*
X67289Y1123929D02*
X82629D01*
X53340Y1109980D02*
X67289Y1123929D01*
X82629D02*
X82679Y1123979D01*
G54D28*
X151101Y895379D02*
X167640Y878840D01*
Y347500D02*
Y878840D01*
X261206Y908074D02*
X309000Y860280D01*
X98808Y908074D02*
X261206D01*
X267641Y920779D02*
X322970Y865450D01*
X108079Y920779D02*
X267641D01*
X86113Y895379D02*
X98808Y908074D01*
X309000Y494030D02*
X370840Y432190D01*
X309000Y860280D02*
X309000Y494030D01*
X370840Y347500D02*
Y432190D01*
X449970Y433070D02*
X472440Y410600D01*
X322970Y500380D02*
X390280Y433070D01*
X449970D01*
X647700Y458470D02*
X675640Y430530D01*
X401710Y458470D02*
X647700D01*
X347100Y513080D02*
X401710Y458470D01*
X347100Y880600D02*
X347100Y513080D01*
X543560Y445770D02*
X574040Y415290D01*
X335670Y505460D02*
X395360Y445770D01*
X543560D01*
X335670Y872980D02*
X335670Y505460D01*
X322970Y865450D02*
X322970Y500380D01*
X472440Y347500D02*
Y410600D01*
X95379Y984279D02*
X162689D01*
X82679Y996979D02*
X95379Y984279D01*
X108079Y895379D02*
X151101D01*
X275175Y933474D02*
X335670Y872980D01*
X98808Y933474D02*
X275175D01*
X281521Y946179D02*
X347100Y880600D01*
X108079Y946179D02*
X281521D01*
X574040Y347500D02*
Y415290D01*
X675640Y347500D02*
Y430530D01*
X82679Y895379D02*
X86113D01*
Y920779D02*
X98808Y933474D01*
X82679Y920779D02*
X86113D01*
G54D29*
X405830Y1464000D02*
X476640Y1393190D01*
Y1235710D02*
Y1393190D01*
X177010Y1464000D02*
X405830D01*
X476640Y693420D02*
Y1235710D01*
X177010Y1330000D02*
X382350D01*
X476640Y1235710D01*
Y693420D02*
X564270Y605790D01*
X1140850D01*
X1183640Y563000D01*
X1272173D01*
X1272173Y563000D01*
X1183640Y347500D02*
Y563000D01*
G54D30*
X177010Y1413200D02*
D03*
X177010Y1279200D02*
D03*
X1272173Y613800D02*
D03*
X624840Y347500D02*
D03*
X523240D02*
D03*
X421640D02*
D03*
X320040D02*
D03*
X218440D02*
D03*
X726440D02*
D03*
X1183640D02*
D03*
X1082040D02*
D03*
X1234440D02*
D03*
X929640D02*
D03*
X828040D02*
D03*
X1031240D02*
D03*
X777240D02*
D03*
X878840D02*
D03*
X269240D02*
D03*
X167640D02*
D03*
X1336040D02*
D03*
X980440D02*
D03*
X675640D02*
D03*
X574040D02*
D03*
X1285240D02*
D03*
X1132840D02*
D03*
X472440D02*
D03*
X370840D02*
D03*
G54D31*
X177010Y1464000D02*
D03*
X177010Y1330000D02*
D03*
X1272173Y563000D02*
D03*
G54D32*
X116840Y347500D02*
D03*
G54D33*
X108079Y819179D02*
D03*
Y996979D02*
D03*
Y1123979D02*
D03*
Y1149379D02*
D03*
X82679Y996979D02*
D03*
X108079Y869979D02*
D03*
X82679D02*
D03*
X108079Y1047779D02*
D03*
X82679D02*
D03*
X108079Y844579D02*
D03*
X82679Y1022379D02*
D03*
X108079Y895379D02*
D03*
X82679Y946179D02*
D03*
X108079Y1022379D02*
D03*
X82679Y1123979D02*
D03*
X108079Y1098579D02*
D03*
X82679D02*
D03*
Y1073179D02*
D03*
X108079D02*
D03*
X82679Y971579D02*
D03*
X108079D02*
D03*
Y946179D02*
D03*
X82679Y920779D02*
D03*
X108079D02*
D03*
X82679Y895379D02*
D03*
Y844579D02*
D03*
Y819179D02*
D03*
Y793779D02*
D03*
X108079D02*
D03*
X82679Y768379D02*
D03*
X108079D02*
D03*
X82679Y742979D02*
D03*
X108079D02*
D03*
G54D34*
X82679Y1149379D02*
D03*
G54D35*
X1353066Y1497580D02*
D03*
G54D36*
Y782850D02*
D03*
G54D37*
X646596D02*
D03*
G54D38*
X646566Y1497580D02*
D03*
G54D39*
X31750Y1084580D02*
D03*
M02*
