G04*
G04 #@! TF.GenerationSoftware,Altium Limited,Altium Designer,20.0.13 (296)*
G04*
G04 Layer_Color=65535*
%FSAX44Y44*%
%MOMM*%
G71*
G01*
G75*
%ADD10C,0.2000*%
%ADD11C,0.2000*%
%ADD12C,0.2540*%
%ADD13C,0.1000*%
%ADD14C,1.0000*%
%ADD15C,0.8000*%
%ADD16C,0.3000*%
G36*
X00051129Y00923679D02*
Y00968679D01*
X00063629D01*
Y00923679D01*
X00051129D01*
D02*
G37*
G54D10*
X00177510Y01497500D02*
D03*
Y01363500D02*
D03*
X01272673Y00529500D02*
D03*
X00083840Y00347500D02*
D03*
G54D11*
X00077679Y01162979D02*
X00075679D01*
X00077679D01*
X00140610Y01172472D02*
X00142542Y01174337D01*
Y01177022D01*
X00140610Y01178886D01*
Y00943072D02*
X00142542Y00944937D01*
Y00947622D01*
X00140610Y00949486D01*
Y00713672D02*
X00142542Y00715537D01*
Y00718222D01*
X00140610Y00720087D01*
X00050129Y01201379D02*
X00140629D01*
X00050129Y00690979D02*
Y01201379D01*
Y00690979D02*
X00140629D01*
Y01178879D02*
Y01201379D01*
Y00949479D02*
Y01172479D01*
Y00720079D02*
Y00943079D01*
Y00690979D02*
Y00713679D01*
G54D12*
X00599901Y00739910D02*
X01400001D01*
X00599901Y01540010D02*
X01400001D01*
Y00739910D02*
Y01540010D01*
X00599901Y00739910D02*
Y01540010D01*
X00091000Y00500000D02*
X01361000D01*
X00091000Y00420000D02*
X01361000D01*
X00091000D02*
Y00500000D01*
X01361000Y00420000D02*
Y00500000D01*
X01310200Y00420000D02*
Y00500000D01*
X01259400Y00420000D02*
Y00500000D01*
X01208600Y00420000D02*
Y00500000D01*
X01157800Y00420000D02*
Y00500000D01*
X01107000Y00420000D02*
Y00500000D01*
Y00420000D02*
Y00500000D01*
X01056200Y00420000D02*
Y00500000D01*
X01005400Y00420000D02*
Y00500000D01*
X00954600Y00420000D02*
Y00500000D01*
X00903800Y00420000D02*
Y00500000D01*
X00853000Y00420000D02*
Y00500000D01*
X00802200Y00420000D02*
Y00500000D01*
X00751400Y00420000D02*
Y00500000D01*
X00700600Y00420000D02*
Y00500000D01*
X00649800Y00420000D02*
Y00500000D01*
X00599000Y00420000D02*
Y00500000D01*
X00548200Y00420000D02*
Y00500000D01*
X00497400Y00420000D02*
Y00500000D01*
X00446600Y00420000D02*
Y00500000D01*
X00395800Y00420000D02*
Y00500000D01*
X00345000Y00420000D02*
Y00500000D01*
X00294200Y00420000D02*
Y00500000D01*
X00243400Y00420000D02*
Y00500000D01*
X00192600Y00420000D02*
Y00500000D01*
X00141800Y00420000D02*
Y00500000D01*
Y00420000D02*
Y00500000D01*
X00020320Y01572255D02*
Y01557020D01*
X00027938D01*
X00030477Y01559559D01*
Y01562098D01*
X00027938Y01564637D01*
X00020320D01*
X00027938D01*
X00030477Y01567177D01*
Y01569716D01*
X00027938Y01572255D01*
X00020320D01*
X00038094Y01557020D02*
X00043173D01*
X00045712Y01559559D01*
Y01564637D01*
X00043173Y01567177D01*
X00038094D01*
X00035555Y01564637D01*
Y01559559D01*
X00038094Y01557020D01*
X00050790Y01567177D02*
Y01557020D01*
Y01562098D01*
X00053329Y01564637D01*
X00055869Y01567177D01*
X00058408D01*
X00066025Y01557020D02*
Y01567177D01*
X00073643D01*
X00076182Y01564637D01*
Y01557020D01*
X00088878D02*
X00083799D01*
X00081260Y01559559D01*
Y01564637D01*
X00083799Y01567177D01*
X00088878D01*
X00091417Y01564637D01*
Y01562098D01*
X00081260D01*
X00096495Y01567177D02*
Y01557020D01*
Y01562098D01*
X00099035Y01564637D01*
X00101574Y01567177D01*
X00104113D01*
X00114270D02*
X00119348D01*
X00121887Y01564637D01*
Y01557020D01*
X00114270D01*
X00111730Y01559559D01*
X00114270Y01562098D01*
X00121887D01*
X00142201Y01557020D02*
Y01572255D01*
X00147279Y01567177D01*
X00152357Y01572255D01*
Y01557020D01*
X00167592Y01572255D02*
X00157436D01*
Y01557020D01*
X00167592D01*
X00157436Y01564637D02*
X00162514D01*
X00172671Y01557020D02*
Y01572255D01*
X00180288D01*
X00182827Y01569716D01*
Y01564637D01*
X00180288Y01562098D01*
X00172671D01*
X00203141Y01567177D02*
X00208219Y01557020D01*
X00213298Y01567177D01*
X00218376Y01557020D02*
X00223454D01*
X00220915D01*
Y01572255D01*
X00218376Y01569716D01*
X00231072Y01557020D02*
Y01559559D01*
X00233611D01*
Y01557020D01*
X00231072D01*
X00243768Y01569716D02*
X00246307Y01572255D01*
X00251385D01*
X00253924Y01569716D01*
Y01559559D01*
X00251385Y01557020D01*
X00246307D01*
X00243768Y01559559D01*
Y01569716D01*
X00061719Y01225291D02*
X00056640D01*
X00059180D01*
Y01212595D01*
X00056640Y01210056D01*
X00054101D01*
X00051562Y01212595D01*
X00066797Y01210056D02*
X00071875D01*
X00069336D01*
Y01225291D01*
X00066797Y01222752D01*
X00240031Y01369057D02*
X00234953D01*
X00237492D01*
Y01356362D01*
X00234953Y01353822D01*
X00232413D01*
X00229874Y01356362D01*
X00255266Y01369057D02*
X00245109D01*
Y01361440D01*
X00250187Y01363979D01*
X00252727D01*
X00255266Y01361440D01*
Y01356362D01*
X00252727Y01353822D01*
X00247648D01*
X00245109Y01356362D01*
X00015243Y01328723D02*
X00030477D01*
X00025399Y01323645D01*
X00030477Y01318567D01*
X00015243D01*
X00030477Y01303332D02*
Y01313488D01*
X00015243D01*
Y01303332D01*
X00022860Y01313488D02*
Y01308410D01*
X00015243Y01298253D02*
X00030477D01*
Y01290636D01*
X00027938Y01288097D01*
X00022860D01*
X00020321Y01290636D01*
Y01298253D01*
X00240031Y01504948D02*
X00234953D01*
X00237492D01*
Y01492252D01*
X00234953Y01489713D01*
X00232413D01*
X00229874Y01492252D01*
X00252727Y01489713D02*
Y01504948D01*
X00245109Y01497330D01*
X00255266D01*
X00014892Y01477948D02*
X00030127D01*
X00025049Y01472870D01*
X00030127Y01467792D01*
X00014892D01*
X00030127Y01455096D02*
Y01460174D01*
X00027588Y01462713D01*
X00017431D01*
X00014892Y01460174D01*
Y01455096D01*
X00017431Y01452557D01*
X00027588D01*
X00030127Y01455096D01*
Y01447478D02*
X00014892D01*
Y01439861D01*
X00017431Y01437322D01*
X00027588D01*
X00030127Y01439861D01*
Y01447478D01*
Y01422086D02*
Y01432243D01*
X00014892D01*
Y01422086D01*
X00022510Y01432243D02*
Y01427165D01*
X00014892Y01417008D02*
X00030127D01*
X00025049Y01411930D01*
X00030127Y01406851D01*
X00014892D01*
X01230631Y00673098D02*
X01225553D01*
X01228092D01*
Y00660402D01*
X01225553Y00657862D01*
X01223013D01*
X01220474Y00660402D01*
X01235709Y00670558D02*
X01238248Y00673098D01*
X01243327D01*
X01245866Y00670558D01*
Y00668019D01*
X01243327Y00665480D01*
X01240788D01*
X01243327D01*
X01245866Y00662941D01*
Y00660402D01*
X01243327Y00657862D01*
X01238248D01*
X01235709Y00660402D01*
X01419053Y00566527D02*
X01434288D01*
Y00574144D01*
X01431749Y00576683D01*
X01429210D01*
X01426671Y00574144D01*
Y00566527D01*
Y00574144D01*
X01424131Y00576683D01*
X01421592D01*
X01419053Y00574144D01*
Y00566527D01*
X01434288Y00581762D02*
X01424131D01*
X01419053Y00586840D01*
X01424131Y00591918D01*
X01434288D01*
X01426671D01*
Y00581762D01*
X01419053Y00596997D02*
Y00607153D01*
Y00602075D01*
X01434288D01*
X00052071Y00391157D02*
X00046993D01*
X00049532D01*
Y00378462D01*
X00046993Y00375923D01*
X00044453D01*
X00041914Y00378462D01*
X00067306Y00375923D02*
X00057149D01*
X00067306Y00386079D01*
Y00388618D01*
X00064767Y00391157D01*
X00059688D01*
X00057149Y00388618D01*
G54D13*
X00051010Y01489400D02*
X00216010D01*
X00051010Y01387800D02*
Y01489400D01*
Y01387800D02*
X00216010D01*
Y01489400D01*
X00051010Y01355400D02*
X00216010D01*
X00051010Y01253800D02*
Y01355400D01*
Y01253800D02*
X00216010D01*
Y01355400D01*
X01233173Y00537600D02*
X01398173D01*
Y00639200D01*
X01233173D02*
X01398173D01*
X01233173Y00537600D02*
Y00639200D01*
X00853440Y00221500D02*
X01361440D01*
X00599440D02*
X01107440D01*
X00091440D02*
X00599440D01*
Y00386500D01*
Y00221500D02*
Y00386500D01*
X01361440Y00221500D02*
Y00386500D01*
X00853440D02*
X01361440D01*
X00091440Y00221500D02*
Y00386500D01*
X00599440D01*
X01107440Y00221500D02*
Y00386500D01*
X00599440D02*
X01107440D01*
G54D14*
X00566718Y00633881D02*
X00558387Y00642212D01*
X00541726D01*
X00533395Y00633881D01*
Y00625551D01*
X00541726Y00617220D01*
X00558387D01*
X00566718Y00608889D01*
Y00600559D01*
X00558387Y00592228D01*
X00541726D01*
X00533395Y00600559D01*
X00616702Y00642212D02*
X00583379D01*
Y00592228D01*
X00616702D01*
X00583379Y00617220D02*
X00600040D01*
X00666685Y00633881D02*
X00658355Y00642212D01*
X00641694D01*
X00633363Y00633881D01*
Y00600559D01*
X00641694Y00592228D01*
X00658355D01*
X00666685Y00600559D01*
X00683347Y00642212D02*
Y00592228D01*
Y00617220D01*
X00716669D01*
Y00642212D01*
Y00592228D01*
X00816637Y00633881D02*
X00808306Y00642212D01*
X00791645D01*
X00783315Y00633881D01*
Y00625551D01*
X00791645Y00617220D01*
X00808306D01*
X00816637Y00608889D01*
Y00600559D01*
X00808306Y00592228D01*
X00791645D01*
X00783315Y00600559D01*
X00833298Y00592228D02*
Y00642212D01*
X00858290D01*
X00866621Y00633881D01*
Y00617220D01*
X00858290Y00608889D01*
X00833298D01*
X00849960D02*
X00866621Y00592228D01*
X00883282Y00642212D02*
Y00592228D01*
X00916605D01*
G54D15*
X00846617Y01119917D02*
Y01159903D01*
X00859946Y01146574D01*
X00873275Y01159903D01*
Y01119917D01*
X00906597Y01159903D02*
X00893268D01*
X00886604Y01153239D01*
Y01126581D01*
X00893268Y01119917D01*
X00906597D01*
X00913262Y01126581D01*
Y01153239D01*
X00906597Y01159903D01*
X00926591D02*
Y01119917D01*
X00946584D01*
X00953249Y01126581D01*
Y01153239D01*
X00946584Y01159903D01*
X00926591D01*
X00993236D02*
X00966578D01*
Y01119917D01*
X00993236D01*
X00966578Y01139910D02*
X00979907D01*
X01006565Y01119917D02*
Y01159903D01*
X01019894Y01146574D01*
X01033223Y01159903D01*
Y01119917D01*
X01106533D02*
Y01159903D01*
X01086539Y01139910D01*
X01113197D01*
X01153184Y01153239D02*
X01146520Y01159903D01*
X01133191D01*
X01126526Y01153239D01*
Y01126581D01*
X01133191Y01119917D01*
X01146520D01*
X01153184Y01126581D01*
Y01139910D01*
X01139855D01*
G54D16*
X00111044Y00467737D02*
X00113424Y00468927D01*
X00116995Y00472497D01*
Y00447503D01*
X00115805Y00471307D02*
Y00447503D01*
X00111044D02*
X00121756D01*
X00160059Y00467737D02*
X00161249Y00466546D01*
X00160059Y00465356D01*
X00158869Y00466546D01*
Y00467737D01*
X00160059Y00470117D01*
X00161249Y00471307D01*
X00164820Y00472497D01*
X00169580D01*
X00173151Y00471307D01*
X00174341Y00470117D01*
X00175532Y00467737D01*
Y00465356D01*
X00174341Y00462976D01*
X00170771Y00460595D01*
X00164820Y00458215D01*
X00162439Y00457024D01*
X00160059Y00454644D01*
X00158869Y00451073D01*
Y00447503D01*
X00169580Y00472497D02*
X00171961Y00471307D01*
X00173151Y00470117D01*
X00174341Y00467737D01*
Y00465356D01*
X00173151Y00462976D01*
X00169580Y00460595D01*
X00164820Y00458215D01*
X00158869Y00449883D02*
X00160059Y00451073D01*
X00162439D01*
X00168390Y00448693D01*
X00171961D01*
X00174341Y00449883D01*
X00175532Y00451073D01*
Y00453454D01*
X00162439Y00451073D02*
X00168390Y00447503D01*
X00173151D01*
X00174341Y00448693D01*
X00175532Y00451073D01*
X00210859Y00467737D02*
X00212049Y00466546D01*
X00210859Y00465356D01*
X00209669Y00466546D01*
Y00467737D01*
X00210859Y00470117D01*
X00212049Y00471307D01*
X00215620Y00472497D01*
X00220380D01*
X00223951Y00471307D01*
X00225141Y00468927D01*
Y00465356D01*
X00223951Y00462976D01*
X00220380Y00461785D01*
X00216810D01*
X00220380Y00472497D02*
X00222761Y00471307D01*
X00223951Y00468927D01*
Y00465356D01*
X00222761Y00462976D01*
X00220380Y00461785D01*
X00222761Y00460595D01*
X00225141Y00458215D01*
X00226332Y00455834D01*
Y00452264D01*
X00225141Y00449883D01*
X00223951Y00448693D01*
X00220380Y00447503D01*
X00215620D01*
X00212049Y00448693D01*
X00210859Y00449883D01*
X00209669Y00452264D01*
Y00453454D01*
X00210859Y00454644D01*
X00212049Y00453454D01*
X00210859Y00452264D01*
X00223951Y00459405D02*
X00225141Y00455834D01*
Y00452264D01*
X00223951Y00449883D01*
X00222761Y00448693D01*
X00220380Y00447503D01*
X00271180Y00470117D02*
Y00447503D01*
X00278322Y00454644D02*
X00259278D01*
X00272371Y00472497D01*
Y00447503D01*
X00267610D02*
X00275941D01*
X00313649Y00472497D02*
X00311269Y00460595D01*
X00313649Y00462976D01*
X00317220Y00464166D01*
X00320790D01*
X00324361Y00462976D01*
X00326741Y00460595D01*
X00327932Y00457024D01*
Y00454644D01*
X00326741Y00451073D01*
X00324361Y00448693D01*
X00320790Y00447503D01*
X00317220D01*
X00313649Y00448693D01*
X00312459Y00449883D01*
X00311269Y00452264D01*
Y00453454D01*
X00312459Y00454644D01*
X00313649Y00453454D01*
X00312459Y00452264D01*
X00320790Y00464166D02*
X00323171Y00462976D01*
X00325551Y00460595D01*
X00326741Y00457024D01*
Y00454644D01*
X00325551Y00451073D01*
X00323171Y00448693D01*
X00320790Y00447503D01*
X00313649Y00472497D02*
X00325551D01*
X00313649Y00471307D02*
X00319600D01*
X00325551Y00472497D01*
X00376351Y00468927D02*
X00375161Y00467737D01*
X00376351Y00466546D01*
X00377541Y00467737D01*
Y00468927D01*
X00376351Y00471307D01*
X00373971Y00472497D01*
X00370400D01*
X00366829Y00471307D01*
X00364449Y00468927D01*
X00363259Y00466546D01*
X00362068Y00461785D01*
Y00454644D01*
X00363259Y00451073D01*
X00365639Y00448693D01*
X00369210Y00447503D01*
X00371590D01*
X00375161Y00448693D01*
X00377541Y00451073D01*
X00378732Y00454644D01*
Y00455834D01*
X00377541Y00459405D01*
X00375161Y00461785D01*
X00371590Y00462976D01*
X00370400D01*
X00366829Y00461785D01*
X00364449Y00459405D01*
X00363259Y00455834D01*
X00370400Y00472497D02*
X00368020Y00471307D01*
X00365639Y00468927D01*
X00364449Y00466546D01*
X00363259Y00461785D01*
Y00454644D01*
X00364449Y00451073D01*
X00366829Y00448693D01*
X00369210Y00447503D01*
X00371590D02*
X00373971Y00448693D01*
X00376351Y00451073D01*
X00377541Y00454644D01*
Y00455834D01*
X00376351Y00459405D01*
X00373971Y00461785D01*
X00371590Y00462976D01*
X00412868Y00472497D02*
Y00465356D01*
Y00467737D02*
X00414059Y00470117D01*
X00416439Y00472497D01*
X00418820D01*
X00424771Y00468927D01*
X00427151D01*
X00428341Y00470117D01*
X00429532Y00472497D01*
X00414059Y00470117D02*
X00416439Y00471307D01*
X00418820D01*
X00424771Y00468927D01*
X00429532Y00472497D02*
Y00468927D01*
X00428341Y00465356D01*
X00423581Y00459405D01*
X00422390Y00457024D01*
X00421200Y00453454D01*
Y00447503D01*
X00428341Y00465356D02*
X00422390Y00459405D01*
X00421200Y00457024D01*
X00420010Y00453454D01*
Y00447503D01*
X00469620Y00472497D02*
X00466049Y00471307D01*
X00464859Y00468927D01*
Y00465356D01*
X00466049Y00462976D01*
X00469620Y00461785D01*
X00474380D01*
X00477951Y00462976D01*
X00479141Y00465356D01*
Y00468927D01*
X00477951Y00471307D01*
X00474380Y00472497D01*
X00469620D01*
X00467239Y00471307D01*
X00466049Y00468927D01*
Y00465356D01*
X00467239Y00462976D01*
X00469620Y00461785D01*
X00474380D02*
X00476761Y00462976D01*
X00477951Y00465356D01*
Y00468927D01*
X00476761Y00471307D01*
X00474380Y00472497D01*
X00469620Y00461785D02*
X00466049Y00460595D01*
X00464859Y00459405D01*
X00463669Y00457024D01*
Y00452264D01*
X00464859Y00449883D01*
X00466049Y00448693D01*
X00469620Y00447503D01*
X00474380D01*
X00477951Y00448693D01*
X00479141Y00449883D01*
X00480332Y00452264D01*
Y00457024D01*
X00479141Y00459405D01*
X00477951Y00460595D01*
X00474380Y00461785D01*
X00469620D02*
X00467239Y00460595D01*
X00466049Y00459405D01*
X00464859Y00457024D01*
Y00452264D01*
X00466049Y00449883D01*
X00467239Y00448693D01*
X00469620Y00447503D01*
X00474380D02*
X00476761Y00448693D01*
X00477951Y00449883D01*
X00479141Y00452264D01*
Y00457024D01*
X00477951Y00459405D01*
X00476761Y00460595D01*
X00474380Y00461785D01*
X00529941Y00464166D02*
X00528751Y00460595D01*
X00526371Y00458215D01*
X00522800Y00457024D01*
X00521610D01*
X00518039Y00458215D01*
X00515659Y00460595D01*
X00514468Y00464166D01*
Y00465356D01*
X00515659Y00468927D01*
X00518039Y00471307D01*
X00521610Y00472497D01*
X00523990D01*
X00527561Y00471307D01*
X00529941Y00468927D01*
X00531132Y00465356D01*
Y00458215D01*
X00529941Y00453454D01*
X00528751Y00451073D01*
X00526371Y00448693D01*
X00522800Y00447503D01*
X00519229D01*
X00516849Y00448693D01*
X00515659Y00451073D01*
Y00452264D01*
X00516849Y00453454D01*
X00518039Y00452264D01*
X00516849Y00451073D01*
X00521610Y00457024D02*
X00519229Y00458215D01*
X00516849Y00460595D01*
X00515659Y00464166D01*
Y00465356D01*
X00516849Y00468927D01*
X00519229Y00471307D01*
X00521610Y00472497D01*
X00523990D02*
X00526371Y00471307D01*
X00528751Y00468927D01*
X00529941Y00465356D01*
Y00458215D01*
X00528751Y00453454D01*
X00527561Y00451073D01*
X00525181Y00448693D01*
X00522800Y00447503D01*
X00557770Y00467737D02*
X00560150Y00468927D01*
X00563721Y00472497D01*
Y00447503D01*
X00562531Y00471307D02*
Y00447503D01*
X00557770D02*
X00568482D01*
X00579908Y00472497D02*
X00576338Y00471307D01*
X00573957Y00467737D01*
X00572767Y00461785D01*
Y00458215D01*
X00573957Y00452264D01*
X00576338Y00448693D01*
X00579908Y00447503D01*
X00582289D01*
X00585859Y00448693D01*
X00588240Y00452264D01*
X00589430Y00458215D01*
Y00461785D01*
X00588240Y00467737D01*
X00585859Y00471307D01*
X00582289Y00472497D01*
X00579908D01*
X00577528Y00471307D01*
X00576338Y00470117D01*
X00575147Y00467737D01*
X00573957Y00461785D01*
Y00458215D01*
X00575147Y00452264D01*
X00576338Y00449883D01*
X00577528Y00448693D01*
X00579908Y00447503D01*
X00582289D02*
X00584669Y00448693D01*
X00585859Y00449883D01*
X00587049Y00452264D01*
X00588240Y00458215D01*
Y00461785D01*
X00587049Y00467737D01*
X00585859Y00470117D01*
X00584669Y00471307D01*
X00582289Y00472497D01*
X00611546Y00467737D02*
X00613926Y00468927D01*
X00617497Y00472497D01*
Y00447503D01*
X00616306Y00471307D02*
Y00447503D01*
X00611546D02*
X00622258D01*
X00626542Y00467737D02*
X00628923Y00468927D01*
X00632494Y00472497D01*
Y00447503D01*
X00631303Y00471307D02*
Y00447503D01*
X00626542D02*
X00637254D01*
X00659370Y00467737D02*
X00661750Y00468927D01*
X00665321Y00472497D01*
Y00447503D01*
X00664131Y00471307D02*
Y00447503D01*
X00659370D02*
X00670082D01*
X00675557Y00467737D02*
X00676747Y00466546D01*
X00675557Y00465356D01*
X00674367Y00466546D01*
Y00467737D01*
X00675557Y00470117D01*
X00676747Y00471307D01*
X00680318Y00472497D01*
X00685079D01*
X00688650Y00471307D01*
X00689840Y00470117D01*
X00691030Y00467737D01*
Y00465356D01*
X00689840Y00462976D01*
X00686269Y00460595D01*
X00680318Y00458215D01*
X00677937Y00457024D01*
X00675557Y00454644D01*
X00674367Y00451073D01*
Y00447503D01*
X00685079Y00472497D02*
X00687459Y00471307D01*
X00688650Y00470117D01*
X00689840Y00467737D01*
Y00465356D01*
X00688650Y00462976D01*
X00685079Y00460595D01*
X00680318Y00458215D01*
X00674367Y00449883D02*
X00675557Y00451073D01*
X00677937D01*
X00683889Y00448693D01*
X00687459D01*
X00689840Y00449883D01*
X00691030Y00451073D01*
Y00453454D01*
X00677937Y00451073D02*
X00683889Y00447503D01*
X00688650D01*
X00689840Y00448693D01*
X00691030Y00451073D01*
X00710170Y00467737D02*
X00712551Y00468927D01*
X00716121Y00472497D01*
Y00447503D01*
X00714931Y00471307D02*
Y00447503D01*
X00710170D02*
X00720882D01*
X00726357Y00467737D02*
X00727547Y00466546D01*
X00726357Y00465356D01*
X00725167Y00466546D01*
Y00467737D01*
X00726357Y00470117D01*
X00727547Y00471307D01*
X00731118Y00472497D01*
X00735879D01*
X00739449Y00471307D01*
X00740640Y00468927D01*
Y00465356D01*
X00739449Y00462976D01*
X00735879Y00461785D01*
X00732308D01*
X00735879Y00472497D02*
X00738259Y00471307D01*
X00739449Y00468927D01*
Y00465356D01*
X00738259Y00462976D01*
X00735879Y00461785D01*
X00738259Y00460595D01*
X00740640Y00458215D01*
X00741830Y00455834D01*
Y00452264D01*
X00740640Y00449883D01*
X00739449Y00448693D01*
X00735879Y00447503D01*
X00731118D01*
X00727547Y00448693D01*
X00726357Y00449883D01*
X00725167Y00452264D01*
Y00453454D01*
X00726357Y00454644D01*
X00727547Y00453454D01*
X00726357Y00452264D01*
X00739449Y00459405D02*
X00740640Y00455834D01*
Y00452264D01*
X00739449Y00449883D01*
X00738259Y00448693D01*
X00735879Y00447503D01*
X00759780Y00467737D02*
X00762160Y00468927D01*
X00765731Y00472497D01*
Y00447503D01*
X00764541Y00471307D02*
Y00447503D01*
X00759780D02*
X00770492D01*
X00786679Y00470117D02*
Y00447503D01*
X00793820Y00454644D02*
X00774777D01*
X00787869Y00472497D01*
Y00447503D01*
X00783108D02*
X00791440D01*
X00811770Y00467737D02*
X00814150Y00468927D01*
X00817721Y00472497D01*
Y00447503D01*
X00816531Y00471307D02*
Y00447503D01*
X00811770D02*
X00822482D01*
X00829147Y00472497D02*
X00826767Y00460595D01*
X00829147Y00462976D01*
X00832718Y00464166D01*
X00836289D01*
X00839859Y00462976D01*
X00842240Y00460595D01*
X00843430Y00457024D01*
Y00454644D01*
X00842240Y00451073D01*
X00839859Y00448693D01*
X00836289Y00447503D01*
X00832718D01*
X00829147Y00448693D01*
X00827957Y00449883D01*
X00826767Y00452264D01*
Y00453454D01*
X00827957Y00454644D01*
X00829147Y00453454D01*
X00827957Y00452264D01*
X00836289Y00464166D02*
X00838669Y00462976D01*
X00841049Y00460595D01*
X00842240Y00457024D01*
Y00454644D01*
X00841049Y00451073D01*
X00838669Y00448693D01*
X00836289Y00447503D01*
X00829147Y00472497D02*
X00841049D01*
X00829147Y00471307D02*
X00835098D01*
X00841049Y00472497D01*
X00862570Y00467737D02*
X00864950Y00468927D01*
X00868521Y00472497D01*
Y00447503D01*
X00867331Y00471307D02*
Y00447503D01*
X00862570D02*
X00873282D01*
X00891850Y00468927D02*
X00890659Y00467737D01*
X00891850Y00466546D01*
X00893040Y00467737D01*
Y00468927D01*
X00891850Y00471307D01*
X00889469Y00472497D01*
X00885898D01*
X00882328Y00471307D01*
X00879947Y00468927D01*
X00878757Y00466546D01*
X00877567Y00461785D01*
Y00454644D01*
X00878757Y00451073D01*
X00881137Y00448693D01*
X00884708Y00447503D01*
X00887089D01*
X00890659Y00448693D01*
X00893040Y00451073D01*
X00894230Y00454644D01*
Y00455834D01*
X00893040Y00459405D01*
X00890659Y00461785D01*
X00887089Y00462976D01*
X00885898D01*
X00882328Y00461785D01*
X00879947Y00459405D01*
X00878757Y00455834D01*
X00885898Y00472497D02*
X00883518Y00471307D01*
X00881137Y00468927D01*
X00879947Y00466546D01*
X00878757Y00461785D01*
Y00454644D01*
X00879947Y00451073D01*
X00882328Y00448693D01*
X00884708Y00447503D01*
X00887089D02*
X00889469Y00448693D01*
X00891850Y00451073D01*
X00893040Y00454644D01*
Y00455834D01*
X00891850Y00459405D01*
X00889469Y00461785D01*
X00887089Y00462976D01*
X00913370Y00467737D02*
X00915751Y00468927D01*
X00919321Y00472497D01*
Y00447503D01*
X00918131Y00471307D02*
Y00447503D01*
X00913370D02*
X00924082D01*
X00928367Y00472497D02*
Y00465356D01*
Y00467737D02*
X00929557Y00470117D01*
X00931937Y00472497D01*
X00934318D01*
X00940269Y00468927D01*
X00942650D01*
X00943840Y00470117D01*
X00945030Y00472497D01*
X00929557Y00470117D02*
X00931937Y00471307D01*
X00934318D01*
X00940269Y00468927D01*
X00945030Y00472497D02*
Y00468927D01*
X00943840Y00465356D01*
X00939079Y00459405D01*
X00937889Y00457024D01*
X00936698Y00453454D01*
Y00447503D01*
X00943840Y00465356D02*
X00937889Y00459405D01*
X00936698Y00457024D01*
X00935508Y00453454D01*
Y00447503D01*
X00964170Y00467737D02*
X00966551Y00468927D01*
X00970121Y00472497D01*
Y00447503D01*
X00968931Y00471307D02*
Y00447503D01*
X00964170D02*
X00974882D01*
X00985118Y00472497D02*
X00981547Y00471307D01*
X00980357Y00468927D01*
Y00465356D01*
X00981547Y00462976D01*
X00985118Y00461785D01*
X00989879D01*
X00993449Y00462976D01*
X00994640Y00465356D01*
Y00468927D01*
X00993449Y00471307D01*
X00989879Y00472497D01*
X00985118D01*
X00982738Y00471307D01*
X00981547Y00468927D01*
Y00465356D01*
X00982738Y00462976D01*
X00985118Y00461785D01*
X00989879D02*
X00992259Y00462976D01*
X00993449Y00465356D01*
Y00468927D01*
X00992259Y00471307D01*
X00989879Y00472497D01*
X00985118Y00461785D02*
X00981547Y00460595D01*
X00980357Y00459405D01*
X00979167Y00457024D01*
Y00452264D01*
X00980357Y00449883D01*
X00981547Y00448693D01*
X00985118Y00447503D01*
X00989879D01*
X00993449Y00448693D01*
X00994640Y00449883D01*
X00995830Y00452264D01*
Y00457024D01*
X00994640Y00459405D01*
X00993449Y00460595D01*
X00989879Y00461785D01*
X00985118D02*
X00982738Y00460595D01*
X00981547Y00459405D01*
X00980357Y00457024D01*
Y00452264D01*
X00981547Y00449883D01*
X00982738Y00448693D01*
X00985118Y00447503D01*
X00989879D02*
X00992259Y00448693D01*
X00993449Y00449883D01*
X00994640Y00452264D01*
Y00457024D01*
X00993449Y00459405D01*
X00992259Y00460595D01*
X00989879Y00461785D01*
X01014970Y00467737D02*
X01017350Y00468927D01*
X01020921Y00472497D01*
Y00447503D01*
X01019731Y00471307D02*
Y00447503D01*
X01014970D02*
X01025682D01*
X01045440Y00464166D02*
X01044249Y00460595D01*
X01041869Y00458215D01*
X01038298Y00457024D01*
X01037108D01*
X01033538Y00458215D01*
X01031157Y00460595D01*
X01029967Y00464166D01*
Y00465356D01*
X01031157Y00468927D01*
X01033538Y00471307D01*
X01037108Y00472497D01*
X01039489D01*
X01043059Y00471307D01*
X01045440Y00468927D01*
X01046630Y00465356D01*
Y00458215D01*
X01045440Y00453454D01*
X01044249Y00451073D01*
X01041869Y00448693D01*
X01038298Y00447503D01*
X01034728D01*
X01032347Y00448693D01*
X01031157Y00451073D01*
Y00452264D01*
X01032347Y00453454D01*
X01033538Y00452264D01*
X01032347Y00451073D01*
X01037108Y00457024D02*
X01034728Y00458215D01*
X01032347Y00460595D01*
X01031157Y00464166D01*
Y00465356D01*
X01032347Y00468927D01*
X01034728Y00471307D01*
X01037108Y00472497D01*
X01039489D02*
X01041869Y00471307D01*
X01044249Y00468927D01*
X01045440Y00465356D01*
Y00458215D01*
X01044249Y00453454D01*
X01043059Y00451073D01*
X01040679Y00448693D01*
X01038298Y00447503D01*
X01064282Y00467737D02*
X01065472Y00466546D01*
X01064282Y00465356D01*
X01063092Y00466546D01*
Y00467737D01*
X01064282Y00470117D01*
X01065472Y00471307D01*
X01069043Y00472497D01*
X01073804D01*
X01077375Y00471307D01*
X01078565Y00470117D01*
X01079755Y00467737D01*
Y00465356D01*
X01078565Y00462976D01*
X01074994Y00460595D01*
X01069043Y00458215D01*
X01066663Y00457024D01*
X01064282Y00454644D01*
X01063092Y00451073D01*
Y00447503D01*
X01073804Y00472497D02*
X01076184Y00471307D01*
X01077375Y00470117D01*
X01078565Y00467737D01*
Y00465356D01*
X01077375Y00462976D01*
X01073804Y00460595D01*
X01069043Y00458215D01*
X01063092Y00449883D02*
X01064282Y00451073D01*
X01066663D01*
X01072614Y00448693D01*
X01076184D01*
X01078565Y00449883D01*
X01079755Y00451073D01*
Y00453454D01*
X01066663Y00451073D02*
X01072614Y00447503D01*
X01077375D01*
X01078565Y00448693D01*
X01079755Y00451073D01*
X01090586Y00472497D02*
X01087016Y00471307D01*
X01084635Y00467737D01*
X01083445Y00461785D01*
Y00458215D01*
X01084635Y00452264D01*
X01087016Y00448693D01*
X01090586Y00447503D01*
X01092967D01*
X01096537Y00448693D01*
X01098918Y00452264D01*
X01100108Y00458215D01*
Y00461785D01*
X01098918Y00467737D01*
X01096537Y00471307D01*
X01092967Y00472497D01*
X01090586D01*
X01088206Y00471307D01*
X01087016Y00470117D01*
X01085825Y00467737D01*
X01084635Y00461785D01*
Y00458215D01*
X01085825Y00452264D01*
X01087016Y00449883D01*
X01088206Y00448693D01*
X01090586Y00447503D01*
X01092967D02*
X01095347Y00448693D01*
X01096537Y00449883D01*
X01097728Y00452264D01*
X01098918Y00458215D01*
Y00461785D01*
X01097728Y00467737D01*
X01096537Y00470117D01*
X01095347Y00471307D01*
X01092967Y00472497D01*
X01118058Y00467737D02*
X01119248Y00466546D01*
X01118058Y00465356D01*
X01116868Y00466546D01*
Y00467737D01*
X01118058Y00470117D01*
X01119248Y00471307D01*
X01122819Y00472497D01*
X01127580D01*
X01131150Y00471307D01*
X01132340Y00470117D01*
X01133531Y00467737D01*
Y00465356D01*
X01132340Y00462976D01*
X01128770Y00460595D01*
X01122819Y00458215D01*
X01120438Y00457024D01*
X01118058Y00454644D01*
X01116868Y00451073D01*
Y00447503D01*
X01127580Y00472497D02*
X01129960Y00471307D01*
X01131150Y00470117D01*
X01132340Y00467737D01*
Y00465356D01*
X01131150Y00462976D01*
X01127580Y00460595D01*
X01122819Y00458215D01*
X01116868Y00449883D02*
X01118058Y00451073D01*
X01120438D01*
X01126389Y00448693D01*
X01129960D01*
X01132340Y00449883D01*
X01133531Y00451073D01*
Y00453454D01*
X01120438Y00451073D02*
X01126389Y00447503D01*
X01131150D01*
X01132340Y00448693D01*
X01133531Y00451073D01*
X01137220Y00467737D02*
X01139601Y00468927D01*
X01143171Y00472497D01*
Y00447503D01*
X01141981Y00471307D02*
Y00447503D01*
X01137220D02*
X01147932D01*
X01165882Y00467737D02*
X01167073Y00466546D01*
X01165882Y00465356D01*
X01164692Y00466546D01*
Y00467737D01*
X01165882Y00470117D01*
X01167073Y00471307D01*
X01170643Y00472497D01*
X01175404D01*
X01178975Y00471307D01*
X01180165Y00470117D01*
X01181355Y00467737D01*
Y00465356D01*
X01180165Y00462976D01*
X01176594Y00460595D01*
X01170643Y00458215D01*
X01168263Y00457024D01*
X01165882Y00454644D01*
X01164692Y00451073D01*
Y00447503D01*
X01175404Y00472497D02*
X01177785Y00471307D01*
X01178975Y00470117D01*
X01180165Y00467737D01*
Y00465356D01*
X01178975Y00462976D01*
X01175404Y00460595D01*
X01170643Y00458215D01*
X01164692Y00449883D02*
X01165882Y00451073D01*
X01168263D01*
X01174214Y00448693D01*
X01177785D01*
X01180165Y00449883D01*
X01181355Y00451073D01*
Y00453454D01*
X01168263Y00451073D02*
X01174214Y00447503D01*
X01178975D01*
X01180165Y00448693D01*
X01181355Y00451073D01*
X01186235Y00467737D02*
X01187425Y00466546D01*
X01186235Y00465356D01*
X01185045Y00466546D01*
Y00467737D01*
X01186235Y00470117D01*
X01187425Y00471307D01*
X01190996Y00472497D01*
X01195757D01*
X01199327Y00471307D01*
X01200518Y00470117D01*
X01201708Y00467737D01*
Y00465356D01*
X01200518Y00462976D01*
X01196947Y00460595D01*
X01190996Y00458215D01*
X01188615Y00457024D01*
X01186235Y00454644D01*
X01185045Y00451073D01*
Y00447503D01*
X01195757Y00472497D02*
X01198137Y00471307D01*
X01199327Y00470117D01*
X01200518Y00467737D01*
Y00465356D01*
X01199327Y00462976D01*
X01195757Y00460595D01*
X01190996Y00458215D01*
X01185045Y00449883D02*
X01186235Y00451073D01*
X01188615D01*
X01194567Y00448693D01*
X01198137D01*
X01200518Y00449883D01*
X01201708Y00451073D01*
Y00453454D01*
X01188615Y00451073D02*
X01194567Y00447503D01*
X01199327D01*
X01200518Y00448693D01*
X01201708Y00451073D01*
X01216682Y00467737D02*
X01217872Y00466546D01*
X01216682Y00465356D01*
X01215492Y00466546D01*
Y00467737D01*
X01216682Y00470117D01*
X01217872Y00471307D01*
X01221443Y00472497D01*
X01226204D01*
X01229775Y00471307D01*
X01230965Y00470117D01*
X01232155Y00467737D01*
Y00465356D01*
X01230965Y00462976D01*
X01227394Y00460595D01*
X01221443Y00458215D01*
X01219063Y00457024D01*
X01216682Y00454644D01*
X01215492Y00451073D01*
Y00447503D01*
X01226204Y00472497D02*
X01228585Y00471307D01*
X01229775Y00470117D01*
X01230965Y00467737D01*
Y00465356D01*
X01229775Y00462976D01*
X01226204Y00460595D01*
X01221443Y00458215D01*
X01215492Y00449883D02*
X01216682Y00451073D01*
X01219063D01*
X01225014Y00448693D01*
X01228585D01*
X01230965Y00449883D01*
X01232155Y00451073D01*
Y00453454D01*
X01219063Y00451073D02*
X01225014Y00447503D01*
X01229775D01*
X01230965Y00448693D01*
X01232155Y00451073D01*
X01237035Y00467737D02*
X01238225Y00466546D01*
X01237035Y00465356D01*
X01235845Y00466546D01*
Y00467737D01*
X01237035Y00470117D01*
X01238225Y00471307D01*
X01241796Y00472497D01*
X01246557D01*
X01250127Y00471307D01*
X01251318Y00468927D01*
Y00465356D01*
X01250127Y00462976D01*
X01246557Y00461785D01*
X01242986D01*
X01246557Y00472497D02*
X01248937Y00471307D01*
X01250127Y00468927D01*
Y00465356D01*
X01248937Y00462976D01*
X01246557Y00461785D01*
X01248937Y00460595D01*
X01251318Y00458215D01*
X01252508Y00455834D01*
Y00452264D01*
X01251318Y00449883D01*
X01250127Y00448693D01*
X01246557Y00447503D01*
X01241796D01*
X01238225Y00448693D01*
X01237035Y00449883D01*
X01235845Y00452264D01*
Y00453454D01*
X01237035Y00454644D01*
X01238225Y00453454D01*
X01237035Y00452264D01*
X01250127Y00459405D02*
X01251318Y00455834D01*
Y00452264D01*
X01250127Y00449883D01*
X01248937Y00448693D01*
X01246557Y00447503D01*
X01266292Y00467737D02*
X01267482Y00466546D01*
X01266292Y00465356D01*
X01265102Y00466546D01*
Y00467737D01*
X01266292Y00470117D01*
X01267482Y00471307D01*
X01271053Y00472497D01*
X01275814D01*
X01279385Y00471307D01*
X01280575Y00470117D01*
X01281765Y00467737D01*
Y00465356D01*
X01280575Y00462976D01*
X01277004Y00460595D01*
X01271053Y00458215D01*
X01268672Y00457024D01*
X01266292Y00454644D01*
X01265102Y00451073D01*
Y00447503D01*
X01275814Y00472497D02*
X01278194Y00471307D01*
X01279385Y00470117D01*
X01280575Y00467737D01*
Y00465356D01*
X01279385Y00462976D01*
X01275814Y00460595D01*
X01271053Y00458215D01*
X01265102Y00449883D02*
X01266292Y00451073D01*
X01268672D01*
X01274624Y00448693D01*
X01278194D01*
X01280575Y00449883D01*
X01281765Y00451073D01*
Y00453454D01*
X01268672Y00451073D02*
X01274624Y00447503D01*
X01279385D01*
X01280575Y00448693D01*
X01281765Y00451073D01*
X01297357Y00470117D02*
Y00447503D01*
X01304498Y00454644D02*
X01285455D01*
X01298547Y00472497D01*
Y00447503D01*
X01293786D02*
X01302118D01*
X01318282Y00467737D02*
X01319473Y00466546D01*
X01318282Y00465356D01*
X01317092Y00466546D01*
Y00467737D01*
X01318282Y00470117D01*
X01319473Y00471307D01*
X01323043Y00472497D01*
X01327804D01*
X01331375Y00471307D01*
X01332565Y00470117D01*
X01333755Y00467737D01*
Y00465356D01*
X01332565Y00462976D01*
X01328994Y00460595D01*
X01323043Y00458215D01*
X01320663Y00457024D01*
X01318282Y00454644D01*
X01317092Y00451073D01*
Y00447503D01*
X01327804Y00472497D02*
X01330184Y00471307D01*
X01331375Y00470117D01*
X01332565Y00467737D01*
Y00465356D01*
X01331375Y00462976D01*
X01327804Y00460595D01*
X01323043Y00458215D01*
X01317092Y00449883D02*
X01318282Y00451073D01*
X01320663D01*
X01326614Y00448693D01*
X01330184D01*
X01332565Y00449883D01*
X01333755Y00451073D01*
Y00453454D01*
X01320663Y00451073D02*
X01326614Y00447503D01*
X01331375D01*
X01332565Y00448693D01*
X01333755Y00451073D01*
X01339825Y00472497D02*
X01337445Y00460595D01*
X01339825Y00462976D01*
X01343396Y00464166D01*
X01346967D01*
X01350537Y00462976D01*
X01352918Y00460595D01*
X01354108Y00457024D01*
Y00454644D01*
X01352918Y00451073D01*
X01350537Y00448693D01*
X01346967Y00447503D01*
X01343396D01*
X01339825Y00448693D01*
X01338635Y00449883D01*
X01337445Y00452264D01*
Y00453454D01*
X01338635Y00454644D01*
X01339825Y00453454D01*
X01338635Y00452264D01*
X01346967Y00464166D02*
X01349347Y00462976D01*
X01351727Y00460595D01*
X01352918Y00457024D01*
Y00454644D01*
X01351727Y00451073D01*
X01349347Y00448693D01*
X01346967Y00447503D01*
X01339825Y00472497D02*
X01351727D01*
X01339825Y00471307D02*
X01345776D01*
X01351727Y00472497D01*
M02*
