G04*
G04 #@! TF.GenerationSoftware,Altium Limited,Altium Designer,20.0.13 (296)*
G04*
G04 Layer_Physical_Order=2*
G04 Layer_Color=16711680*
%FSLAX44Y44*%
%MOMM*%
G71*
G01*
G75*
%ADD27C,1.0160*%
%ADD28C,0.3810*%
%ADD30C,2.1000*%
%ADD31R,2.1000X2.1000*%
%ADD32R,2.1000X2.1000*%
%ADD33C,1.6500*%
%ADD34R,1.6500X1.6500*%
G04:AMPARAMS|DCode=35|XSize=10mm|YSize=3.2mm|CornerRadius=0mm|HoleSize=0mm|Usage=FLASHONLY|Rotation=38.400|XOffset=0mm|YOffset=0mm|HoleType=Round|Shape=Round|*
%AMOVALD35*
21,1,6.8000,3.2000,0.0000,0.0000,38.4*
1,1,3.2000,-2.6646,-2.1119*
1,1,3.2000,2.6646,2.1119*
%
%ADD35OVALD35*%

G04:AMPARAMS|DCode=36|XSize=10mm|YSize=3.2mm|CornerRadius=0mm|HoleSize=0mm|Usage=FLASHONLY|Rotation=-39.200|XOffset=0mm|YOffset=0mm|HoleType=Round|Shape=Round|*
%AMOVALD36*
21,1,6.8000,3.2000,0.0000,0.0000,-39.2*
1,1,3.2000,-2.6348,2.1489*
1,1,3.2000,2.6348,-2.1489*
%
%ADD36OVALD36*%

G04:AMPARAMS|DCode=37|XSize=10mm|YSize=3.2mm|CornerRadius=0mm|HoleSize=0mm|Usage=FLASHONLY|Rotation=39.600|XOffset=0mm|YOffset=0mm|HoleType=Round|Shape=Round|*
%AMOVALD37*
21,1,6.8000,3.2000,0.0000,0.0000,39.6*
1,1,3.2000,-2.6197,-2.1672*
1,1,3.2000,2.6197,2.1672*
%
%ADD37OVALD37*%

G04:AMPARAMS|DCode=38|XSize=10mm|YSize=3.2mm|CornerRadius=0mm|HoleSize=0mm|Usage=FLASHONLY|Rotation=-38.600|XOffset=0mm|YOffset=0mm|HoleType=Round|Shape=Round|*
%AMOVALD38*
21,1,6.8000,3.2000,0.0000,0.0000,-38.6*
1,1,3.2000,-2.6572,2.1212*
1,1,3.2000,2.6572,-2.1212*
%
%ADD38OVALD38*%

%ADD39C,1.2700*%
%ADD40C,0.5080*%
G36*
X546015Y689910D02*
X546311Y688423D01*
X547153Y687163D01*
X548413Y686321D01*
X549900Y686025D01*
X1446116D01*
Y213885D01*
X3885D01*
Y1536115D01*
X546015D01*
Y689910D01*
D02*
G37*
%LPC*%
G36*
X190050Y1477040D02*
X163970D01*
Y1450960D01*
X190050D01*
Y1477040D01*
D02*
G37*
G36*
X190050Y1343040D02*
X163970D01*
Y1316960D01*
X190050D01*
Y1343040D01*
D02*
G37*
G36*
X93469Y1160169D02*
X71889D01*
Y1138589D01*
X93469D01*
Y1160169D01*
D02*
G37*
G36*
X108079Y1160262D02*
X105262Y1159892D01*
X102638Y1158804D01*
X100384Y1157075D01*
X98654Y1154821D01*
X97567Y1152196D01*
X97196Y1149379D01*
X97567Y1146562D01*
X98654Y1143938D01*
X100384Y1141684D01*
X102638Y1139954D01*
X105262Y1138867D01*
X108079Y1138496D01*
X110896Y1138867D01*
X113521Y1139954D01*
X115775Y1141684D01*
X117504Y1143938D01*
X118591Y1146562D01*
X118962Y1149379D01*
X118591Y1152196D01*
X117504Y1154821D01*
X115775Y1157075D01*
X113521Y1158804D01*
X110896Y1159892D01*
X108079Y1160262D01*
D02*
G37*
G36*
X82679Y1134862D02*
X79862Y1134492D01*
X77238Y1133404D01*
X74984Y1131675D01*
X73254Y1129421D01*
X72167Y1126796D01*
X71796Y1123979D01*
X72167Y1121162D01*
X73254Y1118538D01*
X74984Y1116284D01*
X77238Y1114554D01*
X79862Y1113467D01*
X82679Y1113096D01*
X85496Y1113467D01*
X88121Y1114554D01*
X90375Y1116284D01*
X92104Y1118538D01*
X93191Y1121162D01*
X93562Y1123979D01*
X93191Y1126796D01*
X92104Y1129421D01*
X90375Y1131675D01*
X88121Y1133404D01*
X85496Y1134492D01*
X82679Y1134862D01*
D02*
G37*
G36*
X108079Y1109462D02*
X105262Y1109091D01*
X102638Y1108004D01*
X100384Y1106275D01*
X98654Y1104021D01*
X97567Y1101396D01*
X97196Y1098579D01*
X97567Y1095762D01*
X98654Y1093138D01*
X100384Y1090884D01*
X102638Y1089154D01*
X105262Y1088067D01*
X108079Y1087696D01*
X110896Y1088067D01*
X113521Y1089154D01*
X115775Y1090884D01*
X117504Y1093138D01*
X118591Y1095762D01*
X118962Y1098579D01*
X118591Y1101396D01*
X117504Y1104021D01*
X115775Y1106275D01*
X113521Y1108004D01*
X110896Y1109091D01*
X108079Y1109462D01*
D02*
G37*
G36*
X82679D02*
X79862Y1109091D01*
X77238Y1108004D01*
X74984Y1106275D01*
X74045Y1105052D01*
X45223D01*
X43234Y1104790D01*
X41381Y1104022D01*
X39789Y1102801D01*
X30350Y1093363D01*
X29429Y1093241D01*
X27267Y1092345D01*
X25410Y1090920D01*
X23985Y1089063D01*
X23089Y1086901D01*
X22783Y1084580D01*
X23089Y1082259D01*
X23985Y1080097D01*
X25410Y1078240D01*
X27267Y1076815D01*
X29429Y1075919D01*
X31750Y1075613D01*
X34071Y1075919D01*
X36233Y1076815D01*
X38090Y1078240D01*
X39515Y1080097D01*
X40005Y1081278D01*
X48407Y1089680D01*
X76552D01*
X77238Y1089154D01*
X79862Y1088067D01*
X82679Y1087696D01*
X85496Y1088067D01*
X88121Y1089154D01*
X90375Y1090884D01*
X92104Y1093138D01*
X93191Y1095762D01*
X93562Y1098579D01*
X93191Y1101396D01*
X92104Y1104021D01*
X90375Y1106275D01*
X88121Y1108004D01*
X85496Y1109091D01*
X82679Y1109462D01*
D02*
G37*
G36*
X108079Y1084062D02*
X105262Y1083691D01*
X102638Y1082604D01*
X100384Y1080875D01*
X98654Y1078621D01*
X97567Y1075996D01*
X97196Y1073179D01*
X97567Y1070362D01*
X98654Y1067738D01*
X100384Y1065484D01*
X102638Y1063754D01*
X105262Y1062667D01*
X108079Y1062296D01*
X110896Y1062667D01*
X113521Y1063754D01*
X115775Y1065484D01*
X117504Y1067738D01*
X118591Y1070362D01*
X118962Y1073179D01*
X118591Y1075996D01*
X117504Y1078621D01*
X115775Y1080875D01*
X113521Y1082604D01*
X110896Y1083691D01*
X108079Y1084062D01*
D02*
G37*
G36*
X82679D02*
X79862Y1083691D01*
X77238Y1082604D01*
X74984Y1080875D01*
X73254Y1078621D01*
X72167Y1075996D01*
X71796Y1073179D01*
X72167Y1070362D01*
X73254Y1067738D01*
X74984Y1065484D01*
X77238Y1063754D01*
X79862Y1062667D01*
X82679Y1062296D01*
X85496Y1062667D01*
X88121Y1063754D01*
X90375Y1065484D01*
X92104Y1067738D01*
X93191Y1070362D01*
X93562Y1073179D01*
X93191Y1075996D01*
X92104Y1078621D01*
X90375Y1080875D01*
X88121Y1082604D01*
X85496Y1083691D01*
X82679Y1084062D01*
D02*
G37*
G36*
X392401Y1040259D02*
X139829D01*
X137847Y1039865D01*
X137468Y1039611D01*
X95379D01*
X95379Y1039611D01*
X93645Y1039266D01*
X92175Y1038284D01*
X92175Y1038284D01*
X86405Y1032515D01*
X85496Y1032891D01*
X82679Y1033262D01*
X79862Y1032891D01*
X77238Y1031804D01*
X74984Y1030075D01*
X73254Y1027821D01*
X72167Y1025196D01*
X71796Y1022379D01*
X72167Y1019563D01*
X73254Y1016938D01*
X74984Y1014684D01*
X77238Y1012954D01*
X79862Y1011867D01*
X82679Y1011496D01*
X85496Y1011867D01*
X88121Y1012954D01*
X90375Y1014684D01*
X92104Y1016938D01*
X93191Y1019563D01*
X93562Y1022379D01*
X93191Y1025196D01*
X92815Y1026105D01*
X97256Y1030547D01*
X99145D01*
X99772Y1029277D01*
X98654Y1027821D01*
X97567Y1025196D01*
X97196Y1022379D01*
X97567Y1019563D01*
X98654Y1016938D01*
X100384Y1014684D01*
X102638Y1012954D01*
X105262Y1011867D01*
X108079Y1011496D01*
X110896Y1011867D01*
X113521Y1012954D01*
X115775Y1014684D01*
X117504Y1016938D01*
X117613Y1017200D01*
X385175D01*
X425350Y977025D01*
X425350Y520700D01*
X425745Y518718D01*
X426867Y517038D01*
X458618Y485288D01*
X460298Y484165D01*
X462280Y483770D01*
X819545D01*
X873661Y429655D01*
Y359469D01*
X872264Y358890D01*
X869540Y356800D01*
X867450Y354076D01*
X866136Y350904D01*
X865687Y347500D01*
X866136Y344096D01*
X867450Y340924D01*
X869540Y338200D01*
X872264Y336110D01*
X875436Y334796D01*
X878840Y334347D01*
X882244Y334796D01*
X885416Y336110D01*
X888140Y338200D01*
X890230Y340924D01*
X891544Y344096D01*
X891992Y347500D01*
X891544Y350904D01*
X890230Y354076D01*
X888140Y356800D01*
X885416Y358890D01*
X884019Y359469D01*
Y431800D01*
X884019Y431800D01*
X883625Y433782D01*
X882503Y435462D01*
X882502Y435462D01*
X825352Y492612D01*
X823672Y493735D01*
X821690Y494129D01*
X464425D01*
X435709Y522845D01*
X435709Y979170D01*
X435709Y979170D01*
X435315Y981152D01*
X434193Y982832D01*
X390983Y1026042D01*
X389303Y1027165D01*
X387321Y1027559D01*
X117613D01*
X117504Y1027821D01*
X116387Y1029277D01*
X117013Y1030547D01*
X137468D01*
X137847Y1030294D01*
X139829Y1029900D01*
X390255D01*
X438050Y982105D01*
X438050Y528320D01*
X438445Y526338D01*
X439567Y524658D01*
X464967Y499258D01*
X464967Y499258D01*
X466648Y498135D01*
X468630Y497741D01*
X468630Y497741D01*
X919875D01*
X975260Y442355D01*
Y359469D01*
X973864Y358890D01*
X971140Y356800D01*
X969050Y354076D01*
X967736Y350904D01*
X967288Y347500D01*
X967736Y344096D01*
X969050Y340924D01*
X971140Y338200D01*
X973864Y336110D01*
X977036Y334796D01*
X980440Y334347D01*
X983844Y334796D01*
X987016Y336110D01*
X989740Y338200D01*
X991830Y340924D01*
X993144Y344096D01*
X993593Y347500D01*
X993144Y350904D01*
X991830Y354076D01*
X989740Y356800D01*
X987016Y358890D01*
X985620Y359469D01*
Y444500D01*
X985225Y446482D01*
X984102Y448162D01*
X925683Y506582D01*
X924002Y507705D01*
X922020Y508100D01*
X470775D01*
X448410Y530465D01*
X448410Y984250D01*
X448410Y984250D01*
X448015Y986232D01*
X446893Y987913D01*
X396063Y1038742D01*
X394383Y1039865D01*
X392401Y1040259D01*
D02*
G37*
G36*
X82679Y1007862D02*
X79862Y1007492D01*
X77238Y1006404D01*
X74984Y1004675D01*
X73254Y1002421D01*
X72167Y999796D01*
X71796Y996979D01*
X72167Y994163D01*
X73254Y991538D01*
X74984Y989284D01*
X77238Y987554D01*
X79862Y986467D01*
X82679Y986096D01*
X85496Y986467D01*
X88121Y987554D01*
X90375Y989284D01*
X92104Y991538D01*
X93191Y994163D01*
X93562Y996979D01*
X93191Y999796D01*
X92104Y1002421D01*
X90375Y1004675D01*
X88121Y1006404D01*
X85496Y1007492D01*
X82679Y1007862D01*
D02*
G37*
G36*
Y982462D02*
X79862Y982092D01*
X77238Y981004D01*
X74984Y979275D01*
X73254Y977021D01*
X72167Y974396D01*
X71796Y971579D01*
X72167Y968763D01*
X73254Y966138D01*
X74984Y963884D01*
X77238Y962154D01*
X79862Y961067D01*
X82679Y960696D01*
X85496Y961067D01*
X88121Y962154D01*
X90375Y963884D01*
X92104Y966138D01*
X93191Y968763D01*
X93562Y971579D01*
X93191Y974396D01*
X92104Y977021D01*
X90375Y979275D01*
X88121Y981004D01*
X85496Y982092D01*
X82679Y982462D01*
D02*
G37*
G36*
X108079D02*
X105262Y982092D01*
X102638Y981004D01*
X100384Y979275D01*
X98654Y977021D01*
X97567Y974396D01*
X97196Y971579D01*
X97567Y968763D01*
X98654Y966138D01*
X99775Y964676D01*
X99149Y963406D01*
X98808D01*
X97074Y963061D01*
X95603Y962079D01*
X88691Y955167D01*
X88121Y955604D01*
X85496Y956692D01*
X82679Y957062D01*
X79862Y956692D01*
X77238Y955604D01*
X74984Y953875D01*
X73254Y951621D01*
X72167Y948996D01*
X71796Y946179D01*
X72167Y943363D01*
X73254Y940738D01*
X74984Y938484D01*
X77238Y936754D01*
X79862Y935667D01*
X82679Y935296D01*
X85496Y935667D01*
X88121Y936754D01*
X90375Y938484D01*
X92104Y940738D01*
X93191Y943363D01*
X93562Y946179D01*
X93441Y947098D01*
X96796Y950452D01*
X97872Y949733D01*
X97567Y948996D01*
X97196Y946179D01*
X97567Y943363D01*
X98654Y940738D01*
X100384Y938484D01*
X102638Y936754D01*
X105262Y935667D01*
X108079Y935296D01*
X110896Y935667D01*
X113521Y936754D01*
X115775Y938484D01*
X117504Y940738D01*
X118591Y943363D01*
X118962Y946179D01*
X118591Y948996D01*
X117504Y951621D01*
X116391Y953072D01*
X117017Y954342D01*
X254639D01*
X264708Y944273D01*
X264708Y359737D01*
X262664Y358890D01*
X259940Y356800D01*
X257850Y354076D01*
X256536Y350904D01*
X256087Y347500D01*
X256536Y344096D01*
X257850Y340924D01*
X259940Y338200D01*
X262664Y336110D01*
X265836Y334796D01*
X269240Y334347D01*
X272644Y334796D01*
X275816Y336110D01*
X278540Y338200D01*
X280630Y340924D01*
X281944Y344096D01*
X282393Y347500D01*
X281944Y350904D01*
X280630Y354076D01*
X278540Y356800D01*
X275816Y358890D01*
X273772Y359737D01*
X273772Y946150D01*
X273427Y947884D01*
X272445Y949355D01*
X272444Y949355D01*
X259720Y962079D01*
X258250Y963061D01*
X256516Y963406D01*
X117009D01*
X116383Y964676D01*
X117504Y966138D01*
X118591Y968763D01*
X118962Y971579D01*
X118591Y974396D01*
X117504Y977021D01*
X115775Y979275D01*
X113521Y981004D01*
X110896Y982092D01*
X108079Y982462D01*
D02*
G37*
G36*
Y931662D02*
X105262Y931292D01*
X102638Y930204D01*
X100384Y928475D01*
X98654Y926221D01*
X97567Y923596D01*
X97196Y920779D01*
X97567Y917962D01*
X98654Y915338D01*
X100384Y913084D01*
X102638Y911354D01*
X105262Y910267D01*
X108079Y909896D01*
X110896Y910267D01*
X113521Y911354D01*
X115775Y913084D01*
X117504Y915338D01*
X118591Y917962D01*
X118962Y920779D01*
X118591Y923596D01*
X117504Y926221D01*
X115775Y928475D01*
X113521Y930204D01*
X110896Y931292D01*
X108079Y931662D01*
D02*
G37*
G36*
X82679D02*
X79862Y931292D01*
X77238Y930204D01*
X74984Y928475D01*
X73254Y926221D01*
X72167Y923596D01*
X71796Y920779D01*
X72167Y917962D01*
X73254Y915338D01*
X74984Y913084D01*
X77238Y911354D01*
X79862Y910267D01*
X82679Y909896D01*
X85496Y910267D01*
X88121Y911354D01*
X90375Y913084D01*
X92104Y915338D01*
X93191Y917962D01*
X93562Y920779D01*
X93191Y923596D01*
X92104Y926221D01*
X90375Y928475D01*
X88121Y930204D01*
X85496Y931292D01*
X82679Y931662D01*
D02*
G37*
G36*
X108079Y906262D02*
X105262Y905891D01*
X102638Y904804D01*
X100384Y903075D01*
X98654Y900821D01*
X97567Y898196D01*
X97196Y895379D01*
X97567Y892562D01*
X98654Y889938D01*
X100384Y887684D01*
X102638Y885954D01*
X105262Y884867D01*
X108079Y884496D01*
X110896Y884867D01*
X113521Y885954D01*
X115775Y887684D01*
X117504Y889938D01*
X118591Y892562D01*
X118962Y895379D01*
X118591Y898196D01*
X117504Y900821D01*
X115775Y903075D01*
X113521Y904804D01*
X110896Y905891D01*
X108079Y906262D01*
D02*
G37*
G36*
X82679D02*
X79862Y905891D01*
X77238Y904804D01*
X74984Y903075D01*
X73254Y900821D01*
X72167Y898196D01*
X71796Y895379D01*
X72167Y892562D01*
X73254Y889938D01*
X74984Y887684D01*
X77238Y885954D01*
X79862Y884867D01*
X82679Y884496D01*
X85496Y884867D01*
X88121Y885954D01*
X90375Y887684D01*
X92104Y889938D01*
X93191Y892562D01*
X93562Y895379D01*
X93191Y898196D01*
X92104Y900821D01*
X90375Y903075D01*
X88121Y904804D01*
X85496Y905891D01*
X82679Y906262D01*
D02*
G37*
G36*
Y855462D02*
X79862Y855091D01*
X77238Y854004D01*
X74984Y852275D01*
X73254Y850021D01*
X72167Y847396D01*
X71796Y844579D01*
X72167Y841762D01*
X73254Y839138D01*
X74984Y836884D01*
X77238Y835154D01*
X79862Y834067D01*
X82679Y833696D01*
X85496Y834067D01*
X88121Y835154D01*
X90375Y836884D01*
X92104Y839138D01*
X93191Y841762D01*
X93562Y844579D01*
X93191Y847396D01*
X92104Y850021D01*
X90375Y852275D01*
X88121Y854004D01*
X85496Y855091D01*
X82679Y855462D01*
D02*
G37*
G36*
Y830062D02*
X79862Y829691D01*
X77238Y828604D01*
X74984Y826875D01*
X73254Y824621D01*
X72167Y821996D01*
X71796Y819179D01*
X72167Y816363D01*
X73254Y813738D01*
X74984Y811484D01*
X77238Y809754D01*
X79862Y808667D01*
X82679Y808296D01*
X85496Y808667D01*
X88121Y809754D01*
X90375Y811484D01*
X92104Y813738D01*
X93191Y816363D01*
X93562Y819179D01*
X93191Y821996D01*
X92104Y824621D01*
X90375Y826875D01*
X88121Y828604D01*
X85496Y829691D01*
X82679Y830062D01*
D02*
G37*
G36*
X108079Y804662D02*
X105262Y804292D01*
X102638Y803204D01*
X100384Y801475D01*
X98654Y799221D01*
X97567Y796596D01*
X97196Y793779D01*
X97567Y790963D01*
X98654Y788338D01*
X100384Y786084D01*
X102638Y784354D01*
X105262Y783267D01*
X108079Y782896D01*
X110896Y783267D01*
X113521Y784354D01*
X115775Y786084D01*
X117504Y788338D01*
X118591Y790963D01*
X118962Y793779D01*
X118591Y796596D01*
X117504Y799221D01*
X115775Y801475D01*
X113521Y803204D01*
X110896Y804292D01*
X108079Y804662D01*
D02*
G37*
G36*
X82679D02*
X79862Y804292D01*
X77238Y803204D01*
X74984Y801475D01*
X73254Y799221D01*
X72167Y796596D01*
X71796Y793779D01*
X72167Y790963D01*
X73254Y788338D01*
X74984Y786084D01*
X77238Y784354D01*
X79862Y783267D01*
X82679Y782896D01*
X85496Y783267D01*
X88121Y784354D01*
X90375Y786084D01*
X92104Y788338D01*
X93191Y790963D01*
X93562Y793779D01*
X93191Y796596D01*
X92104Y799221D01*
X90375Y801475D01*
X88121Y803204D01*
X85496Y804292D01*
X82679Y804662D01*
D02*
G37*
G36*
X108079Y779262D02*
X105262Y778892D01*
X102638Y777804D01*
X100384Y776075D01*
X98654Y773821D01*
X97567Y771196D01*
X97196Y768379D01*
X97567Y765563D01*
X98654Y762938D01*
X100384Y760684D01*
X102638Y758954D01*
X105262Y757867D01*
X108079Y757496D01*
X110896Y757867D01*
X113521Y758954D01*
X115775Y760684D01*
X117504Y762938D01*
X118591Y765563D01*
X118962Y768379D01*
X118591Y771196D01*
X117504Y773821D01*
X115775Y776075D01*
X113521Y777804D01*
X110896Y778892D01*
X108079Y779262D01*
D02*
G37*
G36*
X82679D02*
X79862Y778892D01*
X77238Y777804D01*
X74984Y776075D01*
X73254Y773821D01*
X72167Y771196D01*
X71796Y768379D01*
X72167Y765563D01*
X73254Y762938D01*
X74984Y760684D01*
X77238Y758954D01*
X79862Y757867D01*
X82679Y757496D01*
X85496Y757867D01*
X88121Y758954D01*
X90375Y760684D01*
X92104Y762938D01*
X93191Y765563D01*
X93562Y768379D01*
X93191Y771196D01*
X92104Y773821D01*
X90375Y776075D01*
X88121Y777804D01*
X85496Y778892D01*
X82679Y779262D01*
D02*
G37*
G36*
X108079Y753862D02*
X105262Y753492D01*
X102638Y752404D01*
X100384Y750675D01*
X98654Y748421D01*
X97567Y745796D01*
X97196Y742979D01*
X97567Y740163D01*
X98654Y737538D01*
X100384Y735284D01*
X102638Y733554D01*
X105262Y732467D01*
X108079Y732096D01*
X110896Y732467D01*
X113521Y733554D01*
X115775Y735284D01*
X117504Y737538D01*
X118591Y740163D01*
X118962Y742979D01*
X118591Y745796D01*
X117504Y748421D01*
X115775Y750675D01*
X113521Y752404D01*
X110896Y753492D01*
X108079Y753862D01*
D02*
G37*
G36*
X82679D02*
X79862Y753492D01*
X77238Y752404D01*
X74984Y750675D01*
X73254Y748421D01*
X72167Y745796D01*
X71796Y742979D01*
X72167Y740163D01*
X73254Y737538D01*
X74984Y735284D01*
X77238Y733554D01*
X79862Y732467D01*
X82679Y732096D01*
X85496Y732467D01*
X88121Y733554D01*
X90375Y735284D01*
X92104Y737538D01*
X93191Y740163D01*
X93562Y742979D01*
X93191Y745796D01*
X92104Y748421D01*
X90375Y750675D01*
X88121Y752404D01*
X85496Y753492D01*
X82679Y753862D01*
D02*
G37*
G36*
X1285213Y576040D02*
X1259133D01*
Y549960D01*
X1285213D01*
Y576040D01*
D02*
G37*
G36*
X129880Y360540D02*
X103800D01*
Y334460D01*
X129880D01*
Y360540D01*
D02*
G37*
G36*
X1183640Y360653D02*
X1180236Y360204D01*
X1177064Y358890D01*
X1174340Y356800D01*
X1172250Y354076D01*
X1170936Y350904D01*
X1170488Y347500D01*
X1170936Y344096D01*
X1172250Y340924D01*
X1174340Y338200D01*
X1177064Y336110D01*
X1180236Y334796D01*
X1183640Y334347D01*
X1187044Y334796D01*
X1190216Y336110D01*
X1192940Y338200D01*
X1195030Y340924D01*
X1196344Y344096D01*
X1196793Y347500D01*
X1196344Y350904D01*
X1195030Y354076D01*
X1192940Y356800D01*
X1190216Y358890D01*
X1187044Y360204D01*
X1183640Y360653D01*
D02*
G37*
G36*
X1132840D02*
X1129436Y360204D01*
X1126264Y358890D01*
X1123540Y356800D01*
X1121450Y354076D01*
X1120136Y350904D01*
X1119688Y347500D01*
X1120136Y344096D01*
X1121450Y340924D01*
X1123540Y338200D01*
X1126264Y336110D01*
X1129436Y334796D01*
X1132840Y334347D01*
X1136244Y334796D01*
X1139416Y336110D01*
X1142140Y338200D01*
X1144230Y340924D01*
X1145544Y344096D01*
X1145993Y347500D01*
X1145544Y350904D01*
X1144230Y354076D01*
X1142140Y356800D01*
X1139416Y358890D01*
X1136244Y360204D01*
X1132840Y360653D01*
D02*
G37*
G36*
X108079Y1134862D02*
X105262Y1134492D01*
X102638Y1133404D01*
X100384Y1131675D01*
X98654Y1129421D01*
X97567Y1126796D01*
X97196Y1123979D01*
X97567Y1121162D01*
X98654Y1118538D01*
X100384Y1116284D01*
X102638Y1114554D01*
X105262Y1113467D01*
X108079Y1113096D01*
X110896Y1113467D01*
X113521Y1114554D01*
X115775Y1116284D01*
X115782Y1116293D01*
X415887D01*
X477578Y1054603D01*
X477578Y628526D01*
X477840Y626537D01*
X478608Y624683D01*
X479829Y623092D01*
X540665Y562255D01*
X542257Y561034D01*
X544111Y560266D01*
X546100Y560004D01*
X918836D01*
X1023554Y455286D01*
Y358039D01*
X1021940Y356800D01*
X1019850Y354076D01*
X1018536Y350904D01*
X1018087Y347500D01*
X1018536Y344096D01*
X1019850Y340924D01*
X1021940Y338200D01*
X1024664Y336110D01*
X1027836Y334796D01*
X1031240Y334347D01*
X1034644Y334796D01*
X1037816Y336110D01*
X1040540Y338200D01*
X1042630Y340924D01*
X1043944Y344096D01*
X1044392Y347500D01*
X1043944Y350904D01*
X1042630Y354076D01*
X1040540Y356800D01*
X1038926Y358039D01*
Y458470D01*
X1038664Y460459D01*
X1037896Y462313D01*
X1036675Y463905D01*
X927455Y573125D01*
X925863Y574346D01*
X924009Y575114D01*
X922020Y575376D01*
X549284D01*
X492949Y631710D01*
X492949Y1057786D01*
X492949Y1057786D01*
X492688Y1059775D01*
X491920Y1061629D01*
X490698Y1063221D01*
X424505Y1129414D01*
X422914Y1130635D01*
X421060Y1131403D01*
X419071Y1131665D01*
X115782D01*
X115775Y1131675D01*
X113521Y1133404D01*
X110896Y1134492D01*
X108079Y1134862D01*
D02*
G37*
G36*
X929640Y360653D02*
X926236Y360204D01*
X923064Y358890D01*
X920340Y356800D01*
X918250Y354076D01*
X916936Y350904D01*
X916488Y347500D01*
X916936Y344096D01*
X918250Y340924D01*
X920340Y338200D01*
X923064Y336110D01*
X926236Y334796D01*
X929640Y334347D01*
X933044Y334796D01*
X936216Y336110D01*
X938940Y338200D01*
X941030Y340924D01*
X942344Y344096D01*
X942793Y347500D01*
X942344Y350904D01*
X941030Y354076D01*
X938940Y356800D01*
X936216Y358890D01*
X933044Y360204D01*
X929640Y360653D01*
D02*
G37*
G36*
X828040D02*
X824636Y360204D01*
X821464Y358890D01*
X818740Y356800D01*
X816650Y354076D01*
X815336Y350904D01*
X814887Y347500D01*
X815336Y344096D01*
X816650Y340924D01*
X818740Y338200D01*
X821464Y336110D01*
X824636Y334796D01*
X828040Y334347D01*
X831444Y334796D01*
X834616Y336110D01*
X837340Y338200D01*
X839430Y340924D01*
X840744Y344096D01*
X841192Y347500D01*
X840744Y350904D01*
X839430Y354076D01*
X837340Y356800D01*
X834616Y358890D01*
X831444Y360204D01*
X828040Y360653D01*
D02*
G37*
G36*
X108079Y1007862D02*
X105262Y1007492D01*
X102638Y1006404D01*
X100384Y1004675D01*
X98654Y1002421D01*
X97567Y999796D01*
X97196Y996979D01*
X97567Y994163D01*
X98654Y991538D01*
X100384Y989284D01*
X102638Y987554D01*
X105262Y986467D01*
X108079Y986096D01*
X110896Y986467D01*
X113521Y987554D01*
X115775Y989284D01*
X117504Y991538D01*
X117613Y991800D01*
X369935D01*
X406301Y955435D01*
X406301Y505460D01*
X406695Y503478D01*
X407817Y501797D01*
X445918Y463698D01*
X447598Y462575D01*
X449580Y462180D01*
X736995D01*
X772060Y427115D01*
Y359469D01*
X770664Y358890D01*
X767940Y356800D01*
X765850Y354076D01*
X764536Y350904D01*
X764088Y347500D01*
X764536Y344096D01*
X765850Y340924D01*
X767940Y338200D01*
X770664Y336110D01*
X773836Y334796D01*
X777240Y334347D01*
X780644Y334796D01*
X783816Y336110D01*
X786540Y338200D01*
X788630Y340924D01*
X789944Y344096D01*
X790393Y347500D01*
X789944Y350904D01*
X788630Y354076D01*
X786540Y356800D01*
X783816Y358890D01*
X782420Y359469D01*
Y429260D01*
X782025Y431242D01*
X780902Y432923D01*
X742803Y471022D01*
X741122Y472145D01*
X739140Y472539D01*
X451725D01*
X416660Y507605D01*
X416660Y957580D01*
X416660Y957580D01*
X416265Y959562D01*
X415143Y961243D01*
X375743Y1000642D01*
X374063Y1001765D01*
X372081Y1002159D01*
X117613D01*
X117504Y1002421D01*
X115775Y1004675D01*
X113521Y1006404D01*
X110896Y1007492D01*
X108079Y1007862D01*
D02*
G37*
G36*
X726440Y360653D02*
X723036Y360204D01*
X719864Y358890D01*
X717140Y356800D01*
X715050Y354076D01*
X713736Y350904D01*
X713288Y347500D01*
X713736Y344096D01*
X715050Y340924D01*
X717140Y338200D01*
X719864Y336110D01*
X723036Y334796D01*
X726440Y334347D01*
X729844Y334796D01*
X733016Y336110D01*
X735740Y338200D01*
X737830Y340924D01*
X739144Y344096D01*
X739593Y347500D01*
X739144Y350904D01*
X737830Y354076D01*
X735740Y356800D01*
X733016Y358890D01*
X729844Y360204D01*
X726440Y360653D01*
D02*
G37*
G36*
X675640D02*
X672236Y360204D01*
X669064Y358890D01*
X666340Y356800D01*
X664250Y354076D01*
X662936Y350904D01*
X662487Y347500D01*
X662936Y344096D01*
X664250Y340924D01*
X666340Y338200D01*
X669064Y336110D01*
X672236Y334796D01*
X675640Y334347D01*
X679044Y334796D01*
X682216Y336110D01*
X684940Y338200D01*
X687030Y340924D01*
X688344Y344096D01*
X688792Y347500D01*
X688344Y350904D01*
X687030Y354076D01*
X684940Y356800D01*
X682216Y358890D01*
X679044Y360204D01*
X675640Y360653D01*
D02*
G37*
G36*
X624840D02*
X621436Y360204D01*
X618264Y358890D01*
X615540Y356800D01*
X613450Y354076D01*
X612136Y350904D01*
X611688Y347500D01*
X612136Y344096D01*
X613450Y340924D01*
X615540Y338200D01*
X618264Y336110D01*
X621436Y334796D01*
X624840Y334347D01*
X628244Y334796D01*
X631416Y336110D01*
X634140Y338200D01*
X636230Y340924D01*
X637544Y344096D01*
X637993Y347500D01*
X637544Y350904D01*
X636230Y354076D01*
X634140Y356800D01*
X631416Y358890D01*
X628244Y360204D01*
X624840Y360653D01*
D02*
G37*
G36*
X574040D02*
X570636Y360204D01*
X567464Y358890D01*
X564740Y356800D01*
X562650Y354076D01*
X561336Y350904D01*
X560887Y347500D01*
X561336Y344096D01*
X562650Y340924D01*
X564740Y338200D01*
X567464Y336110D01*
X570636Y334796D01*
X574040Y334347D01*
X577444Y334796D01*
X580616Y336110D01*
X583340Y338200D01*
X585430Y340924D01*
X586744Y344096D01*
X587192Y347500D01*
X586744Y350904D01*
X585430Y354076D01*
X583340Y356800D01*
X580616Y358890D01*
X577444Y360204D01*
X574040Y360653D01*
D02*
G37*
G36*
X523240D02*
X519836Y360204D01*
X516664Y358890D01*
X513940Y356800D01*
X511850Y354076D01*
X510536Y350904D01*
X510088Y347500D01*
X510536Y344096D01*
X511850Y340924D01*
X513940Y338200D01*
X516664Y336110D01*
X519836Y334796D01*
X523240Y334347D01*
X526644Y334796D01*
X529816Y336110D01*
X532540Y338200D01*
X534630Y340924D01*
X535944Y344096D01*
X536393Y347500D01*
X535944Y350904D01*
X534630Y354076D01*
X532540Y356800D01*
X529816Y358890D01*
X526644Y360204D01*
X523240Y360653D01*
D02*
G37*
G36*
X472440D02*
X469036Y360204D01*
X465864Y358890D01*
X463140Y356800D01*
X461050Y354076D01*
X459736Y350904D01*
X459287Y347500D01*
X459736Y344096D01*
X461050Y340924D01*
X463140Y338200D01*
X465864Y336110D01*
X469036Y334796D01*
X472440Y334347D01*
X475844Y334796D01*
X479016Y336110D01*
X481740Y338200D01*
X483830Y340924D01*
X485144Y344096D01*
X485592Y347500D01*
X485144Y350904D01*
X483830Y354076D01*
X481740Y356800D01*
X479016Y358890D01*
X475844Y360204D01*
X472440Y360653D01*
D02*
G37*
G36*
X421640D02*
X418236Y360204D01*
X415064Y358890D01*
X412340Y356800D01*
X410250Y354076D01*
X408936Y350904D01*
X408488Y347500D01*
X408936Y344096D01*
X410250Y340924D01*
X412340Y338200D01*
X415064Y336110D01*
X418236Y334796D01*
X421640Y334347D01*
X425044Y334796D01*
X428216Y336110D01*
X430940Y338200D01*
X433030Y340924D01*
X434344Y344096D01*
X434793Y347500D01*
X434344Y350904D01*
X433030Y354076D01*
X430940Y356800D01*
X428216Y358890D01*
X425044Y360204D01*
X421640Y360653D01*
D02*
G37*
G36*
X370840D02*
X367436Y360204D01*
X364264Y358890D01*
X361540Y356800D01*
X359450Y354076D01*
X358136Y350904D01*
X357687Y347500D01*
X358136Y344096D01*
X359450Y340924D01*
X361540Y338200D01*
X364264Y336110D01*
X367436Y334796D01*
X370840Y334347D01*
X374244Y334796D01*
X377416Y336110D01*
X380140Y338200D01*
X382230Y340924D01*
X383544Y344096D01*
X383993Y347500D01*
X383544Y350904D01*
X382230Y354076D01*
X380140Y356800D01*
X377416Y358890D01*
X374244Y360204D01*
X370840Y360653D01*
D02*
G37*
G36*
X320040D02*
X316636Y360204D01*
X313464Y358890D01*
X310740Y356800D01*
X308650Y354076D01*
X307336Y350904D01*
X306887Y347500D01*
X307336Y344096D01*
X308650Y340924D01*
X310740Y338200D01*
X313464Y336110D01*
X316636Y334796D01*
X320040Y334347D01*
X323444Y334796D01*
X326616Y336110D01*
X329340Y338200D01*
X331430Y340924D01*
X332744Y344096D01*
X333192Y347500D01*
X332744Y350904D01*
X331430Y354076D01*
X329340Y356800D01*
X326616Y358890D01*
X323444Y360204D01*
X320040Y360653D01*
D02*
G37*
G36*
X218440D02*
X215036Y360204D01*
X211864Y358890D01*
X209140Y356800D01*
X207050Y354076D01*
X205736Y350904D01*
X205287Y347500D01*
X205736Y344096D01*
X207050Y340924D01*
X209140Y338200D01*
X211864Y336110D01*
X215036Y334796D01*
X218440Y334347D01*
X221844Y334796D01*
X225016Y336110D01*
X227740Y338200D01*
X229830Y340924D01*
X231144Y344096D01*
X231593Y347500D01*
X231144Y350904D01*
X229830Y354076D01*
X227740Y356800D01*
X225016Y358890D01*
X221844Y360204D01*
X218440Y360653D01*
D02*
G37*
G36*
X167640D02*
X164236Y360204D01*
X161064Y358890D01*
X158340Y356800D01*
X156250Y354076D01*
X154936Y350904D01*
X154487Y347500D01*
X154936Y344096D01*
X156250Y340924D01*
X158340Y338200D01*
X161064Y336110D01*
X164236Y334796D01*
X167640Y334347D01*
X171044Y334796D01*
X174216Y336110D01*
X176940Y338200D01*
X179030Y340924D01*
X180344Y344096D01*
X180793Y347500D01*
X180344Y350904D01*
X179030Y354076D01*
X176940Y356800D01*
X174216Y358890D01*
X171044Y360204D01*
X167640Y360653D01*
D02*
G37*
G36*
X108079Y855462D02*
X105262Y855091D01*
X102638Y854004D01*
X100384Y852275D01*
X98654Y850021D01*
X97567Y847396D01*
X97196Y844579D01*
X97567Y841762D01*
X98654Y839138D01*
X100384Y836884D01*
X102638Y835154D01*
X105262Y834067D01*
X108079Y833696D01*
X110896Y834067D01*
X113521Y835154D01*
X115775Y836884D01*
X116339Y837619D01*
X156732D01*
X184698Y809653D01*
Y544258D01*
X47595Y407155D01*
X46613Y405685D01*
X46268Y403950D01*
Y317963D01*
X46613Y316229D01*
X47595Y314758D01*
X107748Y254605D01*
X109219Y253623D01*
X110953Y253278D01*
X1250143D01*
X1251877Y253623D01*
X1253348Y254605D01*
X1288445Y289702D01*
X1288445Y289702D01*
X1289427Y291173D01*
X1289772Y292907D01*
X1289772Y292907D01*
Y335263D01*
X1291816Y336110D01*
X1294540Y338200D01*
X1296630Y340924D01*
X1297944Y344096D01*
X1298392Y347500D01*
X1297944Y350904D01*
X1296630Y354076D01*
X1294540Y356800D01*
X1291816Y358890D01*
X1288644Y360204D01*
X1285240Y360653D01*
X1281836Y360204D01*
X1278664Y358890D01*
X1275940Y356800D01*
X1273850Y354076D01*
X1272536Y350904D01*
X1272087Y347500D01*
X1272536Y344096D01*
X1273850Y340924D01*
X1275940Y338200D01*
X1278664Y336110D01*
X1280708Y335263D01*
Y294784D01*
X1248266Y262342D01*
X112830D01*
X55332Y319840D01*
Y402073D01*
X192435Y539176D01*
X193417Y540646D01*
X193762Y542380D01*
X193762Y542380D01*
Y811530D01*
X193762Y811530D01*
X193417Y813264D01*
X192435Y814735D01*
X192435Y814735D01*
X161814Y845356D01*
X160343Y846338D01*
X158609Y846683D01*
X118685D01*
X118591Y847396D01*
X117504Y850021D01*
X115775Y852275D01*
X113521Y854004D01*
X110896Y855091D01*
X108079Y855462D01*
D02*
G37*
G36*
Y830062D02*
X105262Y829691D01*
X102638Y828604D01*
X100384Y826875D01*
X98654Y824621D01*
X97567Y821996D01*
X97196Y819179D01*
X97567Y816363D01*
X98654Y813738D01*
X100384Y811484D01*
X102638Y809754D01*
X105262Y808667D01*
X108079Y808296D01*
X110896Y808667D01*
X113521Y809754D01*
X115775Y811484D01*
X117504Y813738D01*
X117881Y814647D01*
X151763D01*
X165648Y800763D01*
Y554327D01*
X27004Y415684D01*
X26022Y414214D01*
X25677Y412479D01*
Y309434D01*
X26022Y307700D01*
X27004Y306229D01*
X99219Y234015D01*
X99219Y234014D01*
X100690Y233032D01*
X102424Y232687D01*
X1295592D01*
X1297327Y233032D01*
X1298797Y234014D01*
X1339635Y274852D01*
X1340617Y276323D01*
X1340962Y278057D01*
Y335424D01*
X1342616Y336110D01*
X1345340Y338200D01*
X1347430Y340924D01*
X1348744Y344096D01*
X1349193Y347500D01*
X1348744Y350904D01*
X1347430Y354076D01*
X1345340Y356800D01*
X1342616Y358890D01*
X1339444Y360204D01*
X1336040Y360653D01*
X1332636Y360204D01*
X1329464Y358890D01*
X1326740Y356800D01*
X1324650Y354076D01*
X1323336Y350904D01*
X1322888Y347500D01*
X1323336Y344096D01*
X1324650Y340924D01*
X1326740Y338200D01*
X1329464Y336110D01*
X1331898Y335101D01*
Y279934D01*
X1293715Y241751D01*
X104301D01*
X34741Y311311D01*
Y410602D01*
X173385Y549245D01*
X173385Y549245D01*
X174367Y550716D01*
X174712Y552450D01*
X174712Y552450D01*
Y802640D01*
X174712Y802640D01*
X174367Y804374D01*
X173385Y805845D01*
X156845Y822384D01*
X155375Y823366D01*
X153641Y823711D01*
X117881D01*
X117504Y824621D01*
X115775Y826875D01*
X113521Y828604D01*
X110896Y829691D01*
X108079Y830062D01*
D02*
G37*
%LPD*%
G54D27*
X546100Y567690D02*
X922020D01*
X1031240Y458470D01*
X485264Y1057786D02*
X485264Y628526D01*
X1031240Y347500D02*
Y458470D01*
X108079Y1123979D02*
X419071D01*
X485264Y628526D02*
X546100Y567690D01*
X419071Y1123979D02*
X485264Y1057786D01*
X31750Y1084580D02*
X32437D01*
X45223Y1097366D01*
X81466D01*
X82679Y1098579D01*
G54D28*
X1336430Y278057D02*
Y347500D01*
X170180Y552450D02*
Y802640D01*
X153641Y819179D02*
X170180Y802640D01*
X1295592Y237219D02*
X1336430Y278057D01*
X108079Y819179D02*
X153641D01*
X30209Y412479D02*
X170180Y552450D01*
X30209Y309434D02*
X102424Y237219D01*
X1295592D01*
X30209Y309434D02*
Y412479D01*
X158609Y842151D02*
X189230Y811530D01*
Y542380D02*
Y811530D01*
X1285240Y292907D02*
Y347500D01*
X1250143Y257810D02*
X1285240Y292907D01*
X110953Y257810D02*
X1250143D01*
X110507Y842151D02*
X158609D01*
X108079Y844579D02*
X110507Y842151D01*
X50800Y403950D02*
X189230Y542380D01*
X50800Y317963D02*
X110953Y257810D01*
X50800Y317963D02*
Y403950D01*
X95379Y1035079D02*
X139829D01*
X82679Y1022379D02*
X95379Y1035079D01*
X256516Y958874D02*
X269240Y946150D01*
X98808Y958874D02*
X256516D01*
X269240Y347500D02*
X269240Y946150D01*
X86113Y946179D02*
X98808Y958874D01*
X82679Y946179D02*
X86113D01*
X82679D02*
X84335Y944523D01*
G54D30*
X177010Y1413200D02*
D03*
X177010Y1279200D02*
D03*
X1272173Y613800D02*
D03*
X624840Y347500D02*
D03*
X523240D02*
D03*
X421640D02*
D03*
X320040D02*
D03*
X218440D02*
D03*
X726440D02*
D03*
X1183640D02*
D03*
X1082040D02*
D03*
X1234440D02*
D03*
X929640D02*
D03*
X828040D02*
D03*
X1031240D02*
D03*
X777240D02*
D03*
X878840D02*
D03*
X269240D02*
D03*
X167640D02*
D03*
X1336040D02*
D03*
X980440D02*
D03*
X675640D02*
D03*
X574040D02*
D03*
X1285240D02*
D03*
X1132840D02*
D03*
X472440D02*
D03*
X370840D02*
D03*
G54D31*
X177010Y1464000D02*
D03*
X177010Y1330000D02*
D03*
X1272173Y563000D02*
D03*
G54D32*
X116840Y347500D02*
D03*
G54D33*
X108079Y819179D02*
D03*
Y996979D02*
D03*
Y1123979D02*
D03*
Y1149379D02*
D03*
X82679Y996979D02*
D03*
X108079Y869979D02*
D03*
X82679D02*
D03*
X108079Y1047779D02*
D03*
X82679D02*
D03*
X108079Y844579D02*
D03*
X82679Y1022379D02*
D03*
X108079Y895379D02*
D03*
X82679Y946179D02*
D03*
X108079Y1022379D02*
D03*
X82679Y1123979D02*
D03*
X108079Y1098579D02*
D03*
X82679D02*
D03*
Y1073179D02*
D03*
X108079D02*
D03*
X82679Y971579D02*
D03*
X108079D02*
D03*
Y946179D02*
D03*
X82679Y920779D02*
D03*
X108079D02*
D03*
X82679Y895379D02*
D03*
Y844579D02*
D03*
Y819179D02*
D03*
Y793779D02*
D03*
X108079D02*
D03*
X82679Y768379D02*
D03*
X108079D02*
D03*
X82679Y742979D02*
D03*
X108079D02*
D03*
G54D34*
X82679Y1149379D02*
D03*
G54D35*
X1353066Y1497580D02*
D03*
G54D36*
Y782850D02*
D03*
G54D37*
X646596D02*
D03*
G54D38*
X646566Y1497580D02*
D03*
G54D39*
X31750Y1084580D02*
D03*
G54D40*
X449580Y467360D02*
X739140D01*
X777240Y429260D01*
X411480Y957580D02*
X411480Y505460D01*
X777240Y347500D02*
Y429260D01*
X108079Y996979D02*
X372081D01*
X411480Y505460D02*
X449580Y467360D01*
X372081Y996979D02*
X411480Y957580D01*
X443230Y528320D02*
X468630Y502920D01*
X922020D01*
X443230Y984250D02*
X443230Y528320D01*
X980440Y347500D02*
Y444500D01*
X922020Y502920D02*
X980440Y444500D01*
X139829Y1035079D02*
X392401D01*
X443230Y984250D01*
X462280Y488950D02*
X821690D01*
X878840Y431800D01*
X430530Y520700D02*
X462280Y488950D01*
X878840Y347500D02*
Y431800D01*
X108079Y1022379D02*
X387321D01*
X430530Y979170D02*
X430530Y520700D01*
X387321Y1022379D02*
X430530Y979170D01*
M02*
