M48
;Layer_Color=9474304
;FILE_FORMAT=4:4
METRIC,TZ
;TYPE=PLATED
T1F00S00C0.7112
T2F00S00C1.1000
T3F00S00C1.4000
;TYPE=NON_PLATED
%
T01
X31750Y1084580
T02
X82679Y742979
Y768379
Y793779
Y819179
X108079
Y844579
Y869979
X82679
Y844579
X108079Y793779
Y768379
Y742979
Y895379
Y920779
Y946179
X82679
Y971579
Y996979
X108079
Y1022379
Y1047779
X82679
Y1022379
Y1073179
Y1098579
Y1123979
X108079
Y1149379
X82679
X108079Y1098579
Y1073179
Y971579
X82679Y920779
Y895379
T03
X1234440Y347500
X1285240
X1336040
X1183640
X1132840
X1082040
X1031240
X980440
X929640
X878840
X828040
X777240
X726440
X675640
X624840
X574040
X523240
X472440
X421640
X370840
X320040
X269240
X218440
X167640
X116840
X1272173Y563000
Y613800
X177010Y1279200
Y1330000
X177010Y1413200
Y1464000
M30
