G04*
G04 #@! TF.GenerationSoftware,Altium Limited,Altium Designer,20.0.13 (296)*
G04*
G04 Layer_Color=16711935*
%FSAX44Y44*%
%MOMM*%
G71*
G01*
G75*
%ADD17C,2.3032*%
%ADD18R,2.3032X2.3032*%
%ADD19R,2.3032X2.3032*%
%ADD20C,1.8532*%
%ADD21R,1.8532X1.8532*%
G04:AMPARAMS|DCode=22|XSize=10.2032mm|YSize=3.4032mm|CornerRadius=0mm|HoleSize=0mm|Usage=FLASHONLY|Rotation=38.400|XOffset=0mm|YOffset=0mm|HoleType=Round|Shape=Round|*
%AMOVALD22*
21,1,6.8000,3.4032,0.0000,0.0000,38.4*
1,1,3.4032,-2.6646,-2.1119*
1,1,3.4032,2.6646,2.1119*
%
%ADD22OVALD22*%

G04:AMPARAMS|DCode=23|XSize=10.2032mm|YSize=3.4032mm|CornerRadius=0mm|HoleSize=0mm|Usage=FLASHONLY|Rotation=-39.200|XOffset=0mm|YOffset=0mm|HoleType=Round|Shape=Round|*
%AMOVALD23*
21,1,6.8000,3.4032,0.0000,0.0000,-39.2*
1,1,3.4032,-2.6348,2.1489*
1,1,3.4032,2.6348,-2.1489*
%
%ADD23OVALD23*%

G04:AMPARAMS|DCode=24|XSize=10.2032mm|YSize=3.4032mm|CornerRadius=0mm|HoleSize=0mm|Usage=FLASHONLY|Rotation=39.600|XOffset=0mm|YOffset=0mm|HoleType=Round|Shape=Round|*
%AMOVALD24*
21,1,6.8000,3.4032,0.0000,0.0000,39.6*
1,1,3.4032,-2.6197,-2.1672*
1,1,3.4032,2.6197,2.1672*
%
%ADD24OVALD24*%

G04:AMPARAMS|DCode=25|XSize=10.2032mm|YSize=3.4032mm|CornerRadius=0mm|HoleSize=0mm|Usage=FLASHONLY|Rotation=-38.600|XOffset=0mm|YOffset=0mm|HoleType=Round|Shape=Round|*
%AMOVALD25*
21,1,6.8000,3.4032,0.0000,0.0000,-38.6*
1,1,3.4032,-2.6572,2.1212*
1,1,3.4032,2.6572,-2.1212*
%
%ADD25OVALD25*%

%ADD26C,1.4732*%
G54D17*
X00177010Y01413200D02*
D03*
X00177010Y01279200D02*
D03*
X01272173Y00613800D02*
D03*
X00624840Y00347500D02*
D03*
X00523240D02*
D03*
X00421640D02*
D03*
X00320040D02*
D03*
X00218440D02*
D03*
X00726440D02*
D03*
X01183640D02*
D03*
X01082040D02*
D03*
X01234440D02*
D03*
X00929640D02*
D03*
X00828040D02*
D03*
X01031240D02*
D03*
X00777240D02*
D03*
X00878840D02*
D03*
X00269240D02*
D03*
X00167640D02*
D03*
X01336040D02*
D03*
X00980440D02*
D03*
X00675640D02*
D03*
X00574040D02*
D03*
X01285240D02*
D03*
X01132840D02*
D03*
X00472440D02*
D03*
X00370840D02*
D03*
G54D18*
X00177010Y01464000D02*
D03*
X00177010Y01330000D02*
D03*
X01272173Y00563000D02*
D03*
G54D19*
X00116840Y00347500D02*
D03*
G54D20*
X00108079Y00819179D02*
D03*
Y00996979D02*
D03*
Y01123979D02*
D03*
Y01149379D02*
D03*
X00082679Y00996979D02*
D03*
X00108079Y00869979D02*
D03*
X00082679D02*
D03*
X00108079Y01047779D02*
D03*
X00082679D02*
D03*
X00108079Y00844579D02*
D03*
X00082679Y01022379D02*
D03*
X00108079Y00895379D02*
D03*
X00082679Y00946179D02*
D03*
X00108079Y01022379D02*
D03*
X00082679Y01123979D02*
D03*
X00108079Y01098579D02*
D03*
X00082679D02*
D03*
Y01073179D02*
D03*
X00108079D02*
D03*
X00082679Y00971579D02*
D03*
X00108079D02*
D03*
Y00946179D02*
D03*
X00082679Y00920779D02*
D03*
X00108079D02*
D03*
X00082679Y00895379D02*
D03*
Y00844579D02*
D03*
Y00819179D02*
D03*
Y00793779D02*
D03*
X00108079D02*
D03*
X00082679Y00768379D02*
D03*
X00108079D02*
D03*
X00082679Y00742979D02*
D03*
X00108079D02*
D03*
G54D21*
X00082679Y01149379D02*
D03*
G54D22*
X01353066Y01497580D02*
D03*
G54D23*
Y00782850D02*
D03*
G54D24*
X00646596D02*
D03*
G54D25*
X00646566Y01497580D02*
D03*
G54D26*
X00031750Y01084580D02*
D03*
M02*
