G04*
G04 #@! TF.GenerationSoftware,Altium Limited,Altium Designer,20.0.13 (296)*
G04*
G04 Layer_Color=16711935*
%FSLAX44Y44*%
%MOMM*%
G71*
G01*
G75*
%ADD17C,2.3032*%
%ADD18R,2.3032X2.3032*%
%ADD19R,2.3032X2.3032*%
%ADD20C,1.8532*%
%ADD21R,1.8532X1.8532*%
G04:AMPARAMS|DCode=22|XSize=10.2032mm|YSize=3.4032mm|CornerRadius=0mm|HoleSize=0mm|Usage=FLASHONLY|Rotation=38.400|XOffset=0mm|YOffset=0mm|HoleType=Round|Shape=Round|*
%AMOVALD22*
21,1,6.8000,3.4032,0.0000,0.0000,38.4*
1,1,3.4032,-2.6646,-2.1119*
1,1,3.4032,2.6646,2.1119*
%
%ADD22OVALD22*%

G04:AMPARAMS|DCode=23|XSize=10.2032mm|YSize=3.4032mm|CornerRadius=0mm|HoleSize=0mm|Usage=FLASHONLY|Rotation=-39.200|XOffset=0mm|YOffset=0mm|HoleType=Round|Shape=Round|*
%AMOVALD23*
21,1,6.8000,3.4032,0.0000,0.0000,-39.2*
1,1,3.4032,-2.6348,2.1489*
1,1,3.4032,2.6348,-2.1489*
%
%ADD23OVALD23*%

G04:AMPARAMS|DCode=24|XSize=10.2032mm|YSize=3.4032mm|CornerRadius=0mm|HoleSize=0mm|Usage=FLASHONLY|Rotation=39.600|XOffset=0mm|YOffset=0mm|HoleType=Round|Shape=Round|*
%AMOVALD24*
21,1,6.8000,3.4032,0.0000,0.0000,39.6*
1,1,3.4032,-2.6197,-2.1672*
1,1,3.4032,2.6197,2.1672*
%
%ADD24OVALD24*%

G04:AMPARAMS|DCode=25|XSize=10.2032mm|YSize=3.4032mm|CornerRadius=0mm|HoleSize=0mm|Usage=FLASHONLY|Rotation=-38.600|XOffset=0mm|YOffset=0mm|HoleType=Round|Shape=Round|*
%AMOVALD25*
21,1,6.8000,3.4032,0.0000,0.0000,-38.6*
1,1,3.4032,-2.6572,2.1212*
1,1,3.4032,2.6572,-2.1212*
%
%ADD25OVALD25*%

%ADD26C,1.4732*%
G54D17*
X177010Y1413200D02*
D03*
X177010Y1279200D02*
D03*
X1272173Y613800D02*
D03*
X624840Y347500D02*
D03*
X523240D02*
D03*
X421640D02*
D03*
X320040D02*
D03*
X218440D02*
D03*
X726440D02*
D03*
X1183640D02*
D03*
X1082040D02*
D03*
X1234440D02*
D03*
X929640D02*
D03*
X828040D02*
D03*
X1031240D02*
D03*
X777240D02*
D03*
X878840D02*
D03*
X269240D02*
D03*
X167640D02*
D03*
X1336040D02*
D03*
X980440D02*
D03*
X675640D02*
D03*
X574040D02*
D03*
X1285240D02*
D03*
X1132840D02*
D03*
X472440D02*
D03*
X370840D02*
D03*
G54D18*
X177010Y1464000D02*
D03*
X177010Y1330000D02*
D03*
X1272173Y563000D02*
D03*
G54D19*
X116840Y347500D02*
D03*
G54D20*
X108079Y819179D02*
D03*
Y996979D02*
D03*
Y1123979D02*
D03*
Y1149379D02*
D03*
X82679Y996979D02*
D03*
X108079Y869979D02*
D03*
X82679D02*
D03*
X108079Y1047779D02*
D03*
X82679D02*
D03*
X108079Y844579D02*
D03*
X82679Y1022379D02*
D03*
X108079Y895379D02*
D03*
X82679Y946179D02*
D03*
X108079Y1022379D02*
D03*
X82679Y1123979D02*
D03*
X108079Y1098579D02*
D03*
X82679D02*
D03*
Y1073179D02*
D03*
X108079D02*
D03*
X82679Y971579D02*
D03*
X108079D02*
D03*
Y946179D02*
D03*
X82679Y920779D02*
D03*
X108079D02*
D03*
X82679Y895379D02*
D03*
Y844579D02*
D03*
Y819179D02*
D03*
Y793779D02*
D03*
X108079D02*
D03*
X82679Y768379D02*
D03*
X108079D02*
D03*
X82679Y742979D02*
D03*
X108079D02*
D03*
G54D21*
X82679Y1149379D02*
D03*
G54D22*
X1353066Y1497580D02*
D03*
G54D23*
Y782850D02*
D03*
G54D24*
X646596D02*
D03*
G54D25*
X646566Y1497580D02*
D03*
G54D26*
X31750Y1084580D02*
D03*
M02*
