G04*
G04 #@! TF.GenerationSoftware,Altium Limited,Altium Designer,20.0.13 (296)*
G04*
G04 Layer_Color=65535*
%FSLAX44Y44*%
%MOMM*%
G71*
G01*
G75*
%ADD10C,0.2000*%
%ADD11C,0.2000*%
%ADD12C,0.2540*%
%ADD13C,0.1000*%
%ADD14C,1.0000*%
%ADD15C,0.8000*%
%ADD16C,0.3000*%
G36*
X51129Y923679D02*
Y968679D01*
X63629D01*
Y923679D01*
X51129D01*
D02*
G37*
G54D10*
X177510Y1497500D02*
D03*
Y1363500D02*
D03*
X1272673Y529500D02*
D03*
X83840Y347500D02*
D03*
G54D11*
X77679Y1162979D02*
X75679D01*
X77679D01*
X140610Y1172472D02*
X142542Y1174337D01*
Y1177022D01*
X140610Y1178886D01*
Y943072D02*
X142542Y944937D01*
Y947622D01*
X140610Y949486D01*
Y713672D02*
X142542Y715537D01*
Y718222D01*
X140610Y720087D01*
X50129Y1201379D02*
X140629D01*
X50129Y690979D02*
Y1201379D01*
Y690979D02*
X140629D01*
Y1178879D02*
Y1201379D01*
Y949479D02*
Y1172479D01*
Y720079D02*
Y943079D01*
Y690979D02*
Y713679D01*
G54D12*
X599901Y739910D02*
X1400001D01*
X599901Y1540010D02*
X1400001D01*
Y739910D02*
Y1540010D01*
X599901Y739910D02*
Y1540010D01*
X91000Y500000D02*
X1361000D01*
X91000Y420000D02*
X1361000D01*
X91000D02*
Y500000D01*
X1361000Y420000D02*
Y500000D01*
X1310200Y420000D02*
Y500000D01*
X1259400Y420000D02*
Y500000D01*
X1208600Y420000D02*
Y500000D01*
X1157800Y420000D02*
Y500000D01*
X1107000Y420000D02*
Y500000D01*
Y420000D02*
Y500000D01*
X1056200Y420000D02*
Y500000D01*
X1005400Y420000D02*
Y500000D01*
X954600Y420000D02*
Y500000D01*
X903800Y420000D02*
Y500000D01*
X853000Y420000D02*
Y500000D01*
X802200Y420000D02*
Y500000D01*
X751400Y420000D02*
Y500000D01*
X700600Y420000D02*
Y500000D01*
X649800Y420000D02*
Y500000D01*
X599000Y420000D02*
Y500000D01*
X548200Y420000D02*
Y500000D01*
X497400Y420000D02*
Y500000D01*
X446600Y420000D02*
Y500000D01*
X395800Y420000D02*
Y500000D01*
X345000Y420000D02*
Y500000D01*
X294200Y420000D02*
Y500000D01*
X243400Y420000D02*
Y500000D01*
X192600Y420000D02*
Y500000D01*
X141800Y420000D02*
Y500000D01*
Y420000D02*
Y500000D01*
X20320Y1572255D02*
Y1557020D01*
X27938D01*
X30477Y1559559D01*
Y1562098D01*
X27938Y1564637D01*
X20320D01*
X27938D01*
X30477Y1567177D01*
Y1569716D01*
X27938Y1572255D01*
X20320D01*
X38094Y1557020D02*
X43173D01*
X45712Y1559559D01*
Y1564637D01*
X43173Y1567177D01*
X38094D01*
X35555Y1564637D01*
Y1559559D01*
X38094Y1557020D01*
X50790Y1567177D02*
Y1557020D01*
Y1562098D01*
X53329Y1564637D01*
X55869Y1567177D01*
X58408D01*
X66025Y1557020D02*
Y1567177D01*
X73643D01*
X76182Y1564637D01*
Y1557020D01*
X88878D02*
X83799D01*
X81260Y1559559D01*
Y1564637D01*
X83799Y1567177D01*
X88878D01*
X91417Y1564637D01*
Y1562098D01*
X81260D01*
X96495Y1567177D02*
Y1557020D01*
Y1562098D01*
X99035Y1564637D01*
X101574Y1567177D01*
X104113D01*
X114270D02*
X119348D01*
X121887Y1564637D01*
Y1557020D01*
X114270D01*
X111730Y1559559D01*
X114270Y1562098D01*
X121887D01*
X142201Y1557020D02*
Y1572255D01*
X147279Y1567177D01*
X152357Y1572255D01*
Y1557020D01*
X167592Y1572255D02*
X157436D01*
Y1557020D01*
X167592D01*
X157436Y1564637D02*
X162514D01*
X172671Y1557020D02*
Y1572255D01*
X180288D01*
X182827Y1569716D01*
Y1564637D01*
X180288Y1562098D01*
X172671D01*
X203141Y1567177D02*
X208219Y1557020D01*
X213298Y1567177D01*
X218376Y1557020D02*
X223454D01*
X220915D01*
Y1572255D01*
X218376Y1569716D01*
X231072Y1557020D02*
Y1559559D01*
X233611D01*
Y1557020D01*
X231072D01*
X243768Y1569716D02*
X246307Y1572255D01*
X251385D01*
X253924Y1569716D01*
Y1559559D01*
X251385Y1557020D01*
X246307D01*
X243768Y1559559D01*
Y1569716D01*
X61719Y1225291D02*
X56640D01*
X59180D01*
Y1212595D01*
X56640Y1210056D01*
X54101D01*
X51562Y1212595D01*
X66797Y1210056D02*
X71875D01*
X69336D01*
Y1225291D01*
X66797Y1222752D01*
X240031Y1369057D02*
X234953D01*
X237492D01*
Y1356362D01*
X234953Y1353822D01*
X232413D01*
X229874Y1356362D01*
X255266Y1369057D02*
X245109D01*
Y1361440D01*
X250187Y1363979D01*
X252727D01*
X255266Y1361440D01*
Y1356362D01*
X252727Y1353822D01*
X247648D01*
X245109Y1356362D01*
X15243Y1328723D02*
X30477D01*
X25399Y1323645D01*
X30477Y1318567D01*
X15243D01*
X30477Y1303332D02*
Y1313488D01*
X15243D01*
Y1303332D01*
X22860Y1313488D02*
Y1308410D01*
X15243Y1298253D02*
X30477D01*
Y1290636D01*
X27938Y1288097D01*
X22860D01*
X20321Y1290636D01*
Y1298253D01*
X240031Y1504948D02*
X234953D01*
X237492D01*
Y1492252D01*
X234953Y1489713D01*
X232413D01*
X229874Y1492252D01*
X252727Y1489713D02*
Y1504948D01*
X245109Y1497330D01*
X255266D01*
X14892Y1477948D02*
X30127D01*
X25049Y1472870D01*
X30127Y1467792D01*
X14892D01*
X30127Y1455096D02*
Y1460174D01*
X27588Y1462713D01*
X17431D01*
X14892Y1460174D01*
Y1455096D01*
X17431Y1452557D01*
X27588D01*
X30127Y1455096D01*
Y1447478D02*
X14892D01*
Y1439861D01*
X17431Y1437322D01*
X27588D01*
X30127Y1439861D01*
Y1447478D01*
Y1422086D02*
Y1432243D01*
X14892D01*
Y1422086D01*
X22510Y1432243D02*
Y1427165D01*
X14892Y1417008D02*
X30127D01*
X25049Y1411930D01*
X30127Y1406851D01*
X14892D01*
X1230631Y673098D02*
X1225553D01*
X1228092D01*
Y660402D01*
X1225553Y657862D01*
X1223013D01*
X1220474Y660402D01*
X1235709Y670558D02*
X1238248Y673098D01*
X1243327D01*
X1245866Y670558D01*
Y668019D01*
X1243327Y665480D01*
X1240788D01*
X1243327D01*
X1245866Y662941D01*
Y660402D01*
X1243327Y657862D01*
X1238248D01*
X1235709Y660402D01*
X1419053Y566527D02*
X1434288D01*
Y574144D01*
X1431749Y576683D01*
X1429210D01*
X1426671Y574144D01*
Y566527D01*
Y574144D01*
X1424131Y576683D01*
X1421592D01*
X1419053Y574144D01*
Y566527D01*
X1434288Y581762D02*
X1424131D01*
X1419053Y586840D01*
X1424131Y591918D01*
X1434288D01*
X1426671D01*
Y581762D01*
X1419053Y596997D02*
Y607153D01*
Y602075D01*
X1434288D01*
X52071Y391157D02*
X46993D01*
X49532D01*
Y378462D01*
X46993Y375923D01*
X44453D01*
X41914Y378462D01*
X67306Y375923D02*
X57149D01*
X67306Y386079D01*
Y388618D01*
X64767Y391157D01*
X59688D01*
X57149Y388618D01*
G54D13*
X51010Y1489400D02*
X216010D01*
X51010Y1387800D02*
Y1489400D01*
Y1387800D02*
X216010D01*
Y1489400D01*
X51010Y1355400D02*
X216010D01*
X51010Y1253800D02*
Y1355400D01*
Y1253800D02*
X216010D01*
Y1355400D01*
X1233173Y537600D02*
X1398173D01*
Y639200D01*
X1233173D02*
X1398173D01*
X1233173Y537600D02*
Y639200D01*
X853440Y221500D02*
X1361440D01*
X599440D02*
X1107440D01*
X91440D02*
X599440D01*
Y386500D01*
Y221500D02*
Y386500D01*
X1361440Y221500D02*
Y386500D01*
X853440D02*
X1361440D01*
X91440Y221500D02*
Y386500D01*
X599440D01*
X1107440Y221500D02*
Y386500D01*
X599440D02*
X1107440D01*
G54D14*
X566718Y633881D02*
X558387Y642212D01*
X541726D01*
X533395Y633881D01*
Y625551D01*
X541726Y617220D01*
X558387D01*
X566718Y608889D01*
Y600559D01*
X558387Y592228D01*
X541726D01*
X533395Y600559D01*
X616702Y642212D02*
X583379D01*
Y592228D01*
X616702D01*
X583379Y617220D02*
X600040D01*
X666685Y633881D02*
X658355Y642212D01*
X641694D01*
X633363Y633881D01*
Y600559D01*
X641694Y592228D01*
X658355D01*
X666685Y600559D01*
X683347Y642212D02*
Y592228D01*
Y617220D01*
X716669D01*
Y642212D01*
Y592228D01*
X816637Y633881D02*
X808306Y642212D01*
X791645D01*
X783315Y633881D01*
Y625551D01*
X791645Y617220D01*
X808306D01*
X816637Y608889D01*
Y600559D01*
X808306Y592228D01*
X791645D01*
X783315Y600559D01*
X833298Y592228D02*
Y642212D01*
X858290D01*
X866621Y633881D01*
Y617220D01*
X858290Y608889D01*
X833298D01*
X849960D02*
X866621Y592228D01*
X883282Y642212D02*
Y592228D01*
X916605D01*
G54D15*
X846617Y1119917D02*
Y1159903D01*
X859946Y1146574D01*
X873275Y1159903D01*
Y1119917D01*
X906597Y1159903D02*
X893268D01*
X886604Y1153239D01*
Y1126581D01*
X893268Y1119917D01*
X906597D01*
X913262Y1126581D01*
Y1153239D01*
X906597Y1159903D01*
X926591D02*
Y1119917D01*
X946584D01*
X953249Y1126581D01*
Y1153239D01*
X946584Y1159903D01*
X926591D01*
X993236D02*
X966578D01*
Y1119917D01*
X993236D01*
X966578Y1139910D02*
X979907D01*
X1006565Y1119917D02*
Y1159903D01*
X1019894Y1146574D01*
X1033223Y1159903D01*
Y1119917D01*
X1106533D02*
Y1159903D01*
X1086539Y1139910D01*
X1113197D01*
X1153184Y1153239D02*
X1146520Y1159903D01*
X1133191D01*
X1126526Y1153239D01*
Y1126581D01*
X1133191Y1119917D01*
X1146520D01*
X1153184Y1126581D01*
Y1139910D01*
X1139855D01*
G54D16*
X111044Y467737D02*
X113424Y468927D01*
X116995Y472497D01*
Y447503D01*
X115805Y471307D02*
Y447503D01*
X111044D02*
X121756D01*
X160059Y467737D02*
X161249Y466546D01*
X160059Y465356D01*
X158869Y466546D01*
Y467737D01*
X160059Y470117D01*
X161249Y471307D01*
X164820Y472497D01*
X169580D01*
X173151Y471307D01*
X174341Y470117D01*
X175532Y467737D01*
Y465356D01*
X174341Y462976D01*
X170771Y460595D01*
X164820Y458215D01*
X162439Y457024D01*
X160059Y454644D01*
X158869Y451073D01*
Y447503D01*
X169580Y472497D02*
X171961Y471307D01*
X173151Y470117D01*
X174341Y467737D01*
Y465356D01*
X173151Y462976D01*
X169580Y460595D01*
X164820Y458215D01*
X158869Y449883D02*
X160059Y451073D01*
X162439D01*
X168390Y448693D01*
X171961D01*
X174341Y449883D01*
X175532Y451073D01*
Y453454D01*
X162439Y451073D02*
X168390Y447503D01*
X173151D01*
X174341Y448693D01*
X175532Y451073D01*
X210859Y467737D02*
X212049Y466546D01*
X210859Y465356D01*
X209669Y466546D01*
Y467737D01*
X210859Y470117D01*
X212049Y471307D01*
X215620Y472497D01*
X220380D01*
X223951Y471307D01*
X225141Y468927D01*
Y465356D01*
X223951Y462976D01*
X220380Y461785D01*
X216810D01*
X220380Y472497D02*
X222761Y471307D01*
X223951Y468927D01*
Y465356D01*
X222761Y462976D01*
X220380Y461785D01*
X222761Y460595D01*
X225141Y458215D01*
X226332Y455834D01*
Y452264D01*
X225141Y449883D01*
X223951Y448693D01*
X220380Y447503D01*
X215620D01*
X212049Y448693D01*
X210859Y449883D01*
X209669Y452264D01*
Y453454D01*
X210859Y454644D01*
X212049Y453454D01*
X210859Y452264D01*
X223951Y459405D02*
X225141Y455834D01*
Y452264D01*
X223951Y449883D01*
X222761Y448693D01*
X220380Y447503D01*
X271180Y470117D02*
Y447503D01*
X278322Y454644D02*
X259278D01*
X272371Y472497D01*
Y447503D01*
X267610D02*
X275941D01*
X313649Y472497D02*
X311269Y460595D01*
X313649Y462976D01*
X317220Y464166D01*
X320790D01*
X324361Y462976D01*
X326741Y460595D01*
X327932Y457024D01*
Y454644D01*
X326741Y451073D01*
X324361Y448693D01*
X320790Y447503D01*
X317220D01*
X313649Y448693D01*
X312459Y449883D01*
X311269Y452264D01*
Y453454D01*
X312459Y454644D01*
X313649Y453454D01*
X312459Y452264D01*
X320790Y464166D02*
X323171Y462976D01*
X325551Y460595D01*
X326741Y457024D01*
Y454644D01*
X325551Y451073D01*
X323171Y448693D01*
X320790Y447503D01*
X313649Y472497D02*
X325551D01*
X313649Y471307D02*
X319600D01*
X325551Y472497D01*
X376351Y468927D02*
X375161Y467737D01*
X376351Y466546D01*
X377541Y467737D01*
Y468927D01*
X376351Y471307D01*
X373971Y472497D01*
X370400D01*
X366829Y471307D01*
X364449Y468927D01*
X363259Y466546D01*
X362068Y461785D01*
Y454644D01*
X363259Y451073D01*
X365639Y448693D01*
X369210Y447503D01*
X371590D01*
X375161Y448693D01*
X377541Y451073D01*
X378732Y454644D01*
Y455834D01*
X377541Y459405D01*
X375161Y461785D01*
X371590Y462976D01*
X370400D01*
X366829Y461785D01*
X364449Y459405D01*
X363259Y455834D01*
X370400Y472497D02*
X368020Y471307D01*
X365639Y468927D01*
X364449Y466546D01*
X363259Y461785D01*
Y454644D01*
X364449Y451073D01*
X366829Y448693D01*
X369210Y447503D01*
X371590D02*
X373971Y448693D01*
X376351Y451073D01*
X377541Y454644D01*
Y455834D01*
X376351Y459405D01*
X373971Y461785D01*
X371590Y462976D01*
X412868Y472497D02*
Y465356D01*
Y467737D02*
X414059Y470117D01*
X416439Y472497D01*
X418820D01*
X424771Y468927D01*
X427151D01*
X428341Y470117D01*
X429532Y472497D01*
X414059Y470117D02*
X416439Y471307D01*
X418820D01*
X424771Y468927D01*
X429532Y472497D02*
Y468927D01*
X428341Y465356D01*
X423581Y459405D01*
X422390Y457024D01*
X421200Y453454D01*
Y447503D01*
X428341Y465356D02*
X422390Y459405D01*
X421200Y457024D01*
X420010Y453454D01*
Y447503D01*
X469620Y472497D02*
X466049Y471307D01*
X464859Y468927D01*
Y465356D01*
X466049Y462976D01*
X469620Y461785D01*
X474380D01*
X477951Y462976D01*
X479141Y465356D01*
Y468927D01*
X477951Y471307D01*
X474380Y472497D01*
X469620D01*
X467239Y471307D01*
X466049Y468927D01*
Y465356D01*
X467239Y462976D01*
X469620Y461785D01*
X474380D02*
X476761Y462976D01*
X477951Y465356D01*
Y468927D01*
X476761Y471307D01*
X474380Y472497D01*
X469620Y461785D02*
X466049Y460595D01*
X464859Y459405D01*
X463669Y457024D01*
Y452264D01*
X464859Y449883D01*
X466049Y448693D01*
X469620Y447503D01*
X474380D01*
X477951Y448693D01*
X479141Y449883D01*
X480332Y452264D01*
Y457024D01*
X479141Y459405D01*
X477951Y460595D01*
X474380Y461785D01*
X469620D02*
X467239Y460595D01*
X466049Y459405D01*
X464859Y457024D01*
Y452264D01*
X466049Y449883D01*
X467239Y448693D01*
X469620Y447503D01*
X474380D02*
X476761Y448693D01*
X477951Y449883D01*
X479141Y452264D01*
Y457024D01*
X477951Y459405D01*
X476761Y460595D01*
X474380Y461785D01*
X529941Y464166D02*
X528751Y460595D01*
X526371Y458215D01*
X522800Y457024D01*
X521610D01*
X518039Y458215D01*
X515659Y460595D01*
X514468Y464166D01*
Y465356D01*
X515659Y468927D01*
X518039Y471307D01*
X521610Y472497D01*
X523990D01*
X527561Y471307D01*
X529941Y468927D01*
X531132Y465356D01*
Y458215D01*
X529941Y453454D01*
X528751Y451073D01*
X526371Y448693D01*
X522800Y447503D01*
X519229D01*
X516849Y448693D01*
X515659Y451073D01*
Y452264D01*
X516849Y453454D01*
X518039Y452264D01*
X516849Y451073D01*
X521610Y457024D02*
X519229Y458215D01*
X516849Y460595D01*
X515659Y464166D01*
Y465356D01*
X516849Y468927D01*
X519229Y471307D01*
X521610Y472497D01*
X523990D02*
X526371Y471307D01*
X528751Y468927D01*
X529941Y465356D01*
Y458215D01*
X528751Y453454D01*
X527561Y451073D01*
X525181Y448693D01*
X522800Y447503D01*
X557770Y467737D02*
X560150Y468927D01*
X563721Y472497D01*
Y447503D01*
X562531Y471307D02*
Y447503D01*
X557770D02*
X568482D01*
X579908Y472497D02*
X576338Y471307D01*
X573957Y467737D01*
X572767Y461785D01*
Y458215D01*
X573957Y452264D01*
X576338Y448693D01*
X579908Y447503D01*
X582289D01*
X585859Y448693D01*
X588240Y452264D01*
X589430Y458215D01*
Y461785D01*
X588240Y467737D01*
X585859Y471307D01*
X582289Y472497D01*
X579908D01*
X577528Y471307D01*
X576338Y470117D01*
X575147Y467737D01*
X573957Y461785D01*
Y458215D01*
X575147Y452264D01*
X576338Y449883D01*
X577528Y448693D01*
X579908Y447503D01*
X582289D02*
X584669Y448693D01*
X585859Y449883D01*
X587049Y452264D01*
X588240Y458215D01*
Y461785D01*
X587049Y467737D01*
X585859Y470117D01*
X584669Y471307D01*
X582289Y472497D01*
X611546Y467737D02*
X613926Y468927D01*
X617497Y472497D01*
Y447503D01*
X616306Y471307D02*
Y447503D01*
X611546D02*
X622258D01*
X626542Y467737D02*
X628923Y468927D01*
X632494Y472497D01*
Y447503D01*
X631303Y471307D02*
Y447503D01*
X626542D02*
X637254D01*
X659370Y467737D02*
X661750Y468927D01*
X665321Y472497D01*
Y447503D01*
X664131Y471307D02*
Y447503D01*
X659370D02*
X670082D01*
X675557Y467737D02*
X676747Y466546D01*
X675557Y465356D01*
X674367Y466546D01*
Y467737D01*
X675557Y470117D01*
X676747Y471307D01*
X680318Y472497D01*
X685079D01*
X688650Y471307D01*
X689840Y470117D01*
X691030Y467737D01*
Y465356D01*
X689840Y462976D01*
X686269Y460595D01*
X680318Y458215D01*
X677937Y457024D01*
X675557Y454644D01*
X674367Y451073D01*
Y447503D01*
X685079Y472497D02*
X687459Y471307D01*
X688650Y470117D01*
X689840Y467737D01*
Y465356D01*
X688650Y462976D01*
X685079Y460595D01*
X680318Y458215D01*
X674367Y449883D02*
X675557Y451073D01*
X677937D01*
X683889Y448693D01*
X687459D01*
X689840Y449883D01*
X691030Y451073D01*
Y453454D01*
X677937Y451073D02*
X683889Y447503D01*
X688650D01*
X689840Y448693D01*
X691030Y451073D01*
X710170Y467737D02*
X712551Y468927D01*
X716121Y472497D01*
Y447503D01*
X714931Y471307D02*
Y447503D01*
X710170D02*
X720882D01*
X726357Y467737D02*
X727547Y466546D01*
X726357Y465356D01*
X725167Y466546D01*
Y467737D01*
X726357Y470117D01*
X727547Y471307D01*
X731118Y472497D01*
X735879D01*
X739449Y471307D01*
X740640Y468927D01*
Y465356D01*
X739449Y462976D01*
X735879Y461785D01*
X732308D01*
X735879Y472497D02*
X738259Y471307D01*
X739449Y468927D01*
Y465356D01*
X738259Y462976D01*
X735879Y461785D01*
X738259Y460595D01*
X740640Y458215D01*
X741830Y455834D01*
Y452264D01*
X740640Y449883D01*
X739449Y448693D01*
X735879Y447503D01*
X731118D01*
X727547Y448693D01*
X726357Y449883D01*
X725167Y452264D01*
Y453454D01*
X726357Y454644D01*
X727547Y453454D01*
X726357Y452264D01*
X739449Y459405D02*
X740640Y455834D01*
Y452264D01*
X739449Y449883D01*
X738259Y448693D01*
X735879Y447503D01*
X759780Y467737D02*
X762160Y468927D01*
X765731Y472497D01*
Y447503D01*
X764541Y471307D02*
Y447503D01*
X759780D02*
X770492D01*
X786679Y470117D02*
Y447503D01*
X793820Y454644D02*
X774777D01*
X787869Y472497D01*
Y447503D01*
X783108D02*
X791440D01*
X811770Y467737D02*
X814150Y468927D01*
X817721Y472497D01*
Y447503D01*
X816531Y471307D02*
Y447503D01*
X811770D02*
X822482D01*
X829147Y472497D02*
X826767Y460595D01*
X829147Y462976D01*
X832718Y464166D01*
X836289D01*
X839859Y462976D01*
X842240Y460595D01*
X843430Y457024D01*
Y454644D01*
X842240Y451073D01*
X839859Y448693D01*
X836289Y447503D01*
X832718D01*
X829147Y448693D01*
X827957Y449883D01*
X826767Y452264D01*
Y453454D01*
X827957Y454644D01*
X829147Y453454D01*
X827957Y452264D01*
X836289Y464166D02*
X838669Y462976D01*
X841049Y460595D01*
X842240Y457024D01*
Y454644D01*
X841049Y451073D01*
X838669Y448693D01*
X836289Y447503D01*
X829147Y472497D02*
X841049D01*
X829147Y471307D02*
X835098D01*
X841049Y472497D01*
X862570Y467737D02*
X864950Y468927D01*
X868521Y472497D01*
Y447503D01*
X867331Y471307D02*
Y447503D01*
X862570D02*
X873282D01*
X891850Y468927D02*
X890659Y467737D01*
X891850Y466546D01*
X893040Y467737D01*
Y468927D01*
X891850Y471307D01*
X889469Y472497D01*
X885898D01*
X882328Y471307D01*
X879947Y468927D01*
X878757Y466546D01*
X877567Y461785D01*
Y454644D01*
X878757Y451073D01*
X881137Y448693D01*
X884708Y447503D01*
X887089D01*
X890659Y448693D01*
X893040Y451073D01*
X894230Y454644D01*
Y455834D01*
X893040Y459405D01*
X890659Y461785D01*
X887089Y462976D01*
X885898D01*
X882328Y461785D01*
X879947Y459405D01*
X878757Y455834D01*
X885898Y472497D02*
X883518Y471307D01*
X881137Y468927D01*
X879947Y466546D01*
X878757Y461785D01*
Y454644D01*
X879947Y451073D01*
X882328Y448693D01*
X884708Y447503D01*
X887089D02*
X889469Y448693D01*
X891850Y451073D01*
X893040Y454644D01*
Y455834D01*
X891850Y459405D01*
X889469Y461785D01*
X887089Y462976D01*
X913370Y467737D02*
X915751Y468927D01*
X919321Y472497D01*
Y447503D01*
X918131Y471307D02*
Y447503D01*
X913370D02*
X924082D01*
X928367Y472497D02*
Y465356D01*
Y467737D02*
X929557Y470117D01*
X931937Y472497D01*
X934318D01*
X940269Y468927D01*
X942650D01*
X943840Y470117D01*
X945030Y472497D01*
X929557Y470117D02*
X931937Y471307D01*
X934318D01*
X940269Y468927D01*
X945030Y472497D02*
Y468927D01*
X943840Y465356D01*
X939079Y459405D01*
X937889Y457024D01*
X936698Y453454D01*
Y447503D01*
X943840Y465356D02*
X937889Y459405D01*
X936698Y457024D01*
X935508Y453454D01*
Y447503D01*
X964170Y467737D02*
X966551Y468927D01*
X970121Y472497D01*
Y447503D01*
X968931Y471307D02*
Y447503D01*
X964170D02*
X974882D01*
X985118Y472497D02*
X981547Y471307D01*
X980357Y468927D01*
Y465356D01*
X981547Y462976D01*
X985118Y461785D01*
X989879D01*
X993449Y462976D01*
X994640Y465356D01*
Y468927D01*
X993449Y471307D01*
X989879Y472497D01*
X985118D01*
X982738Y471307D01*
X981547Y468927D01*
Y465356D01*
X982738Y462976D01*
X985118Y461785D01*
X989879D02*
X992259Y462976D01*
X993449Y465356D01*
Y468927D01*
X992259Y471307D01*
X989879Y472497D01*
X985118Y461785D02*
X981547Y460595D01*
X980357Y459405D01*
X979167Y457024D01*
Y452264D01*
X980357Y449883D01*
X981547Y448693D01*
X985118Y447503D01*
X989879D01*
X993449Y448693D01*
X994640Y449883D01*
X995830Y452264D01*
Y457024D01*
X994640Y459405D01*
X993449Y460595D01*
X989879Y461785D01*
X985118D02*
X982738Y460595D01*
X981547Y459405D01*
X980357Y457024D01*
Y452264D01*
X981547Y449883D01*
X982738Y448693D01*
X985118Y447503D01*
X989879D02*
X992259Y448693D01*
X993449Y449883D01*
X994640Y452264D01*
Y457024D01*
X993449Y459405D01*
X992259Y460595D01*
X989879Y461785D01*
X1014970Y467737D02*
X1017350Y468927D01*
X1020921Y472497D01*
Y447503D01*
X1019731Y471307D02*
Y447503D01*
X1014970D02*
X1025682D01*
X1045440Y464166D02*
X1044249Y460595D01*
X1041869Y458215D01*
X1038298Y457024D01*
X1037108D01*
X1033538Y458215D01*
X1031157Y460595D01*
X1029967Y464166D01*
Y465356D01*
X1031157Y468927D01*
X1033538Y471307D01*
X1037108Y472497D01*
X1039489D01*
X1043059Y471307D01*
X1045440Y468927D01*
X1046630Y465356D01*
Y458215D01*
X1045440Y453454D01*
X1044249Y451073D01*
X1041869Y448693D01*
X1038298Y447503D01*
X1034728D01*
X1032347Y448693D01*
X1031157Y451073D01*
Y452264D01*
X1032347Y453454D01*
X1033538Y452264D01*
X1032347Y451073D01*
X1037108Y457024D02*
X1034728Y458215D01*
X1032347Y460595D01*
X1031157Y464166D01*
Y465356D01*
X1032347Y468927D01*
X1034728Y471307D01*
X1037108Y472497D01*
X1039489D02*
X1041869Y471307D01*
X1044249Y468927D01*
X1045440Y465356D01*
Y458215D01*
X1044249Y453454D01*
X1043059Y451073D01*
X1040679Y448693D01*
X1038298Y447503D01*
X1064282Y467737D02*
X1065472Y466546D01*
X1064282Y465356D01*
X1063092Y466546D01*
Y467737D01*
X1064282Y470117D01*
X1065472Y471307D01*
X1069043Y472497D01*
X1073804D01*
X1077375Y471307D01*
X1078565Y470117D01*
X1079755Y467737D01*
Y465356D01*
X1078565Y462976D01*
X1074994Y460595D01*
X1069043Y458215D01*
X1066663Y457024D01*
X1064282Y454644D01*
X1063092Y451073D01*
Y447503D01*
X1073804Y472497D02*
X1076184Y471307D01*
X1077375Y470117D01*
X1078565Y467737D01*
Y465356D01*
X1077375Y462976D01*
X1073804Y460595D01*
X1069043Y458215D01*
X1063092Y449883D02*
X1064282Y451073D01*
X1066663D01*
X1072614Y448693D01*
X1076184D01*
X1078565Y449883D01*
X1079755Y451073D01*
Y453454D01*
X1066663Y451073D02*
X1072614Y447503D01*
X1077375D01*
X1078565Y448693D01*
X1079755Y451073D01*
X1090586Y472497D02*
X1087016Y471307D01*
X1084635Y467737D01*
X1083445Y461785D01*
Y458215D01*
X1084635Y452264D01*
X1087016Y448693D01*
X1090586Y447503D01*
X1092967D01*
X1096537Y448693D01*
X1098918Y452264D01*
X1100108Y458215D01*
Y461785D01*
X1098918Y467737D01*
X1096537Y471307D01*
X1092967Y472497D01*
X1090586D01*
X1088206Y471307D01*
X1087016Y470117D01*
X1085825Y467737D01*
X1084635Y461785D01*
Y458215D01*
X1085825Y452264D01*
X1087016Y449883D01*
X1088206Y448693D01*
X1090586Y447503D01*
X1092967D02*
X1095347Y448693D01*
X1096537Y449883D01*
X1097728Y452264D01*
X1098918Y458215D01*
Y461785D01*
X1097728Y467737D01*
X1096537Y470117D01*
X1095347Y471307D01*
X1092967Y472497D01*
X1118058Y467737D02*
X1119248Y466546D01*
X1118058Y465356D01*
X1116868Y466546D01*
Y467737D01*
X1118058Y470117D01*
X1119248Y471307D01*
X1122819Y472497D01*
X1127580D01*
X1131150Y471307D01*
X1132340Y470117D01*
X1133531Y467737D01*
Y465356D01*
X1132340Y462976D01*
X1128770Y460595D01*
X1122819Y458215D01*
X1120438Y457024D01*
X1118058Y454644D01*
X1116868Y451073D01*
Y447503D01*
X1127580Y472497D02*
X1129960Y471307D01*
X1131150Y470117D01*
X1132340Y467737D01*
Y465356D01*
X1131150Y462976D01*
X1127580Y460595D01*
X1122819Y458215D01*
X1116868Y449883D02*
X1118058Y451073D01*
X1120438D01*
X1126389Y448693D01*
X1129960D01*
X1132340Y449883D01*
X1133531Y451073D01*
Y453454D01*
X1120438Y451073D02*
X1126389Y447503D01*
X1131150D01*
X1132340Y448693D01*
X1133531Y451073D01*
X1137220Y467737D02*
X1139601Y468927D01*
X1143171Y472497D01*
Y447503D01*
X1141981Y471307D02*
Y447503D01*
X1137220D02*
X1147932D01*
X1165882Y467737D02*
X1167073Y466546D01*
X1165882Y465356D01*
X1164692Y466546D01*
Y467737D01*
X1165882Y470117D01*
X1167073Y471307D01*
X1170643Y472497D01*
X1175404D01*
X1178975Y471307D01*
X1180165Y470117D01*
X1181355Y467737D01*
Y465356D01*
X1180165Y462976D01*
X1176594Y460595D01*
X1170643Y458215D01*
X1168263Y457024D01*
X1165882Y454644D01*
X1164692Y451073D01*
Y447503D01*
X1175404Y472497D02*
X1177785Y471307D01*
X1178975Y470117D01*
X1180165Y467737D01*
Y465356D01*
X1178975Y462976D01*
X1175404Y460595D01*
X1170643Y458215D01*
X1164692Y449883D02*
X1165882Y451073D01*
X1168263D01*
X1174214Y448693D01*
X1177785D01*
X1180165Y449883D01*
X1181355Y451073D01*
Y453454D01*
X1168263Y451073D02*
X1174214Y447503D01*
X1178975D01*
X1180165Y448693D01*
X1181355Y451073D01*
X1186235Y467737D02*
X1187425Y466546D01*
X1186235Y465356D01*
X1185045Y466546D01*
Y467737D01*
X1186235Y470117D01*
X1187425Y471307D01*
X1190996Y472497D01*
X1195757D01*
X1199327Y471307D01*
X1200518Y470117D01*
X1201708Y467737D01*
Y465356D01*
X1200518Y462976D01*
X1196947Y460595D01*
X1190996Y458215D01*
X1188615Y457024D01*
X1186235Y454644D01*
X1185045Y451073D01*
Y447503D01*
X1195757Y472497D02*
X1198137Y471307D01*
X1199327Y470117D01*
X1200518Y467737D01*
Y465356D01*
X1199327Y462976D01*
X1195757Y460595D01*
X1190996Y458215D01*
X1185045Y449883D02*
X1186235Y451073D01*
X1188615D01*
X1194567Y448693D01*
X1198137D01*
X1200518Y449883D01*
X1201708Y451073D01*
Y453454D01*
X1188615Y451073D02*
X1194567Y447503D01*
X1199327D01*
X1200518Y448693D01*
X1201708Y451073D01*
X1216682Y467737D02*
X1217872Y466546D01*
X1216682Y465356D01*
X1215492Y466546D01*
Y467737D01*
X1216682Y470117D01*
X1217872Y471307D01*
X1221443Y472497D01*
X1226204D01*
X1229775Y471307D01*
X1230965Y470117D01*
X1232155Y467737D01*
Y465356D01*
X1230965Y462976D01*
X1227394Y460595D01*
X1221443Y458215D01*
X1219063Y457024D01*
X1216682Y454644D01*
X1215492Y451073D01*
Y447503D01*
X1226204Y472497D02*
X1228585Y471307D01*
X1229775Y470117D01*
X1230965Y467737D01*
Y465356D01*
X1229775Y462976D01*
X1226204Y460595D01*
X1221443Y458215D01*
X1215492Y449883D02*
X1216682Y451073D01*
X1219063D01*
X1225014Y448693D01*
X1228585D01*
X1230965Y449883D01*
X1232155Y451073D01*
Y453454D01*
X1219063Y451073D02*
X1225014Y447503D01*
X1229775D01*
X1230965Y448693D01*
X1232155Y451073D01*
X1237035Y467737D02*
X1238225Y466546D01*
X1237035Y465356D01*
X1235845Y466546D01*
Y467737D01*
X1237035Y470117D01*
X1238225Y471307D01*
X1241796Y472497D01*
X1246557D01*
X1250127Y471307D01*
X1251318Y468927D01*
Y465356D01*
X1250127Y462976D01*
X1246557Y461785D01*
X1242986D01*
X1246557Y472497D02*
X1248937Y471307D01*
X1250127Y468927D01*
Y465356D01*
X1248937Y462976D01*
X1246557Y461785D01*
X1248937Y460595D01*
X1251318Y458215D01*
X1252508Y455834D01*
Y452264D01*
X1251318Y449883D01*
X1250127Y448693D01*
X1246557Y447503D01*
X1241796D01*
X1238225Y448693D01*
X1237035Y449883D01*
X1235845Y452264D01*
Y453454D01*
X1237035Y454644D01*
X1238225Y453454D01*
X1237035Y452264D01*
X1250127Y459405D02*
X1251318Y455834D01*
Y452264D01*
X1250127Y449883D01*
X1248937Y448693D01*
X1246557Y447503D01*
X1266292Y467737D02*
X1267482Y466546D01*
X1266292Y465356D01*
X1265102Y466546D01*
Y467737D01*
X1266292Y470117D01*
X1267482Y471307D01*
X1271053Y472497D01*
X1275814D01*
X1279385Y471307D01*
X1280575Y470117D01*
X1281765Y467737D01*
Y465356D01*
X1280575Y462976D01*
X1277004Y460595D01*
X1271053Y458215D01*
X1268672Y457024D01*
X1266292Y454644D01*
X1265102Y451073D01*
Y447503D01*
X1275814Y472497D02*
X1278194Y471307D01*
X1279385Y470117D01*
X1280575Y467737D01*
Y465356D01*
X1279385Y462976D01*
X1275814Y460595D01*
X1271053Y458215D01*
X1265102Y449883D02*
X1266292Y451073D01*
X1268672D01*
X1274624Y448693D01*
X1278194D01*
X1280575Y449883D01*
X1281765Y451073D01*
Y453454D01*
X1268672Y451073D02*
X1274624Y447503D01*
X1279385D01*
X1280575Y448693D01*
X1281765Y451073D01*
X1297357Y470117D02*
Y447503D01*
X1304498Y454644D02*
X1285455D01*
X1298547Y472497D01*
Y447503D01*
X1293786D02*
X1302118D01*
X1318282Y467737D02*
X1319473Y466546D01*
X1318282Y465356D01*
X1317092Y466546D01*
Y467737D01*
X1318282Y470117D01*
X1319473Y471307D01*
X1323043Y472497D01*
X1327804D01*
X1331375Y471307D01*
X1332565Y470117D01*
X1333755Y467737D01*
Y465356D01*
X1332565Y462976D01*
X1328994Y460595D01*
X1323043Y458215D01*
X1320663Y457024D01*
X1318282Y454644D01*
X1317092Y451073D01*
Y447503D01*
X1327804Y472497D02*
X1330184Y471307D01*
X1331375Y470117D01*
X1332565Y467737D01*
Y465356D01*
X1331375Y462976D01*
X1327804Y460595D01*
X1323043Y458215D01*
X1317092Y449883D02*
X1318282Y451073D01*
X1320663D01*
X1326614Y448693D01*
X1330184D01*
X1332565Y449883D01*
X1333755Y451073D01*
Y453454D01*
X1320663Y451073D02*
X1326614Y447503D01*
X1331375D01*
X1332565Y448693D01*
X1333755Y451073D01*
X1339825Y472497D02*
X1337445Y460595D01*
X1339825Y462976D01*
X1343396Y464166D01*
X1346967D01*
X1350537Y462976D01*
X1352918Y460595D01*
X1354108Y457024D01*
Y454644D01*
X1352918Y451073D01*
X1350537Y448693D01*
X1346967Y447503D01*
X1343396D01*
X1339825Y448693D01*
X1338635Y449883D01*
X1337445Y452264D01*
Y453454D01*
X1338635Y454644D01*
X1339825Y453454D01*
X1338635Y452264D01*
X1346967Y464166D02*
X1349347Y462976D01*
X1351727Y460595D01*
X1352918Y457024D01*
Y454644D01*
X1351727Y451073D01*
X1349347Y448693D01*
X1346967Y447503D01*
X1339825Y472497D02*
X1351727D01*
X1339825Y471307D02*
X1345776D01*
X1351727Y472497D01*
M02*
